<svg xmlns="http://www.w3.org/2000/svg" width="1200" height="630" viewBox="0 0 1200 630">
<defs>
  <style>@import url('https://fonts.googleapis.com/css2?family=Rajdhani:wght@600&amp;display=swap');</style>
  
    <radialGradient id="bg5" cx="50%" cy="40%" r="60%">
      <stop offset="0%" stop-color="#0c1a2e"/>
      <stop offset="100%" stop-color="#080d18"/>
    </radialGradient>
</defs>

    <rect width="1200" height="630" fill="url(#bg5)"/>
    <circle cx="0.0" cy="0.0" r="1.5" fill="rgba(74,158,255,0.06)"/><circle cx="40.0" cy="0.0" r="1.5" fill="rgba(74,158,255,0.06)"/><circle cx="80.0" cy="0.0" r="1.5" fill="rgba(74,158,255,0.06)"/><circle cx="120.0" cy="0.0" r="1.5" fill="rgba(74,158,255,0.06)"/><circle cx="160.0" cy="0.0" r="1.5" fill="rgba(74,158,255,0.06)"/><circle cx="200.0" cy="0.0" r="1.5" fill="rgba(74,158,255,0.06)"/><circle cx="240.0" cy="0.0" r="1.5" fill="rgba(74,158,255,0.06)"/><circle cx="280.0" cy="0.0" r="1.5" fill="rgba(74,158,255,0.06)"/><circle cx="320.0" cy="0.0" r="1.5" fill="rgba(74,158,255,0.06)"/><circle cx="360.0" cy="0.0" r="1.5" fill="rgba(74,158,255,0.06)"/><circle cx="400.0" cy="0.0" r="1.5" fill="rgba(74,158,255,0.06)"/><circle cx="440.0" cy="0.0" r="1.5" fill="rgba(74,158,255,0.06)"/><circle cx="480.0" cy="0.0" r="1.5" fill="rgba(74,158,255,0.06)"/><circle cx="520.0" cy="0.0" r="1.5" fill="rgba(74,158,255,0.06)"/><circle cx="560.0" cy="0.0" r="1.5" fill="rgba(74,158,255,0.06)"/><circle cx="600.0" cy="0.0" r="1.5" fill="rgba(74,158,255,0.06)"/><circle cx="640.0" cy="0.0" r="1.5" fill="rgba(74,158,255,0.06)"/><circle cx="680.0" cy="0.0" r="1.5" fill="rgba(74,158,255,0.06)"/><circle cx="720.0" cy="0.0" r="1.5" fill="rgba(74,158,255,0.06)"/><circle cx="760.0" cy="0.0" r="1.5" fill="rgba(74,158,255,0.06)"/><circle cx="800.0" cy="0.0" r="1.5" fill="rgba(74,158,255,0.06)"/><circle cx="840.0" cy="0.0" r="1.5" fill="rgba(74,158,255,0.06)"/><circle cx="880.0" cy="0.0" r="1.5" fill="rgba(74,158,255,0.06)"/><circle cx="920.0" cy="0.0" r="1.5" fill="rgba(74,158,255,0.06)"/><circle cx="960.0" cy="0.0" r="1.5" fill="rgba(74,158,255,0.06)"/><circle cx="1000.0" cy="0.0" r="1.5" fill="rgba(74,158,255,0.06)"/><circle cx="1040.0" cy="0.0" r="1.5" fill="rgba(74,158,255,0.06)"/><circle cx="1080.0" cy="0.0" r="1.5" fill="rgba(74,158,255,0.06)"/><circle cx="1120.0" cy="0.0" r="1.5" fill="rgba(74,158,255,0.06)"/><circle cx="1160.0" cy="0.0" r="1.5" fill="rgba(74,158,255,0.06)"/><circle cx="1200.0" cy="0.0" r="1.5" fill="rgba(74,158,255,0.06)"/><circle cx="0.0" cy="39.4" r="1.5" fill="rgba(74,158,255,0.06)"/><circle cx="40.0" cy="39.4" r="1.5" fill="rgba(74,158,255,0.06)"/><circle cx="80.0" cy="39.4" r="1.5" fill="rgba(74,158,255,0.06)"/><circle cx="120.0" cy="39.4" r="1.5" fill="rgba(74,158,255,0.06)"/><circle cx="160.0" cy="39.4" r="1.5" fill="rgba(74,158,255,0.06)"/><circle cx="200.0" cy="39.4" r="1.5" fill="rgba(74,158,255,0.06)"/><circle cx="240.0" cy="39.4" r="1.5" fill="rgba(74,158,255,0.06)"/><circle cx="280.0" cy="39.4" r="1.5" fill="rgba(74,158,255,0.06)"/><circle cx="320.0" cy="39.4" r="1.5" fill="rgba(74,158,255,0.06)"/><circle cx="360.0" cy="39.4" r="1.5" fill="rgba(74,158,255,0.06)"/><circle cx="400.0" cy="39.4" r="1.5" fill="rgba(74,158,255,0.06)"/><circle cx="440.0" cy="39.4" r="1.5" fill="rgba(74,158,255,0.06)"/><circle cx="480.0" cy="39.4" r="1.5" fill="rgba(74,158,255,0.06)"/><circle cx="520.0" cy="39.4" r="1.5" fill="rgba(74,158,255,0.06)"/><circle cx="560.0" cy="39.4" r="1.5" fill="rgba(74,158,255,0.06)"/><circle cx="600.0" cy="39.4" r="1.5" fill="rgba(74,158,255,0.06)"/><circle cx="640.0" cy="39.4" r="1.5" fill="rgba(74,158,255,0.06)"/><circle cx="680.0" cy="39.4" r="1.5" fill="rgba(74,158,255,0.06)"/><circle cx="720.0" cy="39.4" r="1.5" fill="rgba(74,158,255,0.06)"/><circle cx="760.0" cy="39.4" r="1.5" fill="rgba(74,158,255,0.06)"/><circle cx="800.0" cy="39.4" r="1.5" fill="rgba(74,158,255,0.06)"/><circle cx="840.0" cy="39.4" r="1.5" fill="rgba(74,158,255,0.06)"/><circle cx="880.0" cy="39.4" r="1.5" fill="rgba(74,158,255,0.06)"/><circle cx="920.0" cy="39.4" r="1.5" fill="rgba(74,158,255,0.06)"/><circle cx="960.0" cy="39.4" r="1.5" fill="rgba(74,158,255,0.06)"/><circle cx="1000.0" cy="39.4" r="1.5" fill="rgba(74,158,255,0.06)"/><circle cx="1040.0" cy="39.4" r="1.5" fill="rgba(74,158,255,0.06)"/><circle cx="1080.0" cy="39.4" r="1.5" fill="rgba(74,158,255,0.06)"/><circle cx="1120.0" cy="39.4" r="1.5" fill="rgba(74,158,255,0.06)"/><circle cx="1160.0" cy="39.4" r="1.5" fill="rgba(74,158,255,0.06)"/><circle cx="1200.0" cy="39.4" r="1.5" fill="rgba(74,158,255,0.06)"/><circle cx="0.0" cy="78.8" r="1.5" fill="rgba(74,158,255,0.06)"/><circle cx="40.0" cy="78.8" r="1.5" fill="rgba(74,158,255,0.06)"/><circle cx="80.0" cy="78.8" r="1.5" fill="rgba(74,158,255,0.06)"/><circle cx="120.0" cy="78.8" r="1.5" fill="rgba(74,158,255,0.06)"/><circle cx="160.0" cy="78.8" r="1.5" fill="rgba(74,158,255,0.06)"/><circle cx="200.0" cy="78.8" r="1.5" fill="rgba(74,158,255,0.06)"/><circle cx="240.0" cy="78.8" r="1.5" fill="rgba(74,158,255,0.06)"/><circle cx="280.0" cy="78.8" r="1.5" fill="rgba(74,158,255,0.06)"/><circle cx="320.0" cy="78.8" r="1.5" fill="rgba(74,158,255,0.06)"/><circle cx="360.0" cy="78.8" r="1.5" fill="rgba(74,158,255,0.06)"/><circle cx="400.0" cy="78.8" r="1.5" fill="rgba(74,158,255,0.06)"/><circle cx="440.0" cy="78.8" r="1.5" fill="rgba(74,158,255,0.06)"/><circle cx="480.0" cy="78.8" r="1.5" fill="rgba(74,158,255,0.06)"/><circle cx="520.0" cy="78.8" r="1.5" fill="rgba(74,158,255,0.06)"/><circle cx="560.0" cy="78.8" r="1.5" fill="rgba(74,158,255,0.06)"/><circle cx="600.0" cy="78.8" r="1.5" fill="rgba(74,158,255,0.06)"/><circle cx="640.0" cy="78.8" r="1.5" fill="rgba(74,158,255,0.06)"/><circle cx="680.0" cy="78.8" r="1.5" fill="rgba(74,158,255,0.06)"/><circle cx="720.0" cy="78.8" r="1.5" fill="rgba(74,158,255,0.06)"/><circle cx="760.0" cy="78.8" r="1.5" fill="rgba(74,158,255,0.06)"/><circle cx="800.0" cy="78.8" r="1.5" fill="rgba(74,158,255,0.06)"/><circle cx="840.0" cy="78.8" r="1.5" fill="rgba(74,158,255,0.06)"/><circle cx="880.0" cy="78.8" r="1.5" fill="rgba(74,158,255,0.06)"/><circle cx="920.0" cy="78.8" r="1.5" fill="rgba(74,158,255,0.06)"/><circle cx="960.0" cy="78.8" r="1.5" fill="rgba(74,158,255,0.06)"/><circle cx="1000.0" cy="78.8" r="1.5" fill="rgba(74,158,255,0.06)"/><circle cx="1040.0" cy="78.8" r="1.5" fill="rgba(74,158,255,0.06)"/><circle cx="1080.0" cy="78.8" r="1.5" fill="rgba(74,158,255,0.06)"/><circle cx="1120.0" cy="78.8" r="1.5" fill="rgba(74,158,255,0.06)"/><circle cx="1160.0" cy="78.8" r="1.5" fill="rgba(74,158,255,0.06)"/><circle cx="1200.0" cy="78.8" r="1.5" fill="rgba(74,158,255,0.06)"/><circle cx="0.0" cy="118.1" r="1.5" fill="rgba(74,158,255,0.06)"/><circle cx="40.0" cy="118.1" r="1.5" fill="rgba(74,158,255,0.06)"/><circle cx="80.0" cy="118.1" r="1.5" fill="rgba(74,158,255,0.06)"/><circle cx="120.0" cy="118.1" r="1.5" fill="rgba(74,158,255,0.06)"/><circle cx="160.0" cy="118.1" r="1.5" fill="rgba(74,158,255,0.06)"/><circle cx="200.0" cy="118.1" r="1.5" fill="rgba(74,158,255,0.06)"/><circle cx="240.0" cy="118.1" r="1.5" fill="rgba(74,158,255,0.06)"/><circle cx="280.0" cy="118.1" r="1.5" fill="rgba(74,158,255,0.06)"/><circle cx="320.0" cy="118.1" r="1.5" fill="rgba(74,158,255,0.06)"/><circle cx="360.0" cy="118.1" r="1.5" fill="rgba(74,158,255,0.06)"/><circle cx="400.0" cy="118.1" r="1.5" fill="rgba(74,158,255,0.06)"/><circle cx="440.0" cy="118.1" r="1.5" fill="rgba(74,158,255,0.06)"/><circle cx="480.0" cy="118.1" r="1.5" fill="rgba(74,158,255,0.06)"/><circle cx="520.0" cy="118.1" r="1.5" fill="rgba(74,158,255,0.06)"/><circle cx="560.0" cy="118.1" r="1.5" fill="rgba(74,158,255,0.06)"/><circle cx="600.0" cy="118.1" r="1.5" fill="rgba(74,158,255,0.06)"/><circle cx="640.0" cy="118.1" r="1.5" fill="rgba(74,158,255,0.06)"/><circle cx="680.0" cy="118.1" r="1.5" fill="rgba(74,158,255,0.06)"/><circle cx="720.0" cy="118.1" r="1.5" fill="rgba(74,158,255,0.06)"/><circle cx="760.0" cy="118.1" r="1.5" fill="rgba(74,158,255,0.06)"/><circle cx="800.0" cy="118.1" r="1.5" fill="rgba(74,158,255,0.06)"/><circle cx="840.0" cy="118.1" r="1.5" fill="rgba(74,158,255,0.06)"/><circle cx="880.0" cy="118.1" r="1.5" fill="rgba(74,158,255,0.06)"/><circle cx="920.0" cy="118.1" r="1.5" fill="rgba(74,158,255,0.06)"/><circle cx="960.0" cy="118.1" r="1.5" fill="rgba(74,158,255,0.06)"/><circle cx="1000.0" cy="118.1" r="1.5" fill="rgba(74,158,255,0.06)"/><circle cx="1040.0" cy="118.1" r="1.5" fill="rgba(74,158,255,0.06)"/><circle cx="1080.0" cy="118.1" r="1.5" fill="rgba(74,158,255,0.06)"/><circle cx="1120.0" cy="118.1" r="1.5" fill="rgba(74,158,255,0.06)"/><circle cx="1160.0" cy="118.1" r="1.5" fill="rgba(74,158,255,0.06)"/><circle cx="1200.0" cy="118.1" r="1.5" fill="rgba(74,158,255,0.06)"/><circle cx="0.0" cy="157.5" r="1.5" fill="rgba(74,158,255,0.06)"/><circle cx="40.0" cy="157.5" r="1.5" fill="rgba(74,158,255,0.06)"/><circle cx="80.0" cy="157.5" r="1.5" fill="rgba(74,158,255,0.06)"/><circle cx="120.0" cy="157.5" r="1.5" fill="rgba(74,158,255,0.06)"/><circle cx="160.0" cy="157.5" r="1.5" fill="rgba(74,158,255,0.06)"/><circle cx="200.0" cy="157.5" r="1.5" fill="rgba(74,158,255,0.06)"/><circle cx="240.0" cy="157.5" r="1.5" fill="rgba(74,158,255,0.06)"/><circle cx="280.0" cy="157.5" r="1.5" fill="rgba(74,158,255,0.06)"/><circle cx="320.0" cy="157.5" r="1.5" fill="rgba(74,158,255,0.06)"/><circle cx="360.0" cy="157.5" r="1.5" fill="rgba(74,158,255,0.06)"/><circle cx="400.0" cy="157.5" r="1.5" fill="rgba(74,158,255,0.06)"/><circle cx="440.0" cy="157.5" r="1.5" fill="rgba(74,158,255,0.06)"/><circle cx="480.0" cy="157.5" r="1.5" fill="rgba(74,158,255,0.06)"/><circle cx="520.0" cy="157.5" r="1.5" fill="rgba(74,158,255,0.06)"/><circle cx="560.0" cy="157.5" r="1.5" fill="rgba(74,158,255,0.06)"/><circle cx="600.0" cy="157.5" r="1.5" fill="rgba(74,158,255,0.06)"/><circle cx="640.0" cy="157.5" r="1.5" fill="rgba(74,158,255,0.06)"/><circle cx="680.0" cy="157.5" r="1.5" fill="rgba(74,158,255,0.06)"/><circle cx="720.0" cy="157.5" r="1.5" fill="rgba(74,158,255,0.06)"/><circle cx="760.0" cy="157.5" r="1.5" fill="rgba(74,158,255,0.06)"/><circle cx="800.0" cy="157.5" r="1.5" fill="rgba(74,158,255,0.06)"/><circle cx="840.0" cy="157.5" r="1.5" fill="rgba(74,158,255,0.06)"/><circle cx="880.0" cy="157.5" r="1.5" fill="rgba(74,158,255,0.06)"/><circle cx="920.0" cy="157.5" r="1.5" fill="rgba(74,158,255,0.06)"/><circle cx="960.0" cy="157.5" r="1.5" fill="rgba(74,158,255,0.06)"/><circle cx="1000.0" cy="157.5" r="1.5" fill="rgba(74,158,255,0.06)"/><circle cx="1040.0" cy="157.5" r="1.5" fill="rgba(74,158,255,0.06)"/><circle cx="1080.0" cy="157.5" r="1.5" fill="rgba(74,158,255,0.06)"/><circle cx="1120.0" cy="157.5" r="1.5" fill="rgba(74,158,255,0.06)"/><circle cx="1160.0" cy="157.5" r="1.5" fill="rgba(74,158,255,0.06)"/><circle cx="1200.0" cy="157.5" r="1.5" fill="rgba(74,158,255,0.06)"/><circle cx="0.0" cy="196.9" r="1.5" fill="rgba(74,158,255,0.06)"/><circle cx="40.0" cy="196.9" r="1.5" fill="rgba(74,158,255,0.06)"/><circle cx="80.0" cy="196.9" r="1.5" fill="rgba(74,158,255,0.06)"/><circle cx="120.0" cy="196.9" r="1.5" fill="rgba(74,158,255,0.06)"/><circle cx="160.0" cy="196.9" r="1.5" fill="rgba(74,158,255,0.06)"/><circle cx="200.0" cy="196.9" r="1.5" fill="rgba(74,158,255,0.06)"/><circle cx="240.0" cy="196.9" r="1.5" fill="rgba(74,158,255,0.06)"/><circle cx="280.0" cy="196.9" r="1.5" fill="rgba(74,158,255,0.06)"/><circle cx="320.0" cy="196.9" r="1.5" fill="rgba(74,158,255,0.06)"/><circle cx="360.0" cy="196.9" r="1.5" fill="rgba(74,158,255,0.06)"/><circle cx="400.0" cy="196.9" r="1.5" fill="rgba(74,158,255,0.06)"/><circle cx="440.0" cy="196.9" r="1.5" fill="rgba(74,158,255,0.06)"/><circle cx="480.0" cy="196.9" r="1.5" fill="rgba(74,158,255,0.06)"/><circle cx="520.0" cy="196.9" r="1.5" fill="rgba(74,158,255,0.06)"/><circle cx="560.0" cy="196.9" r="1.5" fill="rgba(74,158,255,0.06)"/><circle cx="600.0" cy="196.9" r="1.5" fill="rgba(74,158,255,0.06)"/><circle cx="640.0" cy="196.9" r="1.5" fill="rgba(74,158,255,0.06)"/><circle cx="680.0" cy="196.9" r="1.5" fill="rgba(74,158,255,0.06)"/><circle cx="720.0" cy="196.9" r="1.5" fill="rgba(74,158,255,0.06)"/><circle cx="760.0" cy="196.9" r="1.5" fill="rgba(74,158,255,0.06)"/><circle cx="800.0" cy="196.9" r="1.5" fill="rgba(74,158,255,0.06)"/><circle cx="840.0" cy="196.9" r="1.5" fill="rgba(74,158,255,0.06)"/><circle cx="880.0" cy="196.9" r="1.5" fill="rgba(74,158,255,0.06)"/><circle cx="920.0" cy="196.9" r="1.5" fill="rgba(74,158,255,0.06)"/><circle cx="960.0" cy="196.9" r="1.5" fill="rgba(74,158,255,0.06)"/><circle cx="1000.0" cy="196.9" r="1.5" fill="rgba(74,158,255,0.06)"/><circle cx="1040.0" cy="196.9" r="1.5" fill="rgba(74,158,255,0.06)"/><circle cx="1080.0" cy="196.9" r="1.5" fill="rgba(74,158,255,0.06)"/><circle cx="1120.0" cy="196.9" r="1.5" fill="rgba(74,158,255,0.06)"/><circle cx="1160.0" cy="196.9" r="1.5" fill="rgba(74,158,255,0.06)"/><circle cx="1200.0" cy="196.9" r="1.5" fill="rgba(74,158,255,0.06)"/><circle cx="0.0" cy="236.3" r="1.5" fill="rgba(74,158,255,0.06)"/><circle cx="40.0" cy="236.3" r="1.5" fill="rgba(74,158,255,0.06)"/><circle cx="80.0" cy="236.3" r="1.5" fill="rgba(74,158,255,0.06)"/><circle cx="120.0" cy="236.3" r="1.5" fill="rgba(74,158,255,0.06)"/><circle cx="160.0" cy="236.3" r="1.5" fill="rgba(74,158,255,0.06)"/><circle cx="200.0" cy="236.3" r="1.5" fill="rgba(74,158,255,0.06)"/><circle cx="240.0" cy="236.3" r="1.5" fill="rgba(74,158,255,0.06)"/><circle cx="280.0" cy="236.3" r="1.5" fill="rgba(74,158,255,0.06)"/><circle cx="320.0" cy="236.3" r="1.5" fill="rgba(74,158,255,0.06)"/><circle cx="360.0" cy="236.3" r="1.5" fill="rgba(74,158,255,0.06)"/><circle cx="400.0" cy="236.3" r="1.5" fill="rgba(74,158,255,0.06)"/><circle cx="440.0" cy="236.3" r="1.5" fill="rgba(74,158,255,0.06)"/><circle cx="480.0" cy="236.3" r="1.5" fill="rgba(74,158,255,0.06)"/><circle cx="520.0" cy="236.3" r="1.5" fill="rgba(74,158,255,0.06)"/><circle cx="560.0" cy="236.3" r="1.5" fill="rgba(74,158,255,0.06)"/><circle cx="600.0" cy="236.3" r="1.5" fill="rgba(74,158,255,0.06)"/><circle cx="640.0" cy="236.3" r="1.5" fill="rgba(74,158,255,0.06)"/><circle cx="680.0" cy="236.3" r="1.5" fill="rgba(74,158,255,0.06)"/><circle cx="720.0" cy="236.3" r="1.5" fill="rgba(74,158,255,0.06)"/><circle cx="760.0" cy="236.3" r="1.5" fill="rgba(74,158,255,0.06)"/><circle cx="800.0" cy="236.3" r="1.5" fill="rgba(74,158,255,0.06)"/><circle cx="840.0" cy="236.3" r="1.5" fill="rgba(74,158,255,0.06)"/><circle cx="880.0" cy="236.3" r="1.5" fill="rgba(74,158,255,0.06)"/><circle cx="920.0" cy="236.3" r="1.5" fill="rgba(74,158,255,0.06)"/><circle cx="960.0" cy="236.3" r="1.5" fill="rgba(74,158,255,0.06)"/><circle cx="1000.0" cy="236.3" r="1.5" fill="rgba(74,158,255,0.06)"/><circle cx="1040.0" cy="236.3" r="1.5" fill="rgba(74,158,255,0.06)"/><circle cx="1080.0" cy="236.3" r="1.5" fill="rgba(74,158,255,0.06)"/><circle cx="1120.0" cy="236.3" r="1.5" fill="rgba(74,158,255,0.06)"/><circle cx="1160.0" cy="236.3" r="1.5" fill="rgba(74,158,255,0.06)"/><circle cx="1200.0" cy="236.3" r="1.5" fill="rgba(74,158,255,0.06)"/><circle cx="0.0" cy="275.6" r="1.5" fill="rgba(74,158,255,0.06)"/><circle cx="40.0" cy="275.6" r="1.5" fill="rgba(74,158,255,0.06)"/><circle cx="80.0" cy="275.6" r="1.5" fill="rgba(74,158,255,0.06)"/><circle cx="120.0" cy="275.6" r="1.5" fill="rgba(74,158,255,0.06)"/><circle cx="160.0" cy="275.6" r="1.5" fill="rgba(74,158,255,0.06)"/><circle cx="200.0" cy="275.6" r="1.5" fill="rgba(74,158,255,0.06)"/><circle cx="240.0" cy="275.6" r="1.5" fill="rgba(74,158,255,0.06)"/><circle cx="280.0" cy="275.6" r="1.5" fill="rgba(74,158,255,0.06)"/><circle cx="320.0" cy="275.6" r="1.5" fill="rgba(74,158,255,0.06)"/><circle cx="360.0" cy="275.6" r="1.5" fill="rgba(74,158,255,0.06)"/><circle cx="400.0" cy="275.6" r="1.5" fill="rgba(74,158,255,0.06)"/><circle cx="440.0" cy="275.6" r="1.5" fill="rgba(74,158,255,0.06)"/><circle cx="480.0" cy="275.6" r="1.5" fill="rgba(74,158,255,0.06)"/><circle cx="520.0" cy="275.6" r="1.5" fill="rgba(74,158,255,0.06)"/><circle cx="560.0" cy="275.6" r="1.5" fill="rgba(74,158,255,0.06)"/><circle cx="600.0" cy="275.6" r="1.5" fill="rgba(74,158,255,0.06)"/><circle cx="640.0" cy="275.6" r="1.5" fill="rgba(74,158,255,0.06)"/><circle cx="680.0" cy="275.6" r="1.5" fill="rgba(74,158,255,0.06)"/><circle cx="720.0" cy="275.6" r="1.5" fill="rgba(74,158,255,0.06)"/><circle cx="760.0" cy="275.6" r="1.5" fill="rgba(74,158,255,0.06)"/><circle cx="800.0" cy="275.6" r="1.5" fill="rgba(74,158,255,0.06)"/><circle cx="840.0" cy="275.6" r="1.5" fill="rgba(74,158,255,0.06)"/><circle cx="880.0" cy="275.6" r="1.5" fill="rgba(74,158,255,0.06)"/><circle cx="920.0" cy="275.6" r="1.5" fill="rgba(74,158,255,0.06)"/><circle cx="960.0" cy="275.6" r="1.5" fill="rgba(74,158,255,0.06)"/><circle cx="1000.0" cy="275.6" r="1.5" fill="rgba(74,158,255,0.06)"/><circle cx="1040.0" cy="275.6" r="1.5" fill="rgba(74,158,255,0.06)"/><circle cx="1080.0" cy="275.6" r="1.5" fill="rgba(74,158,255,0.06)"/><circle cx="1120.0" cy="275.6" r="1.5" fill="rgba(74,158,255,0.06)"/><circle cx="1160.0" cy="275.6" r="1.5" fill="rgba(74,158,255,0.06)"/><circle cx="1200.0" cy="275.6" r="1.5" fill="rgba(74,158,255,0.06)"/><circle cx="0.0" cy="315.0" r="1.5" fill="rgba(74,158,255,0.06)"/><circle cx="40.0" cy="315.0" r="1.5" fill="rgba(74,158,255,0.06)"/><circle cx="80.0" cy="315.0" r="1.5" fill="rgba(74,158,255,0.06)"/><circle cx="120.0" cy="315.0" r="1.5" fill="rgba(74,158,255,0.06)"/><circle cx="160.0" cy="315.0" r="1.5" fill="rgba(74,158,255,0.06)"/><circle cx="200.0" cy="315.0" r="1.5" fill="rgba(74,158,255,0.06)"/><circle cx="240.0" cy="315.0" r="1.5" fill="rgba(74,158,255,0.06)"/><circle cx="280.0" cy="315.0" r="1.5" fill="rgba(74,158,255,0.06)"/><circle cx="320.0" cy="315.0" r="1.5" fill="rgba(74,158,255,0.06)"/><circle cx="360.0" cy="315.0" r="1.5" fill="rgba(74,158,255,0.06)"/><circle cx="400.0" cy="315.0" r="1.5" fill="rgba(74,158,255,0.06)"/><circle cx="440.0" cy="315.0" r="1.5" fill="rgba(74,158,255,0.06)"/><circle cx="480.0" cy="315.0" r="1.5" fill="rgba(74,158,255,0.06)"/><circle cx="520.0" cy="315.0" r="1.5" fill="rgba(74,158,255,0.06)"/><circle cx="560.0" cy="315.0" r="1.5" fill="rgba(74,158,255,0.06)"/><circle cx="600.0" cy="315.0" r="1.5" fill="rgba(74,158,255,0.06)"/><circle cx="640.0" cy="315.0" r="1.5" fill="rgba(74,158,255,0.06)"/><circle cx="680.0" cy="315.0" r="1.5" fill="rgba(74,158,255,0.06)"/><circle cx="720.0" cy="315.0" r="1.5" fill="rgba(74,158,255,0.06)"/><circle cx="760.0" cy="315.0" r="1.5" fill="rgba(74,158,255,0.06)"/><circle cx="800.0" cy="315.0" r="1.5" fill="rgba(74,158,255,0.06)"/><circle cx="840.0" cy="315.0" r="1.5" fill="rgba(74,158,255,0.06)"/><circle cx="880.0" cy="315.0" r="1.5" fill="rgba(74,158,255,0.06)"/><circle cx="920.0" cy="315.0" r="1.5" fill="rgba(74,158,255,0.06)"/><circle cx="960.0" cy="315.0" r="1.5" fill="rgba(74,158,255,0.06)"/><circle cx="1000.0" cy="315.0" r="1.5" fill="rgba(74,158,255,0.06)"/><circle cx="1040.0" cy="315.0" r="1.5" fill="rgba(74,158,255,0.06)"/><circle cx="1080.0" cy="315.0" r="1.5" fill="rgba(74,158,255,0.06)"/><circle cx="1120.0" cy="315.0" r="1.5" fill="rgba(74,158,255,0.06)"/><circle cx="1160.0" cy="315.0" r="1.5" fill="rgba(74,158,255,0.06)"/><circle cx="1200.0" cy="315.0" r="1.5" fill="rgba(74,158,255,0.06)"/><circle cx="0.0" cy="354.4" r="1.5" fill="rgba(74,158,255,0.06)"/><circle cx="40.0" cy="354.4" r="1.5" fill="rgba(74,158,255,0.06)"/><circle cx="80.0" cy="354.4" r="1.5" fill="rgba(74,158,255,0.06)"/><circle cx="120.0" cy="354.4" r="1.5" fill="rgba(74,158,255,0.06)"/><circle cx="160.0" cy="354.4" r="1.5" fill="rgba(74,158,255,0.06)"/><circle cx="200.0" cy="354.4" r="1.5" fill="rgba(74,158,255,0.06)"/><circle cx="240.0" cy="354.4" r="1.5" fill="rgba(74,158,255,0.06)"/><circle cx="280.0" cy="354.4" r="1.5" fill="rgba(74,158,255,0.06)"/><circle cx="320.0" cy="354.4" r="1.5" fill="rgba(74,158,255,0.06)"/><circle cx="360.0" cy="354.4" r="1.5" fill="rgba(74,158,255,0.06)"/><circle cx="400.0" cy="354.4" r="1.5" fill="rgba(74,158,255,0.06)"/><circle cx="440.0" cy="354.4" r="1.5" fill="rgba(74,158,255,0.06)"/><circle cx="480.0" cy="354.4" r="1.5" fill="rgba(74,158,255,0.06)"/><circle cx="520.0" cy="354.4" r="1.5" fill="rgba(74,158,255,0.06)"/><circle cx="560.0" cy="354.4" r="1.5" fill="rgba(74,158,255,0.06)"/><circle cx="600.0" cy="354.4" r="1.5" fill="rgba(74,158,255,0.06)"/><circle cx="640.0" cy="354.4" r="1.5" fill="rgba(74,158,255,0.06)"/><circle cx="680.0" cy="354.4" r="1.5" fill="rgba(74,158,255,0.06)"/><circle cx="720.0" cy="354.4" r="1.5" fill="rgba(74,158,255,0.06)"/><circle cx="760.0" cy="354.4" r="1.5" fill="rgba(74,158,255,0.06)"/><circle cx="800.0" cy="354.4" r="1.5" fill="rgba(74,158,255,0.06)"/><circle cx="840.0" cy="354.4" r="1.5" fill="rgba(74,158,255,0.06)"/><circle cx="880.0" cy="354.4" r="1.5" fill="rgba(74,158,255,0.06)"/><circle cx="920.0" cy="354.4" r="1.5" fill="rgba(74,158,255,0.06)"/><circle cx="960.0" cy="354.4" r="1.5" fill="rgba(74,158,255,0.06)"/><circle cx="1000.0" cy="354.4" r="1.5" fill="rgba(74,158,255,0.06)"/><circle cx="1040.0" cy="354.4" r="1.5" fill="rgba(74,158,255,0.06)"/><circle cx="1080.0" cy="354.4" r="1.5" fill="rgba(74,158,255,0.06)"/><circle cx="1120.0" cy="354.4" r="1.5" fill="rgba(74,158,255,0.06)"/><circle cx="1160.0" cy="354.4" r="1.5" fill="rgba(74,158,255,0.06)"/><circle cx="1200.0" cy="354.4" r="1.5" fill="rgba(74,158,255,0.06)"/><circle cx="0.0" cy="393.8" r="1.5" fill="rgba(74,158,255,0.06)"/><circle cx="40.0" cy="393.8" r="1.5" fill="rgba(74,158,255,0.06)"/><circle cx="80.0" cy="393.8" r="1.5" fill="rgba(74,158,255,0.06)"/><circle cx="120.0" cy="393.8" r="1.5" fill="rgba(74,158,255,0.06)"/><circle cx="160.0" cy="393.8" r="1.5" fill="rgba(74,158,255,0.06)"/><circle cx="200.0" cy="393.8" r="1.5" fill="rgba(74,158,255,0.06)"/><circle cx="240.0" cy="393.8" r="1.5" fill="rgba(74,158,255,0.06)"/><circle cx="280.0" cy="393.8" r="1.5" fill="rgba(74,158,255,0.06)"/><circle cx="320.0" cy="393.8" r="1.5" fill="rgba(74,158,255,0.06)"/><circle cx="360.0" cy="393.8" r="1.5" fill="rgba(74,158,255,0.06)"/><circle cx="400.0" cy="393.8" r="1.5" fill="rgba(74,158,255,0.06)"/><circle cx="440.0" cy="393.8" r="1.5" fill="rgba(74,158,255,0.06)"/><circle cx="480.0" cy="393.8" r="1.5" fill="rgba(74,158,255,0.06)"/><circle cx="520.0" cy="393.8" r="1.5" fill="rgba(74,158,255,0.06)"/><circle cx="560.0" cy="393.8" r="1.5" fill="rgba(74,158,255,0.06)"/><circle cx="600.0" cy="393.8" r="1.5" fill="rgba(74,158,255,0.06)"/><circle cx="640.0" cy="393.8" r="1.5" fill="rgba(74,158,255,0.06)"/><circle cx="680.0" cy="393.8" r="1.5" fill="rgba(74,158,255,0.06)"/><circle cx="720.0" cy="393.8" r="1.5" fill="rgba(74,158,255,0.06)"/><circle cx="760.0" cy="393.8" r="1.5" fill="rgba(74,158,255,0.06)"/><circle cx="800.0" cy="393.8" r="1.5" fill="rgba(74,158,255,0.06)"/><circle cx="840.0" cy="393.8" r="1.5" fill="rgba(74,158,255,0.06)"/><circle cx="880.0" cy="393.8" r="1.5" fill="rgba(74,158,255,0.06)"/><circle cx="920.0" cy="393.8" r="1.5" fill="rgba(74,158,255,0.06)"/><circle cx="960.0" cy="393.8" r="1.5" fill="rgba(74,158,255,0.06)"/><circle cx="1000.0" cy="393.8" r="1.5" fill="rgba(74,158,255,0.06)"/><circle cx="1040.0" cy="393.8" r="1.5" fill="rgba(74,158,255,0.06)"/><circle cx="1080.0" cy="393.8" r="1.5" fill="rgba(74,158,255,0.06)"/><circle cx="1120.0" cy="393.8" r="1.5" fill="rgba(74,158,255,0.06)"/><circle cx="1160.0" cy="393.8" r="1.5" fill="rgba(74,158,255,0.06)"/><circle cx="1200.0" cy="393.8" r="1.5" fill="rgba(74,158,255,0.06)"/><circle cx="0.0" cy="433.1" r="1.5" fill="rgba(74,158,255,0.06)"/><circle cx="40.0" cy="433.1" r="1.5" fill="rgba(74,158,255,0.06)"/><circle cx="80.0" cy="433.1" r="1.5" fill="rgba(74,158,255,0.06)"/><circle cx="120.0" cy="433.1" r="1.5" fill="rgba(74,158,255,0.06)"/><circle cx="160.0" cy="433.1" r="1.5" fill="rgba(74,158,255,0.06)"/><circle cx="200.0" cy="433.1" r="1.5" fill="rgba(74,158,255,0.06)"/><circle cx="240.0" cy="433.1" r="1.5" fill="rgba(74,158,255,0.06)"/><circle cx="280.0" cy="433.1" r="1.5" fill="rgba(74,158,255,0.06)"/><circle cx="320.0" cy="433.1" r="1.5" fill="rgba(74,158,255,0.06)"/><circle cx="360.0" cy="433.1" r="1.5" fill="rgba(74,158,255,0.06)"/><circle cx="400.0" cy="433.1" r="1.5" fill="rgba(74,158,255,0.06)"/><circle cx="440.0" cy="433.1" r="1.5" fill="rgba(74,158,255,0.06)"/><circle cx="480.0" cy="433.1" r="1.5" fill="rgba(74,158,255,0.06)"/><circle cx="520.0" cy="433.1" r="1.5" fill="rgba(74,158,255,0.06)"/><circle cx="560.0" cy="433.1" r="1.5" fill="rgba(74,158,255,0.06)"/><circle cx="600.0" cy="433.1" r="1.5" fill="rgba(74,158,255,0.06)"/><circle cx="640.0" cy="433.1" r="1.5" fill="rgba(74,158,255,0.06)"/><circle cx="680.0" cy="433.1" r="1.5" fill="rgba(74,158,255,0.06)"/><circle cx="720.0" cy="433.1" r="1.5" fill="rgba(74,158,255,0.06)"/><circle cx="760.0" cy="433.1" r="1.5" fill="rgba(74,158,255,0.06)"/><circle cx="800.0" cy="433.1" r="1.5" fill="rgba(74,158,255,0.06)"/><circle cx="840.0" cy="433.1" r="1.5" fill="rgba(74,158,255,0.06)"/><circle cx="880.0" cy="433.1" r="1.5" fill="rgba(74,158,255,0.06)"/><circle cx="920.0" cy="433.1" r="1.5" fill="rgba(74,158,255,0.06)"/><circle cx="960.0" cy="433.1" r="1.5" fill="rgba(74,158,255,0.06)"/><circle cx="1000.0" cy="433.1" r="1.5" fill="rgba(74,158,255,0.06)"/><circle cx="1040.0" cy="433.1" r="1.5" fill="rgba(74,158,255,0.06)"/><circle cx="1080.0" cy="433.1" r="1.5" fill="rgba(74,158,255,0.06)"/><circle cx="1120.0" cy="433.1" r="1.5" fill="rgba(74,158,255,0.06)"/><circle cx="1160.0" cy="433.1" r="1.5" fill="rgba(74,158,255,0.06)"/><circle cx="1200.0" cy="433.1" r="1.5" fill="rgba(74,158,255,0.06)"/><circle cx="0.0" cy="472.5" r="1.5" fill="rgba(74,158,255,0.06)"/><circle cx="40.0" cy="472.5" r="1.5" fill="rgba(74,158,255,0.06)"/><circle cx="80.0" cy="472.5" r="1.5" fill="rgba(74,158,255,0.06)"/><circle cx="120.0" cy="472.5" r="1.5" fill="rgba(74,158,255,0.06)"/><circle cx="160.0" cy="472.5" r="1.5" fill="rgba(74,158,255,0.06)"/><circle cx="200.0" cy="472.5" r="1.5" fill="rgba(74,158,255,0.06)"/><circle cx="240.0" cy="472.5" r="1.5" fill="rgba(74,158,255,0.06)"/><circle cx="280.0" cy="472.5" r="1.5" fill="rgba(74,158,255,0.06)"/><circle cx="320.0" cy="472.5" r="1.5" fill="rgba(74,158,255,0.06)"/><circle cx="360.0" cy="472.5" r="1.5" fill="rgba(74,158,255,0.06)"/><circle cx="400.0" cy="472.5" r="1.5" fill="rgba(74,158,255,0.06)"/><circle cx="440.0" cy="472.5" r="1.5" fill="rgba(74,158,255,0.06)"/><circle cx="480.0" cy="472.5" r="1.5" fill="rgba(74,158,255,0.06)"/><circle cx="520.0" cy="472.5" r="1.5" fill="rgba(74,158,255,0.06)"/><circle cx="560.0" cy="472.5" r="1.5" fill="rgba(74,158,255,0.06)"/><circle cx="600.0" cy="472.5" r="1.5" fill="rgba(74,158,255,0.06)"/><circle cx="640.0" cy="472.5" r="1.5" fill="rgba(74,158,255,0.06)"/><circle cx="680.0" cy="472.5" r="1.5" fill="rgba(74,158,255,0.06)"/><circle cx="720.0" cy="472.5" r="1.5" fill="rgba(74,158,255,0.06)"/><circle cx="760.0" cy="472.5" r="1.5" fill="rgba(74,158,255,0.06)"/><circle cx="800.0" cy="472.5" r="1.5" fill="rgba(74,158,255,0.06)"/><circle cx="840.0" cy="472.5" r="1.5" fill="rgba(74,158,255,0.06)"/><circle cx="880.0" cy="472.5" r="1.5" fill="rgba(74,158,255,0.06)"/><circle cx="920.0" cy="472.5" r="1.5" fill="rgba(74,158,255,0.06)"/><circle cx="960.0" cy="472.5" r="1.5" fill="rgba(74,158,255,0.06)"/><circle cx="1000.0" cy="472.5" r="1.5" fill="rgba(74,158,255,0.06)"/><circle cx="1040.0" cy="472.5" r="1.5" fill="rgba(74,158,255,0.06)"/><circle cx="1080.0" cy="472.5" r="1.5" fill="rgba(74,158,255,0.06)"/><circle cx="1120.0" cy="472.5" r="1.5" fill="rgba(74,158,255,0.06)"/><circle cx="1160.0" cy="472.5" r="1.5" fill="rgba(74,158,255,0.06)"/><circle cx="1200.0" cy="472.5" r="1.5" fill="rgba(74,158,255,0.06)"/><circle cx="0.0" cy="511.9" r="1.5" fill="rgba(74,158,255,0.06)"/><circle cx="40.0" cy="511.9" r="1.5" fill="rgba(74,158,255,0.06)"/><circle cx="80.0" cy="511.9" r="1.5" fill="rgba(74,158,255,0.06)"/><circle cx="120.0" cy="511.9" r="1.5" fill="rgba(74,158,255,0.06)"/><circle cx="160.0" cy="511.9" r="1.5" fill="rgba(74,158,255,0.06)"/><circle cx="200.0" cy="511.9" r="1.5" fill="rgba(74,158,255,0.06)"/><circle cx="240.0" cy="511.9" r="1.5" fill="rgba(74,158,255,0.06)"/><circle cx="280.0" cy="511.9" r="1.5" fill="rgba(74,158,255,0.06)"/><circle cx="320.0" cy="511.9" r="1.5" fill="rgba(74,158,255,0.06)"/><circle cx="360.0" cy="511.9" r="1.5" fill="rgba(74,158,255,0.06)"/><circle cx="400.0" cy="511.9" r="1.5" fill="rgba(74,158,255,0.06)"/><circle cx="440.0" cy="511.9" r="1.5" fill="rgba(74,158,255,0.06)"/><circle cx="480.0" cy="511.9" r="1.5" fill="rgba(74,158,255,0.06)"/><circle cx="520.0" cy="511.9" r="1.5" fill="rgba(74,158,255,0.06)"/><circle cx="560.0" cy="511.9" r="1.5" fill="rgba(74,158,255,0.06)"/><circle cx="600.0" cy="511.9" r="1.5" fill="rgba(74,158,255,0.06)"/><circle cx="640.0" cy="511.9" r="1.5" fill="rgba(74,158,255,0.06)"/><circle cx="680.0" cy="511.9" r="1.5" fill="rgba(74,158,255,0.06)"/><circle cx="720.0" cy="511.9" r="1.5" fill="rgba(74,158,255,0.06)"/><circle cx="760.0" cy="511.9" r="1.5" fill="rgba(74,158,255,0.06)"/><circle cx="800.0" cy="511.9" r="1.5" fill="rgba(74,158,255,0.06)"/><circle cx="840.0" cy="511.9" r="1.5" fill="rgba(74,158,255,0.06)"/><circle cx="880.0" cy="511.9" r="1.5" fill="rgba(74,158,255,0.06)"/><circle cx="920.0" cy="511.9" r="1.5" fill="rgba(74,158,255,0.06)"/><circle cx="960.0" cy="511.9" r="1.5" fill="rgba(74,158,255,0.06)"/><circle cx="1000.0" cy="511.9" r="1.5" fill="rgba(74,158,255,0.06)"/><circle cx="1040.0" cy="511.9" r="1.5" fill="rgba(74,158,255,0.06)"/><circle cx="1080.0" cy="511.9" r="1.5" fill="rgba(74,158,255,0.06)"/><circle cx="1120.0" cy="511.9" r="1.5" fill="rgba(74,158,255,0.06)"/><circle cx="1160.0" cy="511.9" r="1.5" fill="rgba(74,158,255,0.06)"/><circle cx="1200.0" cy="511.9" r="1.5" fill="rgba(74,158,255,0.06)"/><circle cx="0.0" cy="551.3" r="1.5" fill="rgba(74,158,255,0.06)"/><circle cx="40.0" cy="551.3" r="1.5" fill="rgba(74,158,255,0.06)"/><circle cx="80.0" cy="551.3" r="1.5" fill="rgba(74,158,255,0.06)"/><circle cx="120.0" cy="551.3" r="1.5" fill="rgba(74,158,255,0.06)"/><circle cx="160.0" cy="551.3" r="1.5" fill="rgba(74,158,255,0.06)"/><circle cx="200.0" cy="551.3" r="1.5" fill="rgba(74,158,255,0.06)"/><circle cx="240.0" cy="551.3" r="1.5" fill="rgba(74,158,255,0.06)"/><circle cx="280.0" cy="551.3" r="1.5" fill="rgba(74,158,255,0.06)"/><circle cx="320.0" cy="551.3" r="1.5" fill="rgba(74,158,255,0.06)"/><circle cx="360.0" cy="551.3" r="1.5" fill="rgba(74,158,255,0.06)"/><circle cx="400.0" cy="551.3" r="1.5" fill="rgba(74,158,255,0.06)"/><circle cx="440.0" cy="551.3" r="1.5" fill="rgba(74,158,255,0.06)"/><circle cx="480.0" cy="551.3" r="1.5" fill="rgba(74,158,255,0.06)"/><circle cx="520.0" cy="551.3" r="1.5" fill="rgba(74,158,255,0.06)"/><circle cx="560.0" cy="551.3" r="1.5" fill="rgba(74,158,255,0.06)"/><circle cx="600.0" cy="551.3" r="1.5" fill="rgba(74,158,255,0.06)"/><circle cx="640.0" cy="551.3" r="1.5" fill="rgba(74,158,255,0.06)"/><circle cx="680.0" cy="551.3" r="1.5" fill="rgba(74,158,255,0.06)"/><circle cx="720.0" cy="551.3" r="1.5" fill="rgba(74,158,255,0.06)"/><circle cx="760.0" cy="551.3" r="1.5" fill="rgba(74,158,255,0.06)"/><circle cx="800.0" cy="551.3" r="1.5" fill="rgba(74,158,255,0.06)"/><circle cx="840.0" cy="551.3" r="1.5" fill="rgba(74,158,255,0.06)"/><circle cx="880.0" cy="551.3" r="1.5" fill="rgba(74,158,255,0.06)"/><circle cx="920.0" cy="551.3" r="1.5" fill="rgba(74,158,255,0.06)"/><circle cx="960.0" cy="551.3" r="1.5" fill="rgba(74,158,255,0.06)"/><circle cx="1000.0" cy="551.3" r="1.5" fill="rgba(74,158,255,0.06)"/><circle cx="1040.0" cy="551.3" r="1.5" fill="rgba(74,158,255,0.06)"/><circle cx="1080.0" cy="551.3" r="1.5" fill="rgba(74,158,255,0.06)"/><circle cx="1120.0" cy="551.3" r="1.5" fill="rgba(74,158,255,0.06)"/><circle cx="1160.0" cy="551.3" r="1.5" fill="rgba(74,158,255,0.06)"/><circle cx="1200.0" cy="551.3" r="1.5" fill="rgba(74,158,255,0.06)"/><circle cx="0.0" cy="590.6" r="1.5" fill="rgba(74,158,255,0.06)"/><circle cx="40.0" cy="590.6" r="1.5" fill="rgba(74,158,255,0.06)"/><circle cx="80.0" cy="590.6" r="1.5" fill="rgba(74,158,255,0.06)"/><circle cx="120.0" cy="590.6" r="1.5" fill="rgba(74,158,255,0.06)"/><circle cx="160.0" cy="590.6" r="1.5" fill="rgba(74,158,255,0.06)"/><circle cx="200.0" cy="590.6" r="1.5" fill="rgba(74,158,255,0.06)"/><circle cx="240.0" cy="590.6" r="1.5" fill="rgba(74,158,255,0.06)"/><circle cx="280.0" cy="590.6" r="1.5" fill="rgba(74,158,255,0.06)"/><circle cx="320.0" cy="590.6" r="1.5" fill="rgba(74,158,255,0.06)"/><circle cx="360.0" cy="590.6" r="1.5" fill="rgba(74,158,255,0.06)"/><circle cx="400.0" cy="590.6" r="1.5" fill="rgba(74,158,255,0.06)"/><circle cx="440.0" cy="590.6" r="1.5" fill="rgba(74,158,255,0.06)"/><circle cx="480.0" cy="590.6" r="1.5" fill="rgba(74,158,255,0.06)"/><circle cx="520.0" cy="590.6" r="1.5" fill="rgba(74,158,255,0.06)"/><circle cx="560.0" cy="590.6" r="1.5" fill="rgba(74,158,255,0.06)"/><circle cx="600.0" cy="590.6" r="1.5" fill="rgba(74,158,255,0.06)"/><circle cx="640.0" cy="590.6" r="1.5" fill="rgba(74,158,255,0.06)"/><circle cx="680.0" cy="590.6" r="1.5" fill="rgba(74,158,255,0.06)"/><circle cx="720.0" cy="590.6" r="1.5" fill="rgba(74,158,255,0.06)"/><circle cx="760.0" cy="590.6" r="1.5" fill="rgba(74,158,255,0.06)"/><circle cx="800.0" cy="590.6" r="1.5" fill="rgba(74,158,255,0.06)"/><circle cx="840.0" cy="590.6" r="1.5" fill="rgba(74,158,255,0.06)"/><circle cx="880.0" cy="590.6" r="1.5" fill="rgba(74,158,255,0.06)"/><circle cx="920.0" cy="590.6" r="1.5" fill="rgba(74,158,255,0.06)"/><circle cx="960.0" cy="590.6" r="1.5" fill="rgba(74,158,255,0.06)"/><circle cx="1000.0" cy="590.6" r="1.5" fill="rgba(74,158,255,0.06)"/><circle cx="1040.0" cy="590.6" r="1.5" fill="rgba(74,158,255,0.06)"/><circle cx="1080.0" cy="590.6" r="1.5" fill="rgba(74,158,255,0.06)"/><circle cx="1120.0" cy="590.6" r="1.5" fill="rgba(74,158,255,0.06)"/><circle cx="1160.0" cy="590.6" r="1.5" fill="rgba(74,158,255,0.06)"/><circle cx="1200.0" cy="590.6" r="1.5" fill="rgba(74,158,255,0.06)"/><circle cx="0.0" cy="630.0" r="1.5" fill="rgba(74,158,255,0.06)"/><circle cx="40.0" cy="630.0" r="1.5" fill="rgba(74,158,255,0.06)"/><circle cx="80.0" cy="630.0" r="1.5" fill="rgba(74,158,255,0.06)"/><circle cx="120.0" cy="630.0" r="1.5" fill="rgba(74,158,255,0.06)"/><circle cx="160.0" cy="630.0" r="1.5" fill="rgba(74,158,255,0.06)"/><circle cx="200.0" cy="630.0" r="1.5" fill="rgba(74,158,255,0.06)"/><circle cx="240.0" cy="630.0" r="1.5" fill="rgba(74,158,255,0.06)"/><circle cx="280.0" cy="630.0" r="1.5" fill="rgba(74,158,255,0.06)"/><circle cx="320.0" cy="630.0" r="1.5" fill="rgba(74,158,255,0.06)"/><circle cx="360.0" cy="630.0" r="1.5" fill="rgba(74,158,255,0.06)"/><circle cx="400.0" cy="630.0" r="1.5" fill="rgba(74,158,255,0.06)"/><circle cx="440.0" cy="630.0" r="1.5" fill="rgba(74,158,255,0.06)"/><circle cx="480.0" cy="630.0" r="1.5" fill="rgba(74,158,255,0.06)"/><circle cx="520.0" cy="630.0" r="1.5" fill="rgba(74,158,255,0.06)"/><circle cx="560.0" cy="630.0" r="1.5" fill="rgba(74,158,255,0.06)"/><circle cx="600.0" cy="630.0" r="1.5" fill="rgba(74,158,255,0.06)"/><circle cx="640.0" cy="630.0" r="1.5" fill="rgba(74,158,255,0.06)"/><circle cx="680.0" cy="630.0" r="1.5" fill="rgba(74,158,255,0.06)"/><circle cx="720.0" cy="630.0" r="1.5" fill="rgba(74,158,255,0.06)"/><circle cx="760.0" cy="630.0" r="1.5" fill="rgba(74,158,255,0.06)"/><circle cx="800.0" cy="630.0" r="1.5" fill="rgba(74,158,255,0.06)"/><circle cx="840.0" cy="630.0" r="1.5" fill="rgba(74,158,255,0.06)"/><circle cx="880.0" cy="630.0" r="1.5" fill="rgba(74,158,255,0.06)"/><circle cx="920.0" cy="630.0" r="1.5" fill="rgba(74,158,255,0.06)"/><circle cx="960.0" cy="630.0" r="1.5" fill="rgba(74,158,255,0.06)"/><circle cx="1000.0" cy="630.0" r="1.5" fill="rgba(74,158,255,0.06)"/><circle cx="1040.0" cy="630.0" r="1.5" fill="rgba(74,158,255,0.06)"/><circle cx="1080.0" cy="630.0" r="1.5" fill="rgba(74,158,255,0.06)"/><circle cx="1120.0" cy="630.0" r="1.5" fill="rgba(74,158,255,0.06)"/><circle cx="1160.0" cy="630.0" r="1.5" fill="rgba(74,158,255,0.06)"/><circle cx="1200.0" cy="630.0" r="1.5" fill="rgba(74,158,255,0.06)"/>
    
      <circle cx="240" cy="315" r="90" fill="none" stroke="#22d68a" stroke-width="1" stroke-opacity="0.1"/>
      <circle cx="240" cy="315" r="90" fill="none" stroke="#22d68a" stroke-width="8"
        stroke-dasharray="548.5 565.5"
        stroke-dashoffset="141.4"
        stroke-linecap="round" opacity="0.85"/>
      <text x="240" y="307" font-family="Rajdhani,sans-serif" font-size="36" fill="#22d68a" text-anchor="middle" font-weight="700">97%</text>
      <text x="240" y="337" font-family="Rajdhani,sans-serif" font-size="15" fill="#22d68a" text-anchor="middle" opacity="0.7">到达率</text><text x="240" y="433" font-family="Rajdhani,sans-serif" font-size="13" fill="#22d68a" text-anchor="middle" opacity="0.6">到达率</text>
      <circle cx="560" cy="315" r="90" fill="none" stroke="#4a9eff" stroke-width="1" stroke-opacity="0.1"/>
      <circle cx="560" cy="315" r="90" fill="none" stroke="#4a9eff" stroke-width="8"
        stroke-dasharray="475.0 565.5"
        stroke-dashoffset="141.4"
        stroke-linecap="round" opacity="0.85"/>
      <text x="560" y="307" font-family="Rajdhani,sans-serif" font-size="36" fill="#4a9eff" text-anchor="middle" font-weight="700">84%</text>
      <text x="560" y="337" font-family="Rajdhani,sans-serif" font-size="15" fill="#4a9eff" text-anchor="middle" opacity="0.7">完成率</text><text x="560" y="433" font-family="Rajdhani,sans-serif" font-size="13" fill="#4a9eff" text-anchor="middle" opacity="0.6">完成率</text>
      <circle cx="880" cy="315" r="90" fill="none" stroke="#e06060" stroke-width="1" stroke-opacity="0.1"/>
      <circle cx="880" cy="315" r="90" fill="none" stroke="#e06060" stroke-width="8"
        stroke-dasharray="67.9 565.5"
        stroke-dashoffset="141.4"
        stroke-linecap="round" opacity="0.85"/>
      <text x="880" y="307" font-family="Rajdhani,sans-serif" font-size="36" fill="#e06060" text-anchor="middle" font-weight="700">12%</text>
      <text x="880" y="337" font-family="Rajdhani,sans-serif" font-size="15" fill="#e06060" text-anchor="middle" opacity="0.7">超时率</text><text x="880" y="433" font-family="Rajdhani,sans-serif" font-size="13" fill="#e06060" text-anchor="middle" opacity="0.6">超时率</text>
    <text x="600" y="68" font-family="Rajdhani,sans-serif" font-size="15" fill="#8fa4bf" text-anchor="middle" letter-spacing="3">TASK CENTER · 指令执行统计</text>
    <text x="600" y="582" font-family="Rajdhani,sans-serif" font-size="18" fill="#4a9eff" text-anchor="middle" opacity="0.6" letter-spacing="4">每条指令有迹可查 · 执行情况不再是黑盒</text>
</svg>