<svg xmlns="http://www.w3.org/2000/svg" width="1200" height="630" viewBox="0 0 1200 630">
<defs>
  <style>@import url('https://fonts.googleapis.com/css2?family=Rajdhani:wght@600&amp;display=swap');</style>
  
    <radialGradient id="bg1" cx="50%" cy="50%" r="60%">
      <stop offset="0%" stop-color="#0c1830"/>
      <stop offset="100%" stop-color="#080d18"/>
    </radialGradient>
    <radialGradient id="hub1" cx="50%" cy="50%" r="50%">
      <stop offset="0%" stop-color="#4a9eff" stop-opacity="0.25"/>
      <stop offset="100%" stop-color="#4a9eff" stop-opacity="0"/>
    </radialGradient>
</defs>

    <rect width="1200" height="630" fill="url(#bg1)"/>
    <circle cx="0.0" cy="0.0" r="1.5" fill="rgba(74,158,255,0.10)"/><circle cx="40.0" cy="0.0" r="1.5" fill="rgba(74,158,255,0.10)"/><circle cx="80.0" cy="0.0" r="1.5" fill="rgba(74,158,255,0.10)"/><circle cx="120.0" cy="0.0" r="1.5" fill="rgba(74,158,255,0.10)"/><circle cx="160.0" cy="0.0" r="1.5" fill="rgba(74,158,255,0.10)"/><circle cx="200.0" cy="0.0" r="1.5" fill="rgba(74,158,255,0.10)"/><circle cx="240.0" cy="0.0" r="1.5" fill="rgba(74,158,255,0.10)"/><circle cx="280.0" cy="0.0" r="1.5" fill="rgba(74,158,255,0.10)"/><circle cx="320.0" cy="0.0" r="1.5" fill="rgba(74,158,255,0.10)"/><circle cx="360.0" cy="0.0" r="1.5" fill="rgba(74,158,255,0.10)"/><circle cx="400.0" cy="0.0" r="1.5" fill="rgba(74,158,255,0.10)"/><circle cx="440.0" cy="0.0" r="1.5" fill="rgba(74,158,255,0.10)"/><circle cx="480.0" cy="0.0" r="1.5" fill="rgba(74,158,255,0.10)"/><circle cx="520.0" cy="0.0" r="1.5" fill="rgba(74,158,255,0.10)"/><circle cx="560.0" cy="0.0" r="1.5" fill="rgba(74,158,255,0.10)"/><circle cx="600.0" cy="0.0" r="1.5" fill="rgba(74,158,255,0.10)"/><circle cx="640.0" cy="0.0" r="1.5" fill="rgba(74,158,255,0.10)"/><circle cx="680.0" cy="0.0" r="1.5" fill="rgba(74,158,255,0.10)"/><circle cx="720.0" cy="0.0" r="1.5" fill="rgba(74,158,255,0.10)"/><circle cx="760.0" cy="0.0" r="1.5" fill="rgba(74,158,255,0.10)"/><circle cx="800.0" cy="0.0" r="1.5" fill="rgba(74,158,255,0.10)"/><circle cx="840.0" cy="0.0" r="1.5" fill="rgba(74,158,255,0.10)"/><circle cx="880.0" cy="0.0" r="1.5" fill="rgba(74,158,255,0.10)"/><circle cx="920.0" cy="0.0" r="1.5" fill="rgba(74,158,255,0.10)"/><circle cx="960.0" cy="0.0" r="1.5" fill="rgba(74,158,255,0.10)"/><circle cx="1000.0" cy="0.0" r="1.5" fill="rgba(74,158,255,0.10)"/><circle cx="1040.0" cy="0.0" r="1.5" fill="rgba(74,158,255,0.10)"/><circle cx="1080.0" cy="0.0" r="1.5" fill="rgba(74,158,255,0.10)"/><circle cx="1120.0" cy="0.0" r="1.5" fill="rgba(74,158,255,0.10)"/><circle cx="1160.0" cy="0.0" r="1.5" fill="rgba(74,158,255,0.10)"/><circle cx="1200.0" cy="0.0" r="1.5" fill="rgba(74,158,255,0.10)"/><circle cx="0.0" cy="39.4" r="1.5" fill="rgba(74,158,255,0.10)"/><circle cx="40.0" cy="39.4" r="1.5" fill="rgba(74,158,255,0.10)"/><circle cx="80.0" cy="39.4" r="1.5" fill="rgba(74,158,255,0.10)"/><circle cx="120.0" cy="39.4" r="1.5" fill="rgba(74,158,255,0.10)"/><circle cx="160.0" cy="39.4" r="1.5" fill="rgba(74,158,255,0.10)"/><circle cx="200.0" cy="39.4" r="1.5" fill="rgba(74,158,255,0.10)"/><circle cx="240.0" cy="39.4" r="1.5" fill="rgba(74,158,255,0.10)"/><circle cx="280.0" cy="39.4" r="1.5" fill="rgba(74,158,255,0.10)"/><circle cx="320.0" cy="39.4" r="1.5" fill="rgba(74,158,255,0.10)"/><circle cx="360.0" cy="39.4" r="1.5" fill="rgba(74,158,255,0.10)"/><circle cx="400.0" cy="39.4" r="1.5" fill="rgba(74,158,255,0.10)"/><circle cx="440.0" cy="39.4" r="1.5" fill="rgba(74,158,255,0.10)"/><circle cx="480.0" cy="39.4" r="1.5" fill="rgba(74,158,255,0.10)"/><circle cx="520.0" cy="39.4" r="1.5" fill="rgba(74,158,255,0.10)"/><circle cx="560.0" cy="39.4" r="1.5" fill="rgba(74,158,255,0.10)"/><circle cx="600.0" cy="39.4" r="1.5" fill="rgba(74,158,255,0.10)"/><circle cx="640.0" cy="39.4" r="1.5" fill="rgba(74,158,255,0.10)"/><circle cx="680.0" cy="39.4" r="1.5" fill="rgba(74,158,255,0.10)"/><circle cx="720.0" cy="39.4" r="1.5" fill="rgba(74,158,255,0.10)"/><circle cx="760.0" cy="39.4" r="1.5" fill="rgba(74,158,255,0.10)"/><circle cx="800.0" cy="39.4" r="1.5" fill="rgba(74,158,255,0.10)"/><circle cx="840.0" cy="39.4" r="1.5" fill="rgba(74,158,255,0.10)"/><circle cx="880.0" cy="39.4" r="1.5" fill="rgba(74,158,255,0.10)"/><circle cx="920.0" cy="39.4" r="1.5" fill="rgba(74,158,255,0.10)"/><circle cx="960.0" cy="39.4" r="1.5" fill="rgba(74,158,255,0.10)"/><circle cx="1000.0" cy="39.4" r="1.5" fill="rgba(74,158,255,0.10)"/><circle cx="1040.0" cy="39.4" r="1.5" fill="rgba(74,158,255,0.10)"/><circle cx="1080.0" cy="39.4" r="1.5" fill="rgba(74,158,255,0.10)"/><circle cx="1120.0" cy="39.4" r="1.5" fill="rgba(74,158,255,0.10)"/><circle cx="1160.0" cy="39.4" r="1.5" fill="rgba(74,158,255,0.10)"/><circle cx="1200.0" cy="39.4" r="1.5" fill="rgba(74,158,255,0.10)"/><circle cx="0.0" cy="78.8" r="1.5" fill="rgba(74,158,255,0.10)"/><circle cx="40.0" cy="78.8" r="1.5" fill="rgba(74,158,255,0.10)"/><circle cx="80.0" cy="78.8" r="1.5" fill="rgba(74,158,255,0.10)"/><circle cx="120.0" cy="78.8" r="1.5" fill="rgba(74,158,255,0.10)"/><circle cx="160.0" cy="78.8" r="1.5" fill="rgba(74,158,255,0.10)"/><circle cx="200.0" cy="78.8" r="1.5" fill="rgba(74,158,255,0.10)"/><circle cx="240.0" cy="78.8" r="1.5" fill="rgba(74,158,255,0.10)"/><circle cx="280.0" cy="78.8" r="1.5" fill="rgba(74,158,255,0.10)"/><circle cx="320.0" cy="78.8" r="1.5" fill="rgba(74,158,255,0.10)"/><circle cx="360.0" cy="78.8" r="1.5" fill="rgba(74,158,255,0.10)"/><circle cx="400.0" cy="78.8" r="1.5" fill="rgba(74,158,255,0.10)"/><circle cx="440.0" cy="78.8" r="1.5" fill="rgba(74,158,255,0.10)"/><circle cx="480.0" cy="78.8" r="1.5" fill="rgba(74,158,255,0.10)"/><circle cx="520.0" cy="78.8" r="1.5" fill="rgba(74,158,255,0.10)"/><circle cx="560.0" cy="78.8" r="1.5" fill="rgba(74,158,255,0.10)"/><circle cx="600.0" cy="78.8" r="1.5" fill="rgba(74,158,255,0.10)"/><circle cx="640.0" cy="78.8" r="1.5" fill="rgba(74,158,255,0.10)"/><circle cx="680.0" cy="78.8" r="1.5" fill="rgba(74,158,255,0.10)"/><circle cx="720.0" cy="78.8" r="1.5" fill="rgba(74,158,255,0.10)"/><circle cx="760.0" cy="78.8" r="1.5" fill="rgba(74,158,255,0.10)"/><circle cx="800.0" cy="78.8" r="1.5" fill="rgba(74,158,255,0.10)"/><circle cx="840.0" cy="78.8" r="1.5" fill="rgba(74,158,255,0.10)"/><circle cx="880.0" cy="78.8" r="1.5" fill="rgba(74,158,255,0.10)"/><circle cx="920.0" cy="78.8" r="1.5" fill="rgba(74,158,255,0.10)"/><circle cx="960.0" cy="78.8" r="1.5" fill="rgba(74,158,255,0.10)"/><circle cx="1000.0" cy="78.8" r="1.5" fill="rgba(74,158,255,0.10)"/><circle cx="1040.0" cy="78.8" r="1.5" fill="rgba(74,158,255,0.10)"/><circle cx="1080.0" cy="78.8" r="1.5" fill="rgba(74,158,255,0.10)"/><circle cx="1120.0" cy="78.8" r="1.5" fill="rgba(74,158,255,0.10)"/><circle cx="1160.0" cy="78.8" r="1.5" fill="rgba(74,158,255,0.10)"/><circle cx="1200.0" cy="78.8" r="1.5" fill="rgba(74,158,255,0.10)"/><circle cx="0.0" cy="118.1" r="1.5" fill="rgba(74,158,255,0.10)"/><circle cx="40.0" cy="118.1" r="1.5" fill="rgba(74,158,255,0.10)"/><circle cx="80.0" cy="118.1" r="1.5" fill="rgba(74,158,255,0.10)"/><circle cx="120.0" cy="118.1" r="1.5" fill="rgba(74,158,255,0.10)"/><circle cx="160.0" cy="118.1" r="1.5" fill="rgba(74,158,255,0.10)"/><circle cx="200.0" cy="118.1" r="1.5" fill="rgba(74,158,255,0.10)"/><circle cx="240.0" cy="118.1" r="1.5" fill="rgba(74,158,255,0.10)"/><circle cx="280.0" cy="118.1" r="1.5" fill="rgba(74,158,255,0.10)"/><circle cx="320.0" cy="118.1" r="1.5" fill="rgba(74,158,255,0.10)"/><circle cx="360.0" cy="118.1" r="1.5" fill="rgba(74,158,255,0.10)"/><circle cx="400.0" cy="118.1" r="1.5" fill="rgba(74,158,255,0.10)"/><circle cx="440.0" cy="118.1" r="1.5" fill="rgba(74,158,255,0.10)"/><circle cx="480.0" cy="118.1" r="1.5" fill="rgba(74,158,255,0.10)"/><circle cx="520.0" cy="118.1" r="1.5" fill="rgba(74,158,255,0.10)"/><circle cx="560.0" cy="118.1" r="1.5" fill="rgba(74,158,255,0.10)"/><circle cx="600.0" cy="118.1" r="1.5" fill="rgba(74,158,255,0.10)"/><circle cx="640.0" cy="118.1" r="1.5" fill="rgba(74,158,255,0.10)"/><circle cx="680.0" cy="118.1" r="1.5" fill="rgba(74,158,255,0.10)"/><circle cx="720.0" cy="118.1" r="1.5" fill="rgba(74,158,255,0.10)"/><circle cx="760.0" cy="118.1" r="1.5" fill="rgba(74,158,255,0.10)"/><circle cx="800.0" cy="118.1" r="1.5" fill="rgba(74,158,255,0.10)"/><circle cx="840.0" cy="118.1" r="1.5" fill="rgba(74,158,255,0.10)"/><circle cx="880.0" cy="118.1" r="1.5" fill="rgba(74,158,255,0.10)"/><circle cx="920.0" cy="118.1" r="1.5" fill="rgba(74,158,255,0.10)"/><circle cx="960.0" cy="118.1" r="1.5" fill="rgba(74,158,255,0.10)"/><circle cx="1000.0" cy="118.1" r="1.5" fill="rgba(74,158,255,0.10)"/><circle cx="1040.0" cy="118.1" r="1.5" fill="rgba(74,158,255,0.10)"/><circle cx="1080.0" cy="118.1" r="1.5" fill="rgba(74,158,255,0.10)"/><circle cx="1120.0" cy="118.1" r="1.5" fill="rgba(74,158,255,0.10)"/><circle cx="1160.0" cy="118.1" r="1.5" fill="rgba(74,158,255,0.10)"/><circle cx="1200.0" cy="118.1" r="1.5" fill="rgba(74,158,255,0.10)"/><circle cx="0.0" cy="157.5" r="1.5" fill="rgba(74,158,255,0.10)"/><circle cx="40.0" cy="157.5" r="1.5" fill="rgba(74,158,255,0.10)"/><circle cx="80.0" cy="157.5" r="1.5" fill="rgba(74,158,255,0.10)"/><circle cx="120.0" cy="157.5" r="1.5" fill="rgba(74,158,255,0.10)"/><circle cx="160.0" cy="157.5" r="1.5" fill="rgba(74,158,255,0.10)"/><circle cx="200.0" cy="157.5" r="1.5" fill="rgba(74,158,255,0.10)"/><circle cx="240.0" cy="157.5" r="1.5" fill="rgba(74,158,255,0.10)"/><circle cx="280.0" cy="157.5" r="1.5" fill="rgba(74,158,255,0.10)"/><circle cx="320.0" cy="157.5" r="1.5" fill="rgba(74,158,255,0.10)"/><circle cx="360.0" cy="157.5" r="1.5" fill="rgba(74,158,255,0.10)"/><circle cx="400.0" cy="157.5" r="1.5" fill="rgba(74,158,255,0.10)"/><circle cx="440.0" cy="157.5" r="1.5" fill="rgba(74,158,255,0.10)"/><circle cx="480.0" cy="157.5" r="1.5" fill="rgba(74,158,255,0.10)"/><circle cx="520.0" cy="157.5" r="1.5" fill="rgba(74,158,255,0.10)"/><circle cx="560.0" cy="157.5" r="1.5" fill="rgba(74,158,255,0.10)"/><circle cx="600.0" cy="157.5" r="1.5" fill="rgba(74,158,255,0.10)"/><circle cx="640.0" cy="157.5" r="1.5" fill="rgba(74,158,255,0.10)"/><circle cx="680.0" cy="157.5" r="1.5" fill="rgba(74,158,255,0.10)"/><circle cx="720.0" cy="157.5" r="1.5" fill="rgba(74,158,255,0.10)"/><circle cx="760.0" cy="157.5" r="1.5" fill="rgba(74,158,255,0.10)"/><circle cx="800.0" cy="157.5" r="1.5" fill="rgba(74,158,255,0.10)"/><circle cx="840.0" cy="157.5" r="1.5" fill="rgba(74,158,255,0.10)"/><circle cx="880.0" cy="157.5" r="1.5" fill="rgba(74,158,255,0.10)"/><circle cx="920.0" cy="157.5" r="1.5" fill="rgba(74,158,255,0.10)"/><circle cx="960.0" cy="157.5" r="1.5" fill="rgba(74,158,255,0.10)"/><circle cx="1000.0" cy="157.5" r="1.5" fill="rgba(74,158,255,0.10)"/><circle cx="1040.0" cy="157.5" r="1.5" fill="rgba(74,158,255,0.10)"/><circle cx="1080.0" cy="157.5" r="1.5" fill="rgba(74,158,255,0.10)"/><circle cx="1120.0" cy="157.5" r="1.5" fill="rgba(74,158,255,0.10)"/><circle cx="1160.0" cy="157.5" r="1.5" fill="rgba(74,158,255,0.10)"/><circle cx="1200.0" cy="157.5" r="1.5" fill="rgba(74,158,255,0.10)"/><circle cx="0.0" cy="196.9" r="1.5" fill="rgba(74,158,255,0.10)"/><circle cx="40.0" cy="196.9" r="1.5" fill="rgba(74,158,255,0.10)"/><circle cx="80.0" cy="196.9" r="1.5" fill="rgba(74,158,255,0.10)"/><circle cx="120.0" cy="196.9" r="1.5" fill="rgba(74,158,255,0.10)"/><circle cx="160.0" cy="196.9" r="1.5" fill="rgba(74,158,255,0.10)"/><circle cx="200.0" cy="196.9" r="1.5" fill="rgba(74,158,255,0.10)"/><circle cx="240.0" cy="196.9" r="1.5" fill="rgba(74,158,255,0.10)"/><circle cx="280.0" cy="196.9" r="1.5" fill="rgba(74,158,255,0.10)"/><circle cx="320.0" cy="196.9" r="1.5" fill="rgba(74,158,255,0.10)"/><circle cx="360.0" cy="196.9" r="1.5" fill="rgba(74,158,255,0.10)"/><circle cx="400.0" cy="196.9" r="1.5" fill="rgba(74,158,255,0.10)"/><circle cx="440.0" cy="196.9" r="1.5" fill="rgba(74,158,255,0.10)"/><circle cx="480.0" cy="196.9" r="1.5" fill="rgba(74,158,255,0.10)"/><circle cx="520.0" cy="196.9" r="1.5" fill="rgba(74,158,255,0.10)"/><circle cx="560.0" cy="196.9" r="1.5" fill="rgba(74,158,255,0.10)"/><circle cx="600.0" cy="196.9" r="1.5" fill="rgba(74,158,255,0.10)"/><circle cx="640.0" cy="196.9" r="1.5" fill="rgba(74,158,255,0.10)"/><circle cx="680.0" cy="196.9" r="1.5" fill="rgba(74,158,255,0.10)"/><circle cx="720.0" cy="196.9" r="1.5" fill="rgba(74,158,255,0.10)"/><circle cx="760.0" cy="196.9" r="1.5" fill="rgba(74,158,255,0.10)"/><circle cx="800.0" cy="196.9" r="1.5" fill="rgba(74,158,255,0.10)"/><circle cx="840.0" cy="196.9" r="1.5" fill="rgba(74,158,255,0.10)"/><circle cx="880.0" cy="196.9" r="1.5" fill="rgba(74,158,255,0.10)"/><circle cx="920.0" cy="196.9" r="1.5" fill="rgba(74,158,255,0.10)"/><circle cx="960.0" cy="196.9" r="1.5" fill="rgba(74,158,255,0.10)"/><circle cx="1000.0" cy="196.9" r="1.5" fill="rgba(74,158,255,0.10)"/><circle cx="1040.0" cy="196.9" r="1.5" fill="rgba(74,158,255,0.10)"/><circle cx="1080.0" cy="196.9" r="1.5" fill="rgba(74,158,255,0.10)"/><circle cx="1120.0" cy="196.9" r="1.5" fill="rgba(74,158,255,0.10)"/><circle cx="1160.0" cy="196.9" r="1.5" fill="rgba(74,158,255,0.10)"/><circle cx="1200.0" cy="196.9" r="1.5" fill="rgba(74,158,255,0.10)"/><circle cx="0.0" cy="236.3" r="1.5" fill="rgba(74,158,255,0.10)"/><circle cx="40.0" cy="236.3" r="1.5" fill="rgba(74,158,255,0.10)"/><circle cx="80.0" cy="236.3" r="1.5" fill="rgba(74,158,255,0.10)"/><circle cx="120.0" cy="236.3" r="1.5" fill="rgba(74,158,255,0.10)"/><circle cx="160.0" cy="236.3" r="1.5" fill="rgba(74,158,255,0.10)"/><circle cx="200.0" cy="236.3" r="1.5" fill="rgba(74,158,255,0.10)"/><circle cx="240.0" cy="236.3" r="1.5" fill="rgba(74,158,255,0.10)"/><circle cx="280.0" cy="236.3" r="1.5" fill="rgba(74,158,255,0.10)"/><circle cx="320.0" cy="236.3" r="1.5" fill="rgba(74,158,255,0.10)"/><circle cx="360.0" cy="236.3" r="1.5" fill="rgba(74,158,255,0.10)"/><circle cx="400.0" cy="236.3" r="1.5" fill="rgba(74,158,255,0.10)"/><circle cx="440.0" cy="236.3" r="1.5" fill="rgba(74,158,255,0.10)"/><circle cx="480.0" cy="236.3" r="1.5" fill="rgba(74,158,255,0.10)"/><circle cx="520.0" cy="236.3" r="1.5" fill="rgba(74,158,255,0.10)"/><circle cx="560.0" cy="236.3" r="1.5" fill="rgba(74,158,255,0.10)"/><circle cx="600.0" cy="236.3" r="1.5" fill="rgba(74,158,255,0.10)"/><circle cx="640.0" cy="236.3" r="1.5" fill="rgba(74,158,255,0.10)"/><circle cx="680.0" cy="236.3" r="1.5" fill="rgba(74,158,255,0.10)"/><circle cx="720.0" cy="236.3" r="1.5" fill="rgba(74,158,255,0.10)"/><circle cx="760.0" cy="236.3" r="1.5" fill="rgba(74,158,255,0.10)"/><circle cx="800.0" cy="236.3" r="1.5" fill="rgba(74,158,255,0.10)"/><circle cx="840.0" cy="236.3" r="1.5" fill="rgba(74,158,255,0.10)"/><circle cx="880.0" cy="236.3" r="1.5" fill="rgba(74,158,255,0.10)"/><circle cx="920.0" cy="236.3" r="1.5" fill="rgba(74,158,255,0.10)"/><circle cx="960.0" cy="236.3" r="1.5" fill="rgba(74,158,255,0.10)"/><circle cx="1000.0" cy="236.3" r="1.5" fill="rgba(74,158,255,0.10)"/><circle cx="1040.0" cy="236.3" r="1.5" fill="rgba(74,158,255,0.10)"/><circle cx="1080.0" cy="236.3" r="1.5" fill="rgba(74,158,255,0.10)"/><circle cx="1120.0" cy="236.3" r="1.5" fill="rgba(74,158,255,0.10)"/><circle cx="1160.0" cy="236.3" r="1.5" fill="rgba(74,158,255,0.10)"/><circle cx="1200.0" cy="236.3" r="1.5" fill="rgba(74,158,255,0.10)"/><circle cx="0.0" cy="275.6" r="1.5" fill="rgba(74,158,255,0.10)"/><circle cx="40.0" cy="275.6" r="1.5" fill="rgba(74,158,255,0.10)"/><circle cx="80.0" cy="275.6" r="1.5" fill="rgba(74,158,255,0.10)"/><circle cx="120.0" cy="275.6" r="1.5" fill="rgba(74,158,255,0.10)"/><circle cx="160.0" cy="275.6" r="1.5" fill="rgba(74,158,255,0.10)"/><circle cx="200.0" cy="275.6" r="1.5" fill="rgba(74,158,255,0.10)"/><circle cx="240.0" cy="275.6" r="1.5" fill="rgba(74,158,255,0.10)"/><circle cx="280.0" cy="275.6" r="1.5" fill="rgba(74,158,255,0.10)"/><circle cx="320.0" cy="275.6" r="1.5" fill="rgba(74,158,255,0.10)"/><circle cx="360.0" cy="275.6" r="1.5" fill="rgba(74,158,255,0.10)"/><circle cx="400.0" cy="275.6" r="1.5" fill="rgba(74,158,255,0.10)"/><circle cx="440.0" cy="275.6" r="1.5" fill="rgba(74,158,255,0.10)"/><circle cx="480.0" cy="275.6" r="1.5" fill="rgba(74,158,255,0.10)"/><circle cx="520.0" cy="275.6" r="1.5" fill="rgba(74,158,255,0.10)"/><circle cx="560.0" cy="275.6" r="1.5" fill="rgba(74,158,255,0.10)"/><circle cx="600.0" cy="275.6" r="1.5" fill="rgba(74,158,255,0.10)"/><circle cx="640.0" cy="275.6" r="1.5" fill="rgba(74,158,255,0.10)"/><circle cx="680.0" cy="275.6" r="1.5" fill="rgba(74,158,255,0.10)"/><circle cx="720.0" cy="275.6" r="1.5" fill="rgba(74,158,255,0.10)"/><circle cx="760.0" cy="275.6" r="1.5" fill="rgba(74,158,255,0.10)"/><circle cx="800.0" cy="275.6" r="1.5" fill="rgba(74,158,255,0.10)"/><circle cx="840.0" cy="275.6" r="1.5" fill="rgba(74,158,255,0.10)"/><circle cx="880.0" cy="275.6" r="1.5" fill="rgba(74,158,255,0.10)"/><circle cx="920.0" cy="275.6" r="1.5" fill="rgba(74,158,255,0.10)"/><circle cx="960.0" cy="275.6" r="1.5" fill="rgba(74,158,255,0.10)"/><circle cx="1000.0" cy="275.6" r="1.5" fill="rgba(74,158,255,0.10)"/><circle cx="1040.0" cy="275.6" r="1.5" fill="rgba(74,158,255,0.10)"/><circle cx="1080.0" cy="275.6" r="1.5" fill="rgba(74,158,255,0.10)"/><circle cx="1120.0" cy="275.6" r="1.5" fill="rgba(74,158,255,0.10)"/><circle cx="1160.0" cy="275.6" r="1.5" fill="rgba(74,158,255,0.10)"/><circle cx="1200.0" cy="275.6" r="1.5" fill="rgba(74,158,255,0.10)"/><circle cx="0.0" cy="315.0" r="1.5" fill="rgba(74,158,255,0.10)"/><circle cx="40.0" cy="315.0" r="1.5" fill="rgba(74,158,255,0.10)"/><circle cx="80.0" cy="315.0" r="1.5" fill="rgba(74,158,255,0.10)"/><circle cx="120.0" cy="315.0" r="1.5" fill="rgba(74,158,255,0.10)"/><circle cx="160.0" cy="315.0" r="1.5" fill="rgba(74,158,255,0.10)"/><circle cx="200.0" cy="315.0" r="1.5" fill="rgba(74,158,255,0.10)"/><circle cx="240.0" cy="315.0" r="1.5" fill="rgba(74,158,255,0.10)"/><circle cx="280.0" cy="315.0" r="1.5" fill="rgba(74,158,255,0.10)"/><circle cx="320.0" cy="315.0" r="1.5" fill="rgba(74,158,255,0.10)"/><circle cx="360.0" cy="315.0" r="1.5" fill="rgba(74,158,255,0.10)"/><circle cx="400.0" cy="315.0" r="1.5" fill="rgba(74,158,255,0.10)"/><circle cx="440.0" cy="315.0" r="1.5" fill="rgba(74,158,255,0.10)"/><circle cx="480.0" cy="315.0" r="1.5" fill="rgba(74,158,255,0.10)"/><circle cx="520.0" cy="315.0" r="1.5" fill="rgba(74,158,255,0.10)"/><circle cx="560.0" cy="315.0" r="1.5" fill="rgba(74,158,255,0.10)"/><circle cx="600.0" cy="315.0" r="1.5" fill="rgba(74,158,255,0.10)"/><circle cx="640.0" cy="315.0" r="1.5" fill="rgba(74,158,255,0.10)"/><circle cx="680.0" cy="315.0" r="1.5" fill="rgba(74,158,255,0.10)"/><circle cx="720.0" cy="315.0" r="1.5" fill="rgba(74,158,255,0.10)"/><circle cx="760.0" cy="315.0" r="1.5" fill="rgba(74,158,255,0.10)"/><circle cx="800.0" cy="315.0" r="1.5" fill="rgba(74,158,255,0.10)"/><circle cx="840.0" cy="315.0" r="1.5" fill="rgba(74,158,255,0.10)"/><circle cx="880.0" cy="315.0" r="1.5" fill="rgba(74,158,255,0.10)"/><circle cx="920.0" cy="315.0" r="1.5" fill="rgba(74,158,255,0.10)"/><circle cx="960.0" cy="315.0" r="1.5" fill="rgba(74,158,255,0.10)"/><circle cx="1000.0" cy="315.0" r="1.5" fill="rgba(74,158,255,0.10)"/><circle cx="1040.0" cy="315.0" r="1.5" fill="rgba(74,158,255,0.10)"/><circle cx="1080.0" cy="315.0" r="1.5" fill="rgba(74,158,255,0.10)"/><circle cx="1120.0" cy="315.0" r="1.5" fill="rgba(74,158,255,0.10)"/><circle cx="1160.0" cy="315.0" r="1.5" fill="rgba(74,158,255,0.10)"/><circle cx="1200.0" cy="315.0" r="1.5" fill="rgba(74,158,255,0.10)"/><circle cx="0.0" cy="354.4" r="1.5" fill="rgba(74,158,255,0.10)"/><circle cx="40.0" cy="354.4" r="1.5" fill="rgba(74,158,255,0.10)"/><circle cx="80.0" cy="354.4" r="1.5" fill="rgba(74,158,255,0.10)"/><circle cx="120.0" cy="354.4" r="1.5" fill="rgba(74,158,255,0.10)"/><circle cx="160.0" cy="354.4" r="1.5" fill="rgba(74,158,255,0.10)"/><circle cx="200.0" cy="354.4" r="1.5" fill="rgba(74,158,255,0.10)"/><circle cx="240.0" cy="354.4" r="1.5" fill="rgba(74,158,255,0.10)"/><circle cx="280.0" cy="354.4" r="1.5" fill="rgba(74,158,255,0.10)"/><circle cx="320.0" cy="354.4" r="1.5" fill="rgba(74,158,255,0.10)"/><circle cx="360.0" cy="354.4" r="1.5" fill="rgba(74,158,255,0.10)"/><circle cx="400.0" cy="354.4" r="1.5" fill="rgba(74,158,255,0.10)"/><circle cx="440.0" cy="354.4" r="1.5" fill="rgba(74,158,255,0.10)"/><circle cx="480.0" cy="354.4" r="1.5" fill="rgba(74,158,255,0.10)"/><circle cx="520.0" cy="354.4" r="1.5" fill="rgba(74,158,255,0.10)"/><circle cx="560.0" cy="354.4" r="1.5" fill="rgba(74,158,255,0.10)"/><circle cx="600.0" cy="354.4" r="1.5" fill="rgba(74,158,255,0.10)"/><circle cx="640.0" cy="354.4" r="1.5" fill="rgba(74,158,255,0.10)"/><circle cx="680.0" cy="354.4" r="1.5" fill="rgba(74,158,255,0.10)"/><circle cx="720.0" cy="354.4" r="1.5" fill="rgba(74,158,255,0.10)"/><circle cx="760.0" cy="354.4" r="1.5" fill="rgba(74,158,255,0.10)"/><circle cx="800.0" cy="354.4" r="1.5" fill="rgba(74,158,255,0.10)"/><circle cx="840.0" cy="354.4" r="1.5" fill="rgba(74,158,255,0.10)"/><circle cx="880.0" cy="354.4" r="1.5" fill="rgba(74,158,255,0.10)"/><circle cx="920.0" cy="354.4" r="1.5" fill="rgba(74,158,255,0.10)"/><circle cx="960.0" cy="354.4" r="1.5" fill="rgba(74,158,255,0.10)"/><circle cx="1000.0" cy="354.4" r="1.5" fill="rgba(74,158,255,0.10)"/><circle cx="1040.0" cy="354.4" r="1.5" fill="rgba(74,158,255,0.10)"/><circle cx="1080.0" cy="354.4" r="1.5" fill="rgba(74,158,255,0.10)"/><circle cx="1120.0" cy="354.4" r="1.5" fill="rgba(74,158,255,0.10)"/><circle cx="1160.0" cy="354.4" r="1.5" fill="rgba(74,158,255,0.10)"/><circle cx="1200.0" cy="354.4" r="1.5" fill="rgba(74,158,255,0.10)"/><circle cx="0.0" cy="393.8" r="1.5" fill="rgba(74,158,255,0.10)"/><circle cx="40.0" cy="393.8" r="1.5" fill="rgba(74,158,255,0.10)"/><circle cx="80.0" cy="393.8" r="1.5" fill="rgba(74,158,255,0.10)"/><circle cx="120.0" cy="393.8" r="1.5" fill="rgba(74,158,255,0.10)"/><circle cx="160.0" cy="393.8" r="1.5" fill="rgba(74,158,255,0.10)"/><circle cx="200.0" cy="393.8" r="1.5" fill="rgba(74,158,255,0.10)"/><circle cx="240.0" cy="393.8" r="1.5" fill="rgba(74,158,255,0.10)"/><circle cx="280.0" cy="393.8" r="1.5" fill="rgba(74,158,255,0.10)"/><circle cx="320.0" cy="393.8" r="1.5" fill="rgba(74,158,255,0.10)"/><circle cx="360.0" cy="393.8" r="1.5" fill="rgba(74,158,255,0.10)"/><circle cx="400.0" cy="393.8" r="1.5" fill="rgba(74,158,255,0.10)"/><circle cx="440.0" cy="393.8" r="1.5" fill="rgba(74,158,255,0.10)"/><circle cx="480.0" cy="393.8" r="1.5" fill="rgba(74,158,255,0.10)"/><circle cx="520.0" cy="393.8" r="1.5" fill="rgba(74,158,255,0.10)"/><circle cx="560.0" cy="393.8" r="1.5" fill="rgba(74,158,255,0.10)"/><circle cx="600.0" cy="393.8" r="1.5" fill="rgba(74,158,255,0.10)"/><circle cx="640.0" cy="393.8" r="1.5" fill="rgba(74,158,255,0.10)"/><circle cx="680.0" cy="393.8" r="1.5" fill="rgba(74,158,255,0.10)"/><circle cx="720.0" cy="393.8" r="1.5" fill="rgba(74,158,255,0.10)"/><circle cx="760.0" cy="393.8" r="1.5" fill="rgba(74,158,255,0.10)"/><circle cx="800.0" cy="393.8" r="1.5" fill="rgba(74,158,255,0.10)"/><circle cx="840.0" cy="393.8" r="1.5" fill="rgba(74,158,255,0.10)"/><circle cx="880.0" cy="393.8" r="1.5" fill="rgba(74,158,255,0.10)"/><circle cx="920.0" cy="393.8" r="1.5" fill="rgba(74,158,255,0.10)"/><circle cx="960.0" cy="393.8" r="1.5" fill="rgba(74,158,255,0.10)"/><circle cx="1000.0" cy="393.8" r="1.5" fill="rgba(74,158,255,0.10)"/><circle cx="1040.0" cy="393.8" r="1.5" fill="rgba(74,158,255,0.10)"/><circle cx="1080.0" cy="393.8" r="1.5" fill="rgba(74,158,255,0.10)"/><circle cx="1120.0" cy="393.8" r="1.5" fill="rgba(74,158,255,0.10)"/><circle cx="1160.0" cy="393.8" r="1.5" fill="rgba(74,158,255,0.10)"/><circle cx="1200.0" cy="393.8" r="1.5" fill="rgba(74,158,255,0.10)"/><circle cx="0.0" cy="433.1" r="1.5" fill="rgba(74,158,255,0.10)"/><circle cx="40.0" cy="433.1" r="1.5" fill="rgba(74,158,255,0.10)"/><circle cx="80.0" cy="433.1" r="1.5" fill="rgba(74,158,255,0.10)"/><circle cx="120.0" cy="433.1" r="1.5" fill="rgba(74,158,255,0.10)"/><circle cx="160.0" cy="433.1" r="1.5" fill="rgba(74,158,255,0.10)"/><circle cx="200.0" cy="433.1" r="1.5" fill="rgba(74,158,255,0.10)"/><circle cx="240.0" cy="433.1" r="1.5" fill="rgba(74,158,255,0.10)"/><circle cx="280.0" cy="433.1" r="1.5" fill="rgba(74,158,255,0.10)"/><circle cx="320.0" cy="433.1" r="1.5" fill="rgba(74,158,255,0.10)"/><circle cx="360.0" cy="433.1" r="1.5" fill="rgba(74,158,255,0.10)"/><circle cx="400.0" cy="433.1" r="1.5" fill="rgba(74,158,255,0.10)"/><circle cx="440.0" cy="433.1" r="1.5" fill="rgba(74,158,255,0.10)"/><circle cx="480.0" cy="433.1" r="1.5" fill="rgba(74,158,255,0.10)"/><circle cx="520.0" cy="433.1" r="1.5" fill="rgba(74,158,255,0.10)"/><circle cx="560.0" cy="433.1" r="1.5" fill="rgba(74,158,255,0.10)"/><circle cx="600.0" cy="433.1" r="1.5" fill="rgba(74,158,255,0.10)"/><circle cx="640.0" cy="433.1" r="1.5" fill="rgba(74,158,255,0.10)"/><circle cx="680.0" cy="433.1" r="1.5" fill="rgba(74,158,255,0.10)"/><circle cx="720.0" cy="433.1" r="1.5" fill="rgba(74,158,255,0.10)"/><circle cx="760.0" cy="433.1" r="1.5" fill="rgba(74,158,255,0.10)"/><circle cx="800.0" cy="433.1" r="1.5" fill="rgba(74,158,255,0.10)"/><circle cx="840.0" cy="433.1" r="1.5" fill="rgba(74,158,255,0.10)"/><circle cx="880.0" cy="433.1" r="1.5" fill="rgba(74,158,255,0.10)"/><circle cx="920.0" cy="433.1" r="1.5" fill="rgba(74,158,255,0.10)"/><circle cx="960.0" cy="433.1" r="1.5" fill="rgba(74,158,255,0.10)"/><circle cx="1000.0" cy="433.1" r="1.5" fill="rgba(74,158,255,0.10)"/><circle cx="1040.0" cy="433.1" r="1.5" fill="rgba(74,158,255,0.10)"/><circle cx="1080.0" cy="433.1" r="1.5" fill="rgba(74,158,255,0.10)"/><circle cx="1120.0" cy="433.1" r="1.5" fill="rgba(74,158,255,0.10)"/><circle cx="1160.0" cy="433.1" r="1.5" fill="rgba(74,158,255,0.10)"/><circle cx="1200.0" cy="433.1" r="1.5" fill="rgba(74,158,255,0.10)"/><circle cx="0.0" cy="472.5" r="1.5" fill="rgba(74,158,255,0.10)"/><circle cx="40.0" cy="472.5" r="1.5" fill="rgba(74,158,255,0.10)"/><circle cx="80.0" cy="472.5" r="1.5" fill="rgba(74,158,255,0.10)"/><circle cx="120.0" cy="472.5" r="1.5" fill="rgba(74,158,255,0.10)"/><circle cx="160.0" cy="472.5" r="1.5" fill="rgba(74,158,255,0.10)"/><circle cx="200.0" cy="472.5" r="1.5" fill="rgba(74,158,255,0.10)"/><circle cx="240.0" cy="472.5" r="1.5" fill="rgba(74,158,255,0.10)"/><circle cx="280.0" cy="472.5" r="1.5" fill="rgba(74,158,255,0.10)"/><circle cx="320.0" cy="472.5" r="1.5" fill="rgba(74,158,255,0.10)"/><circle cx="360.0" cy="472.5" r="1.5" fill="rgba(74,158,255,0.10)"/><circle cx="400.0" cy="472.5" r="1.5" fill="rgba(74,158,255,0.10)"/><circle cx="440.0" cy="472.5" r="1.5" fill="rgba(74,158,255,0.10)"/><circle cx="480.0" cy="472.5" r="1.5" fill="rgba(74,158,255,0.10)"/><circle cx="520.0" cy="472.5" r="1.5" fill="rgba(74,158,255,0.10)"/><circle cx="560.0" cy="472.5" r="1.5" fill="rgba(74,158,255,0.10)"/><circle cx="600.0" cy="472.5" r="1.5" fill="rgba(74,158,255,0.10)"/><circle cx="640.0" cy="472.5" r="1.5" fill="rgba(74,158,255,0.10)"/><circle cx="680.0" cy="472.5" r="1.5" fill="rgba(74,158,255,0.10)"/><circle cx="720.0" cy="472.5" r="1.5" fill="rgba(74,158,255,0.10)"/><circle cx="760.0" cy="472.5" r="1.5" fill="rgba(74,158,255,0.10)"/><circle cx="800.0" cy="472.5" r="1.5" fill="rgba(74,158,255,0.10)"/><circle cx="840.0" cy="472.5" r="1.5" fill="rgba(74,158,255,0.10)"/><circle cx="880.0" cy="472.5" r="1.5" fill="rgba(74,158,255,0.10)"/><circle cx="920.0" cy="472.5" r="1.5" fill="rgba(74,158,255,0.10)"/><circle cx="960.0" cy="472.5" r="1.5" fill="rgba(74,158,255,0.10)"/><circle cx="1000.0" cy="472.5" r="1.5" fill="rgba(74,158,255,0.10)"/><circle cx="1040.0" cy="472.5" r="1.5" fill="rgba(74,158,255,0.10)"/><circle cx="1080.0" cy="472.5" r="1.5" fill="rgba(74,158,255,0.10)"/><circle cx="1120.0" cy="472.5" r="1.5" fill="rgba(74,158,255,0.10)"/><circle cx="1160.0" cy="472.5" r="1.5" fill="rgba(74,158,255,0.10)"/><circle cx="1200.0" cy="472.5" r="1.5" fill="rgba(74,158,255,0.10)"/><circle cx="0.0" cy="511.9" r="1.5" fill="rgba(74,158,255,0.10)"/><circle cx="40.0" cy="511.9" r="1.5" fill="rgba(74,158,255,0.10)"/><circle cx="80.0" cy="511.9" r="1.5" fill="rgba(74,158,255,0.10)"/><circle cx="120.0" cy="511.9" r="1.5" fill="rgba(74,158,255,0.10)"/><circle cx="160.0" cy="511.9" r="1.5" fill="rgba(74,158,255,0.10)"/><circle cx="200.0" cy="511.9" r="1.5" fill="rgba(74,158,255,0.10)"/><circle cx="240.0" cy="511.9" r="1.5" fill="rgba(74,158,255,0.10)"/><circle cx="280.0" cy="511.9" r="1.5" fill="rgba(74,158,255,0.10)"/><circle cx="320.0" cy="511.9" r="1.5" fill="rgba(74,158,255,0.10)"/><circle cx="360.0" cy="511.9" r="1.5" fill="rgba(74,158,255,0.10)"/><circle cx="400.0" cy="511.9" r="1.5" fill="rgba(74,158,255,0.10)"/><circle cx="440.0" cy="511.9" r="1.5" fill="rgba(74,158,255,0.10)"/><circle cx="480.0" cy="511.9" r="1.5" fill="rgba(74,158,255,0.10)"/><circle cx="520.0" cy="511.9" r="1.5" fill="rgba(74,158,255,0.10)"/><circle cx="560.0" cy="511.9" r="1.5" fill="rgba(74,158,255,0.10)"/><circle cx="600.0" cy="511.9" r="1.5" fill="rgba(74,158,255,0.10)"/><circle cx="640.0" cy="511.9" r="1.5" fill="rgba(74,158,255,0.10)"/><circle cx="680.0" cy="511.9" r="1.5" fill="rgba(74,158,255,0.10)"/><circle cx="720.0" cy="511.9" r="1.5" fill="rgba(74,158,255,0.10)"/><circle cx="760.0" cy="511.9" r="1.5" fill="rgba(74,158,255,0.10)"/><circle cx="800.0" cy="511.9" r="1.5" fill="rgba(74,158,255,0.10)"/><circle cx="840.0" cy="511.9" r="1.5" fill="rgba(74,158,255,0.10)"/><circle cx="880.0" cy="511.9" r="1.5" fill="rgba(74,158,255,0.10)"/><circle cx="920.0" cy="511.9" r="1.5" fill="rgba(74,158,255,0.10)"/><circle cx="960.0" cy="511.9" r="1.5" fill="rgba(74,158,255,0.10)"/><circle cx="1000.0" cy="511.9" r="1.5" fill="rgba(74,158,255,0.10)"/><circle cx="1040.0" cy="511.9" r="1.5" fill="rgba(74,158,255,0.10)"/><circle cx="1080.0" cy="511.9" r="1.5" fill="rgba(74,158,255,0.10)"/><circle cx="1120.0" cy="511.9" r="1.5" fill="rgba(74,158,255,0.10)"/><circle cx="1160.0" cy="511.9" r="1.5" fill="rgba(74,158,255,0.10)"/><circle cx="1200.0" cy="511.9" r="1.5" fill="rgba(74,158,255,0.10)"/><circle cx="0.0" cy="551.3" r="1.5" fill="rgba(74,158,255,0.10)"/><circle cx="40.0" cy="551.3" r="1.5" fill="rgba(74,158,255,0.10)"/><circle cx="80.0" cy="551.3" r="1.5" fill="rgba(74,158,255,0.10)"/><circle cx="120.0" cy="551.3" r="1.5" fill="rgba(74,158,255,0.10)"/><circle cx="160.0" cy="551.3" r="1.5" fill="rgba(74,158,255,0.10)"/><circle cx="200.0" cy="551.3" r="1.5" fill="rgba(74,158,255,0.10)"/><circle cx="240.0" cy="551.3" r="1.5" fill="rgba(74,158,255,0.10)"/><circle cx="280.0" cy="551.3" r="1.5" fill="rgba(74,158,255,0.10)"/><circle cx="320.0" cy="551.3" r="1.5" fill="rgba(74,158,255,0.10)"/><circle cx="360.0" cy="551.3" r="1.5" fill="rgba(74,158,255,0.10)"/><circle cx="400.0" cy="551.3" r="1.5" fill="rgba(74,158,255,0.10)"/><circle cx="440.0" cy="551.3" r="1.5" fill="rgba(74,158,255,0.10)"/><circle cx="480.0" cy="551.3" r="1.5" fill="rgba(74,158,255,0.10)"/><circle cx="520.0" cy="551.3" r="1.5" fill="rgba(74,158,255,0.10)"/><circle cx="560.0" cy="551.3" r="1.5" fill="rgba(74,158,255,0.10)"/><circle cx="600.0" cy="551.3" r="1.5" fill="rgba(74,158,255,0.10)"/><circle cx="640.0" cy="551.3" r="1.5" fill="rgba(74,158,255,0.10)"/><circle cx="680.0" cy="551.3" r="1.5" fill="rgba(74,158,255,0.10)"/><circle cx="720.0" cy="551.3" r="1.5" fill="rgba(74,158,255,0.10)"/><circle cx="760.0" cy="551.3" r="1.5" fill="rgba(74,158,255,0.10)"/><circle cx="800.0" cy="551.3" r="1.5" fill="rgba(74,158,255,0.10)"/><circle cx="840.0" cy="551.3" r="1.5" fill="rgba(74,158,255,0.10)"/><circle cx="880.0" cy="551.3" r="1.5" fill="rgba(74,158,255,0.10)"/><circle cx="920.0" cy="551.3" r="1.5" fill="rgba(74,158,255,0.10)"/><circle cx="960.0" cy="551.3" r="1.5" fill="rgba(74,158,255,0.10)"/><circle cx="1000.0" cy="551.3" r="1.5" fill="rgba(74,158,255,0.10)"/><circle cx="1040.0" cy="551.3" r="1.5" fill="rgba(74,158,255,0.10)"/><circle cx="1080.0" cy="551.3" r="1.5" fill="rgba(74,158,255,0.10)"/><circle cx="1120.0" cy="551.3" r="1.5" fill="rgba(74,158,255,0.10)"/><circle cx="1160.0" cy="551.3" r="1.5" fill="rgba(74,158,255,0.10)"/><circle cx="1200.0" cy="551.3" r="1.5" fill="rgba(74,158,255,0.10)"/><circle cx="0.0" cy="590.6" r="1.5" fill="rgba(74,158,255,0.10)"/><circle cx="40.0" cy="590.6" r="1.5" fill="rgba(74,158,255,0.10)"/><circle cx="80.0" cy="590.6" r="1.5" fill="rgba(74,158,255,0.10)"/><circle cx="120.0" cy="590.6" r="1.5" fill="rgba(74,158,255,0.10)"/><circle cx="160.0" cy="590.6" r="1.5" fill="rgba(74,158,255,0.10)"/><circle cx="200.0" cy="590.6" r="1.5" fill="rgba(74,158,255,0.10)"/><circle cx="240.0" cy="590.6" r="1.5" fill="rgba(74,158,255,0.10)"/><circle cx="280.0" cy="590.6" r="1.5" fill="rgba(74,158,255,0.10)"/><circle cx="320.0" cy="590.6" r="1.5" fill="rgba(74,158,255,0.10)"/><circle cx="360.0" cy="590.6" r="1.5" fill="rgba(74,158,255,0.10)"/><circle cx="400.0" cy="590.6" r="1.5" fill="rgba(74,158,255,0.10)"/><circle cx="440.0" cy="590.6" r="1.5" fill="rgba(74,158,255,0.10)"/><circle cx="480.0" cy="590.6" r="1.5" fill="rgba(74,158,255,0.10)"/><circle cx="520.0" cy="590.6" r="1.5" fill="rgba(74,158,255,0.10)"/><circle cx="560.0" cy="590.6" r="1.5" fill="rgba(74,158,255,0.10)"/><circle cx="600.0" cy="590.6" r="1.5" fill="rgba(74,158,255,0.10)"/><circle cx="640.0" cy="590.6" r="1.5" fill="rgba(74,158,255,0.10)"/><circle cx="680.0" cy="590.6" r="1.5" fill="rgba(74,158,255,0.10)"/><circle cx="720.0" cy="590.6" r="1.5" fill="rgba(74,158,255,0.10)"/><circle cx="760.0" cy="590.6" r="1.5" fill="rgba(74,158,255,0.10)"/><circle cx="800.0" cy="590.6" r="1.5" fill="rgba(74,158,255,0.10)"/><circle cx="840.0" cy="590.6" r="1.5" fill="rgba(74,158,255,0.10)"/><circle cx="880.0" cy="590.6" r="1.5" fill="rgba(74,158,255,0.10)"/><circle cx="920.0" cy="590.6" r="1.5" fill="rgba(74,158,255,0.10)"/><circle cx="960.0" cy="590.6" r="1.5" fill="rgba(74,158,255,0.10)"/><circle cx="1000.0" cy="590.6" r="1.5" fill="rgba(74,158,255,0.10)"/><circle cx="1040.0" cy="590.6" r="1.5" fill="rgba(74,158,255,0.10)"/><circle cx="1080.0" cy="590.6" r="1.5" fill="rgba(74,158,255,0.10)"/><circle cx="1120.0" cy="590.6" r="1.5" fill="rgba(74,158,255,0.10)"/><circle cx="1160.0" cy="590.6" r="1.5" fill="rgba(74,158,255,0.10)"/><circle cx="1200.0" cy="590.6" r="1.5" fill="rgba(74,158,255,0.10)"/><circle cx="0.0" cy="630.0" r="1.5" fill="rgba(74,158,255,0.10)"/><circle cx="40.0" cy="630.0" r="1.5" fill="rgba(74,158,255,0.10)"/><circle cx="80.0" cy="630.0" r="1.5" fill="rgba(74,158,255,0.10)"/><circle cx="120.0" cy="630.0" r="1.5" fill="rgba(74,158,255,0.10)"/><circle cx="160.0" cy="630.0" r="1.5" fill="rgba(74,158,255,0.10)"/><circle cx="200.0" cy="630.0" r="1.5" fill="rgba(74,158,255,0.10)"/><circle cx="240.0" cy="630.0" r="1.5" fill="rgba(74,158,255,0.10)"/><circle cx="280.0" cy="630.0" r="1.5" fill="rgba(74,158,255,0.10)"/><circle cx="320.0" cy="630.0" r="1.5" fill="rgba(74,158,255,0.10)"/><circle cx="360.0" cy="630.0" r="1.5" fill="rgba(74,158,255,0.10)"/><circle cx="400.0" cy="630.0" r="1.5" fill="rgba(74,158,255,0.10)"/><circle cx="440.0" cy="630.0" r="1.5" fill="rgba(74,158,255,0.10)"/><circle cx="480.0" cy="630.0" r="1.5" fill="rgba(74,158,255,0.10)"/><circle cx="520.0" cy="630.0" r="1.5" fill="rgba(74,158,255,0.10)"/><circle cx="560.0" cy="630.0" r="1.5" fill="rgba(74,158,255,0.10)"/><circle cx="600.0" cy="630.0" r="1.5" fill="rgba(74,158,255,0.10)"/><circle cx="640.0" cy="630.0" r="1.5" fill="rgba(74,158,255,0.10)"/><circle cx="680.0" cy="630.0" r="1.5" fill="rgba(74,158,255,0.10)"/><circle cx="720.0" cy="630.0" r="1.5" fill="rgba(74,158,255,0.10)"/><circle cx="760.0" cy="630.0" r="1.5" fill="rgba(74,158,255,0.10)"/><circle cx="800.0" cy="630.0" r="1.5" fill="rgba(74,158,255,0.10)"/><circle cx="840.0" cy="630.0" r="1.5" fill="rgba(74,158,255,0.10)"/><circle cx="880.0" cy="630.0" r="1.5" fill="rgba(74,158,255,0.10)"/><circle cx="920.0" cy="630.0" r="1.5" fill="rgba(74,158,255,0.10)"/><circle cx="960.0" cy="630.0" r="1.5" fill="rgba(74,158,255,0.10)"/><circle cx="1000.0" cy="630.0" r="1.5" fill="rgba(74,158,255,0.10)"/><circle cx="1040.0" cy="630.0" r="1.5" fill="rgba(74,158,255,0.10)"/><circle cx="1080.0" cy="630.0" r="1.5" fill="rgba(74,158,255,0.10)"/><circle cx="1120.0" cy="630.0" r="1.5" fill="rgba(74,158,255,0.10)"/><circle cx="1160.0" cy="630.0" r="1.5" fill="rgba(74,158,255,0.10)"/><circle cx="1200.0" cy="630.0" r="1.5" fill="rgba(74,158,255,0.10)"/>
    <line x1="600" y1="315" x2="180" y2="180" stroke="#4a9eff" stroke-width="1.5" opacity="0.25" stroke-dasharray="4 3"/><line x1="600" y1="315" x2="400" y2="140" stroke="#4a9eff" stroke-width="1.5" opacity="0.25" stroke-dasharray="4 3"/><line x1="600" y1="315" x2="620" y2="100" stroke="#4a9eff" stroke-width="1.5" opacity="0.25" stroke-dasharray="4 3"/><line x1="600" y1="315" x2="820" y2="160" stroke="#4a9eff" stroke-width="1.5" opacity="0.25" stroke-dasharray="4 3"/><line x1="600" y1="315" x2="980" y2="240" stroke="#4a9eff" stroke-width="1.5" opacity="0.25" stroke-dasharray="4 3"/><line x1="600" y1="315" x2="280" y2="340" stroke="#4a9eff" stroke-width="1.5" opacity="0.25" stroke-dasharray="4 3"/><line x1="600" y1="315" x2="500" y2="320" stroke="#4a9eff" stroke-width="1.5" opacity="0.25" stroke-dasharray="4 3"/><line x1="600" y1="315" x2="720" y2="300" stroke="#4a9eff" stroke-width="1.5" opacity="0.25" stroke-dasharray="4 3"/><line x1="600" y1="315" x2="880" y2="380" stroke="#4a9eff" stroke-width="1.5" opacity="0.25" stroke-dasharray="4 3"/><line x1="600" y1="315" x2="160" y2="440" stroke="#4a9eff" stroke-width="1.5" opacity="0.25" stroke-dasharray="4 3"/><line x1="600" y1="315" x2="380" y2="480" stroke="#4a9eff" stroke-width="1.5" opacity="0.25" stroke-dasharray="4 3"/><line x1="600" y1="315" x2="600" y2="460" stroke="#4a9eff" stroke-width="1.5" opacity="0.25" stroke-dasharray="4 3"/><line x1="600" y1="315" x2="800" y2="500" stroke="#4a9eff" stroke-width="1.5" opacity="0.25" stroke-dasharray="4 3"/><line x1="600" y1="315" x2="1000" y2="430" stroke="#4a9eff" stroke-width="1.5" opacity="0.25" stroke-dasharray="4 3"/>
    <circle cx="600" cy="315" r="120" fill="url(#hub1)"/>
    <circle cx="600" cy="315" r="48" fill="#4a9eff" opacity="0.12"/>
    <circle cx="600" cy="315" r="28" fill="#4a9eff" opacity="0.22"/>
    <circle cx="600" cy="315" r="14" fill="#4a9eff" opacity="0.9"/>
    
    <circle cx="180" cy="180" r="20" fill="#22d68a" opacity="0.07"/>
    <circle cx="180" cy="180" r="12" fill="#22d68a" opacity="0.12"/>
    <circle cx="180" cy="180" r="8" fill="#22d68a" opacity="0.9"/><rect x="159" y="194" width="42" height="28" rx="14" fill="#22d68a" opacity="0.15"/>
<text x="180" y="213" font-family="Rajdhani,sans-serif" font-size="13" fill="#22d68a" text-anchor="middle" font-weight="600">BJ</text>
    <circle cx="400" cy="140" r="20" fill="#22d68a" opacity="0.07"/>
    <circle cx="400" cy="140" r="12" fill="#22d68a" opacity="0.12"/>
    <circle cx="400" cy="140" r="8" fill="#22d68a" opacity="0.9"/><rect x="379" y="154" width="42" height="28" rx="14" fill="#22d68a" opacity="0.15"/>
<text x="400" y="173" font-family="Rajdhani,sans-serif" font-size="13" fill="#22d68a" text-anchor="middle" font-weight="600">HB</text>
    <circle cx="620" cy="100" r="20" fill="#506580" opacity="0.07"/>
    <circle cx="620" cy="100" r="12" fill="#506580" opacity="0.12"/>
    <circle cx="620" cy="100" r="8" fill="#506580" opacity="0.9"/><rect x="599" y="114" width="42" height="28" rx="14" fill="#506580" opacity="0.15"/>
<text x="620" y="133" font-family="Rajdhani,sans-serif" font-size="13" fill="#506580" text-anchor="middle" font-weight="600">SH</text>
    <circle cx="820" cy="160" r="20" fill="#22d68a" opacity="0.07"/>
    <circle cx="820" cy="160" r="12" fill="#22d68a" opacity="0.12"/>
    <circle cx="820" cy="160" r="8" fill="#22d68a" opacity="0.9"/><rect x="799" y="174" width="42" height="28" rx="14" fill="#22d68a" opacity="0.15"/>
<text x="820" y="193" font-family="Rajdhani,sans-serif" font-size="13" fill="#22d68a" text-anchor="middle" font-weight="600">JS</text>
    <circle cx="980" cy="240" r="20" fill="#22d68a" opacity="0.07"/>
    <circle cx="980" cy="240" r="12" fill="#22d68a" opacity="0.12"/>
    <circle cx="980" cy="240" r="8" fill="#22d68a" opacity="0.9"/><rect x="959" y="254" width="42" height="28" rx="14" fill="#22d68a" opacity="0.15"/>
<text x="980" y="273" font-family="Rajdhani,sans-serif" font-size="13" fill="#22d68a" text-anchor="middle" font-weight="600">GD</text>
    <circle cx="280" cy="340" r="20" fill="#506580" opacity="0.07"/>
    <circle cx="280" cy="340" r="12" fill="#506580" opacity="0.12"/>
    <circle cx="280" cy="340" r="8" fill="#506580" opacity="0.9"/><rect x="259" y="354" width="42" height="28" rx="14" fill="#506580" opacity="0.15"/>
<text x="280" y="373" font-family="Rajdhani,sans-serif" font-size="13" fill="#506580" text-anchor="middle" font-weight="600">HN</text>
    <circle cx="500" cy="320" r="20" fill="#22d68a" opacity="0.07"/>
    <circle cx="500" cy="320" r="12" fill="#22d68a" opacity="0.12"/>
    <circle cx="500" cy="320" r="8" fill="#22d68a" opacity="0.9"/><rect x="479" y="334" width="42" height="28" rx="14" fill="#22d68a" opacity="0.15"/>
<text x="500" y="353" font-family="Rajdhani,sans-serif" font-size="13" fill="#22d68a" text-anchor="middle" font-weight="600">AH</text>
    <circle cx="720" cy="300" r="20" fill="#22d68a" opacity="0.07"/>
    <circle cx="720" cy="300" r="12" fill="#22d68a" opacity="0.12"/>
    <circle cx="720" cy="300" r="8" fill="#22d68a" opacity="0.9"/><rect x="699" y="314" width="42" height="28" rx="14" fill="#22d68a" opacity="0.15"/>
<text x="720" y="333" font-family="Rajdhani,sans-serif" font-size="13" fill="#22d68a" text-anchor="middle" font-weight="600">ZJ</text>
    <circle cx="880" cy="380" r="20" fill="#506580" opacity="0.07"/>
    <circle cx="880" cy="380" r="12" fill="#506580" opacity="0.12"/>
    <circle cx="880" cy="380" r="8" fill="#506580" opacity="0.9"/><rect x="859" y="394" width="42" height="28" rx="14" fill="#506580" opacity="0.15"/>
<text x="880" y="413" font-family="Rajdhani,sans-serif" font-size="13" fill="#506580" text-anchor="middle" font-weight="600">FJ</text>
    <circle cx="160" cy="440" r="20" fill="#22d68a" opacity="0.07"/>
    <circle cx="160" cy="440" r="12" fill="#22d68a" opacity="0.12"/>
    <circle cx="160" cy="440" r="8" fill="#22d68a" opacity="0.9"/><rect x="139" y="454" width="42" height="28" rx="14" fill="#22d68a" opacity="0.15"/>
<text x="160" y="473" font-family="Rajdhani,sans-serif" font-size="13" fill="#22d68a" text-anchor="middle" font-weight="600">SC</text>
    <circle cx="380" cy="480" r="20" fill="#22d68a" opacity="0.07"/>
    <circle cx="380" cy="480" r="12" fill="#22d68a" opacity="0.12"/>
    <circle cx="380" cy="480" r="8" fill="#22d68a" opacity="0.9"/><rect x="359" y="494" width="42" height="28" rx="14" fill="#22d68a" opacity="0.15"/>
<text x="380" y="513" font-family="Rajdhani,sans-serif" font-size="13" fill="#22d68a" text-anchor="middle" font-weight="600">HU</text>
    <circle cx="600" cy="460" r="20" fill="#506580" opacity="0.07"/>
    <circle cx="600" cy="460" r="12" fill="#506580" opacity="0.12"/>
    <circle cx="600" cy="460" r="8" fill="#506580" opacity="0.9"/><rect x="579" y="474" width="42" height="28" rx="14" fill="#506580" opacity="0.15"/>
<text x="600" y="493" font-family="Rajdhani,sans-serif" font-size="13" fill="#506580" text-anchor="middle" font-weight="600">GX</text>
    <circle cx="800" cy="500" r="20" fill="#22d68a" opacity="0.07"/>
    <circle cx="800" cy="500" r="12" fill="#22d68a" opacity="0.12"/>
    <circle cx="800" cy="500" r="8" fill="#22d68a" opacity="0.9"/><rect x="779" y="514" width="42" height="28" rx="14" fill="#22d68a" opacity="0.15"/>
<text x="800" y="533" font-family="Rajdhani,sans-serif" font-size="13" fill="#22d68a" text-anchor="middle" font-weight="600">YN</text>
    <circle cx="1000" cy="430" r="20" fill="#22d68a" opacity="0.07"/>
    <circle cx="1000" cy="430" r="12" fill="#22d68a" opacity="0.12"/>
    <circle cx="1000" cy="430" r="8" fill="#22d68a" opacity="0.9"/><rect x="979" y="444" width="42" height="28" rx="14" fill="#22d68a" opacity="0.15"/>
<text x="1000" y="463" font-family="Rajdhani,sans-serif" font-size="13" fill="#22d68a" text-anchor="middle" font-weight="600">SD</text>
    <text x="600" y="582" font-family="Rajdhani,sans-serif" font-size="18" fill="#4a9eff" text-anchor="middle" opacity="0.7" letter-spacing="4">NEXUSCONTROL · 实时设备态势感知</text>
</svg>