<svg xmlns="http://www.w3.org/2000/svg" width="1200" height="630" viewBox="0 0 1200 630">
<defs>
  <style>@import url('https://fonts.googleapis.com/css2?family=Rajdhani:wght@600&amp;display=swap');</style>
  
    <radialGradient id="bg2" cx="20%" cy="50%" r="70%">
      <stop offset="0%" stop-color="#0d1a30"/>
      <stop offset="100%" stop-color="#080d18"/>
    </radialGradient>
    <linearGradient id="tunnel" x1="0%" y1="0%" x2="100%" y2="0%">
      <stop offset="0%" stop-color="#22d68a" stop-opacity="0.8"/>
      <stop offset="50%" stop-color="#4a9eff" stop-opacity="1"/>
      <stop offset="100%" stop-color="#667eea" stop-opacity="0.8"/>
    </linearGradient>
</defs>

    <rect width="1200" height="630" fill="url(#bg2)"/>
    <circle cx="0.0" cy="0.0" r="1.5" fill="rgba(74,158,255,0.07)"/><circle cx="40.0" cy="0.0" r="1.5" fill="rgba(74,158,255,0.07)"/><circle cx="80.0" cy="0.0" r="1.5" fill="rgba(74,158,255,0.07)"/><circle cx="120.0" cy="0.0" r="1.5" fill="rgba(74,158,255,0.07)"/><circle cx="160.0" cy="0.0" r="1.5" fill="rgba(74,158,255,0.07)"/><circle cx="200.0" cy="0.0" r="1.5" fill="rgba(74,158,255,0.07)"/><circle cx="240.0" cy="0.0" r="1.5" fill="rgba(74,158,255,0.07)"/><circle cx="280.0" cy="0.0" r="1.5" fill="rgba(74,158,255,0.07)"/><circle cx="320.0" cy="0.0" r="1.5" fill="rgba(74,158,255,0.07)"/><circle cx="360.0" cy="0.0" r="1.5" fill="rgba(74,158,255,0.07)"/><circle cx="400.0" cy="0.0" r="1.5" fill="rgba(74,158,255,0.07)"/><circle cx="440.0" cy="0.0" r="1.5" fill="rgba(74,158,255,0.07)"/><circle cx="480.0" cy="0.0" r="1.5" fill="rgba(74,158,255,0.07)"/><circle cx="520.0" cy="0.0" r="1.5" fill="rgba(74,158,255,0.07)"/><circle cx="560.0" cy="0.0" r="1.5" fill="rgba(74,158,255,0.07)"/><circle cx="600.0" cy="0.0" r="1.5" fill="rgba(74,158,255,0.07)"/><circle cx="640.0" cy="0.0" r="1.5" fill="rgba(74,158,255,0.07)"/><circle cx="680.0" cy="0.0" r="1.5" fill="rgba(74,158,255,0.07)"/><circle cx="720.0" cy="0.0" r="1.5" fill="rgba(74,158,255,0.07)"/><circle cx="760.0" cy="0.0" r="1.5" fill="rgba(74,158,255,0.07)"/><circle cx="800.0" cy="0.0" r="1.5" fill="rgba(74,158,255,0.07)"/><circle cx="840.0" cy="0.0" r="1.5" fill="rgba(74,158,255,0.07)"/><circle cx="880.0" cy="0.0" r="1.5" fill="rgba(74,158,255,0.07)"/><circle cx="920.0" cy="0.0" r="1.5" fill="rgba(74,158,255,0.07)"/><circle cx="960.0" cy="0.0" r="1.5" fill="rgba(74,158,255,0.07)"/><circle cx="1000.0" cy="0.0" r="1.5" fill="rgba(74,158,255,0.07)"/><circle cx="1040.0" cy="0.0" r="1.5" fill="rgba(74,158,255,0.07)"/><circle cx="1080.0" cy="0.0" r="1.5" fill="rgba(74,158,255,0.07)"/><circle cx="1120.0" cy="0.0" r="1.5" fill="rgba(74,158,255,0.07)"/><circle cx="1160.0" cy="0.0" r="1.5" fill="rgba(74,158,255,0.07)"/><circle cx="1200.0" cy="0.0" r="1.5" fill="rgba(74,158,255,0.07)"/><circle cx="0.0" cy="39.4" r="1.5" fill="rgba(74,158,255,0.07)"/><circle cx="40.0" cy="39.4" r="1.5" fill="rgba(74,158,255,0.07)"/><circle cx="80.0" cy="39.4" r="1.5" fill="rgba(74,158,255,0.07)"/><circle cx="120.0" cy="39.4" r="1.5" fill="rgba(74,158,255,0.07)"/><circle cx="160.0" cy="39.4" r="1.5" fill="rgba(74,158,255,0.07)"/><circle cx="200.0" cy="39.4" r="1.5" fill="rgba(74,158,255,0.07)"/><circle cx="240.0" cy="39.4" r="1.5" fill="rgba(74,158,255,0.07)"/><circle cx="280.0" cy="39.4" r="1.5" fill="rgba(74,158,255,0.07)"/><circle cx="320.0" cy="39.4" r="1.5" fill="rgba(74,158,255,0.07)"/><circle cx="360.0" cy="39.4" r="1.5" fill="rgba(74,158,255,0.07)"/><circle cx="400.0" cy="39.4" r="1.5" fill="rgba(74,158,255,0.07)"/><circle cx="440.0" cy="39.4" r="1.5" fill="rgba(74,158,255,0.07)"/><circle cx="480.0" cy="39.4" r="1.5" fill="rgba(74,158,255,0.07)"/><circle cx="520.0" cy="39.4" r="1.5" fill="rgba(74,158,255,0.07)"/><circle cx="560.0" cy="39.4" r="1.5" fill="rgba(74,158,255,0.07)"/><circle cx="600.0" cy="39.4" r="1.5" fill="rgba(74,158,255,0.07)"/><circle cx="640.0" cy="39.4" r="1.5" fill="rgba(74,158,255,0.07)"/><circle cx="680.0" cy="39.4" r="1.5" fill="rgba(74,158,255,0.07)"/><circle cx="720.0" cy="39.4" r="1.5" fill="rgba(74,158,255,0.07)"/><circle cx="760.0" cy="39.4" r="1.5" fill="rgba(74,158,255,0.07)"/><circle cx="800.0" cy="39.4" r="1.5" fill="rgba(74,158,255,0.07)"/><circle cx="840.0" cy="39.4" r="1.5" fill="rgba(74,158,255,0.07)"/><circle cx="880.0" cy="39.4" r="1.5" fill="rgba(74,158,255,0.07)"/><circle cx="920.0" cy="39.4" r="1.5" fill="rgba(74,158,255,0.07)"/><circle cx="960.0" cy="39.4" r="1.5" fill="rgba(74,158,255,0.07)"/><circle cx="1000.0" cy="39.4" r="1.5" fill="rgba(74,158,255,0.07)"/><circle cx="1040.0" cy="39.4" r="1.5" fill="rgba(74,158,255,0.07)"/><circle cx="1080.0" cy="39.4" r="1.5" fill="rgba(74,158,255,0.07)"/><circle cx="1120.0" cy="39.4" r="1.5" fill="rgba(74,158,255,0.07)"/><circle cx="1160.0" cy="39.4" r="1.5" fill="rgba(74,158,255,0.07)"/><circle cx="1200.0" cy="39.4" r="1.5" fill="rgba(74,158,255,0.07)"/><circle cx="0.0" cy="78.8" r="1.5" fill="rgba(74,158,255,0.07)"/><circle cx="40.0" cy="78.8" r="1.5" fill="rgba(74,158,255,0.07)"/><circle cx="80.0" cy="78.8" r="1.5" fill="rgba(74,158,255,0.07)"/><circle cx="120.0" cy="78.8" r="1.5" fill="rgba(74,158,255,0.07)"/><circle cx="160.0" cy="78.8" r="1.5" fill="rgba(74,158,255,0.07)"/><circle cx="200.0" cy="78.8" r="1.5" fill="rgba(74,158,255,0.07)"/><circle cx="240.0" cy="78.8" r="1.5" fill="rgba(74,158,255,0.07)"/><circle cx="280.0" cy="78.8" r="1.5" fill="rgba(74,158,255,0.07)"/><circle cx="320.0" cy="78.8" r="1.5" fill="rgba(74,158,255,0.07)"/><circle cx="360.0" cy="78.8" r="1.5" fill="rgba(74,158,255,0.07)"/><circle cx="400.0" cy="78.8" r="1.5" fill="rgba(74,158,255,0.07)"/><circle cx="440.0" cy="78.8" r="1.5" fill="rgba(74,158,255,0.07)"/><circle cx="480.0" cy="78.8" r="1.5" fill="rgba(74,158,255,0.07)"/><circle cx="520.0" cy="78.8" r="1.5" fill="rgba(74,158,255,0.07)"/><circle cx="560.0" cy="78.8" r="1.5" fill="rgba(74,158,255,0.07)"/><circle cx="600.0" cy="78.8" r="1.5" fill="rgba(74,158,255,0.07)"/><circle cx="640.0" cy="78.8" r="1.5" fill="rgba(74,158,255,0.07)"/><circle cx="680.0" cy="78.8" r="1.5" fill="rgba(74,158,255,0.07)"/><circle cx="720.0" cy="78.8" r="1.5" fill="rgba(74,158,255,0.07)"/><circle cx="760.0" cy="78.8" r="1.5" fill="rgba(74,158,255,0.07)"/><circle cx="800.0" cy="78.8" r="1.5" fill="rgba(74,158,255,0.07)"/><circle cx="840.0" cy="78.8" r="1.5" fill="rgba(74,158,255,0.07)"/><circle cx="880.0" cy="78.8" r="1.5" fill="rgba(74,158,255,0.07)"/><circle cx="920.0" cy="78.8" r="1.5" fill="rgba(74,158,255,0.07)"/><circle cx="960.0" cy="78.8" r="1.5" fill="rgba(74,158,255,0.07)"/><circle cx="1000.0" cy="78.8" r="1.5" fill="rgba(74,158,255,0.07)"/><circle cx="1040.0" cy="78.8" r="1.5" fill="rgba(74,158,255,0.07)"/><circle cx="1080.0" cy="78.8" r="1.5" fill="rgba(74,158,255,0.07)"/><circle cx="1120.0" cy="78.8" r="1.5" fill="rgba(74,158,255,0.07)"/><circle cx="1160.0" cy="78.8" r="1.5" fill="rgba(74,158,255,0.07)"/><circle cx="1200.0" cy="78.8" r="1.5" fill="rgba(74,158,255,0.07)"/><circle cx="0.0" cy="118.1" r="1.5" fill="rgba(74,158,255,0.07)"/><circle cx="40.0" cy="118.1" r="1.5" fill="rgba(74,158,255,0.07)"/><circle cx="80.0" cy="118.1" r="1.5" fill="rgba(74,158,255,0.07)"/><circle cx="120.0" cy="118.1" r="1.5" fill="rgba(74,158,255,0.07)"/><circle cx="160.0" cy="118.1" r="1.5" fill="rgba(74,158,255,0.07)"/><circle cx="200.0" cy="118.1" r="1.5" fill="rgba(74,158,255,0.07)"/><circle cx="240.0" cy="118.1" r="1.5" fill="rgba(74,158,255,0.07)"/><circle cx="280.0" cy="118.1" r="1.5" fill="rgba(74,158,255,0.07)"/><circle cx="320.0" cy="118.1" r="1.5" fill="rgba(74,158,255,0.07)"/><circle cx="360.0" cy="118.1" r="1.5" fill="rgba(74,158,255,0.07)"/><circle cx="400.0" cy="118.1" r="1.5" fill="rgba(74,158,255,0.07)"/><circle cx="440.0" cy="118.1" r="1.5" fill="rgba(74,158,255,0.07)"/><circle cx="480.0" cy="118.1" r="1.5" fill="rgba(74,158,255,0.07)"/><circle cx="520.0" cy="118.1" r="1.5" fill="rgba(74,158,255,0.07)"/><circle cx="560.0" cy="118.1" r="1.5" fill="rgba(74,158,255,0.07)"/><circle cx="600.0" cy="118.1" r="1.5" fill="rgba(74,158,255,0.07)"/><circle cx="640.0" cy="118.1" r="1.5" fill="rgba(74,158,255,0.07)"/><circle cx="680.0" cy="118.1" r="1.5" fill="rgba(74,158,255,0.07)"/><circle cx="720.0" cy="118.1" r="1.5" fill="rgba(74,158,255,0.07)"/><circle cx="760.0" cy="118.1" r="1.5" fill="rgba(74,158,255,0.07)"/><circle cx="800.0" cy="118.1" r="1.5" fill="rgba(74,158,255,0.07)"/><circle cx="840.0" cy="118.1" r="1.5" fill="rgba(74,158,255,0.07)"/><circle cx="880.0" cy="118.1" r="1.5" fill="rgba(74,158,255,0.07)"/><circle cx="920.0" cy="118.1" r="1.5" fill="rgba(74,158,255,0.07)"/><circle cx="960.0" cy="118.1" r="1.5" fill="rgba(74,158,255,0.07)"/><circle cx="1000.0" cy="118.1" r="1.5" fill="rgba(74,158,255,0.07)"/><circle cx="1040.0" cy="118.1" r="1.5" fill="rgba(74,158,255,0.07)"/><circle cx="1080.0" cy="118.1" r="1.5" fill="rgba(74,158,255,0.07)"/><circle cx="1120.0" cy="118.1" r="1.5" fill="rgba(74,158,255,0.07)"/><circle cx="1160.0" cy="118.1" r="1.5" fill="rgba(74,158,255,0.07)"/><circle cx="1200.0" cy="118.1" r="1.5" fill="rgba(74,158,255,0.07)"/><circle cx="0.0" cy="157.5" r="1.5" fill="rgba(74,158,255,0.07)"/><circle cx="40.0" cy="157.5" r="1.5" fill="rgba(74,158,255,0.07)"/><circle cx="80.0" cy="157.5" r="1.5" fill="rgba(74,158,255,0.07)"/><circle cx="120.0" cy="157.5" r="1.5" fill="rgba(74,158,255,0.07)"/><circle cx="160.0" cy="157.5" r="1.5" fill="rgba(74,158,255,0.07)"/><circle cx="200.0" cy="157.5" r="1.5" fill="rgba(74,158,255,0.07)"/><circle cx="240.0" cy="157.5" r="1.5" fill="rgba(74,158,255,0.07)"/><circle cx="280.0" cy="157.5" r="1.5" fill="rgba(74,158,255,0.07)"/><circle cx="320.0" cy="157.5" r="1.5" fill="rgba(74,158,255,0.07)"/><circle cx="360.0" cy="157.5" r="1.5" fill="rgba(74,158,255,0.07)"/><circle cx="400.0" cy="157.5" r="1.5" fill="rgba(74,158,255,0.07)"/><circle cx="440.0" cy="157.5" r="1.5" fill="rgba(74,158,255,0.07)"/><circle cx="480.0" cy="157.5" r="1.5" fill="rgba(74,158,255,0.07)"/><circle cx="520.0" cy="157.5" r="1.5" fill="rgba(74,158,255,0.07)"/><circle cx="560.0" cy="157.5" r="1.5" fill="rgba(74,158,255,0.07)"/><circle cx="600.0" cy="157.5" r="1.5" fill="rgba(74,158,255,0.07)"/><circle cx="640.0" cy="157.5" r="1.5" fill="rgba(74,158,255,0.07)"/><circle cx="680.0" cy="157.5" r="1.5" fill="rgba(74,158,255,0.07)"/><circle cx="720.0" cy="157.5" r="1.5" fill="rgba(74,158,255,0.07)"/><circle cx="760.0" cy="157.5" r="1.5" fill="rgba(74,158,255,0.07)"/><circle cx="800.0" cy="157.5" r="1.5" fill="rgba(74,158,255,0.07)"/><circle cx="840.0" cy="157.5" r="1.5" fill="rgba(74,158,255,0.07)"/><circle cx="880.0" cy="157.5" r="1.5" fill="rgba(74,158,255,0.07)"/><circle cx="920.0" cy="157.5" r="1.5" fill="rgba(74,158,255,0.07)"/><circle cx="960.0" cy="157.5" r="1.5" fill="rgba(74,158,255,0.07)"/><circle cx="1000.0" cy="157.5" r="1.5" fill="rgba(74,158,255,0.07)"/><circle cx="1040.0" cy="157.5" r="1.5" fill="rgba(74,158,255,0.07)"/><circle cx="1080.0" cy="157.5" r="1.5" fill="rgba(74,158,255,0.07)"/><circle cx="1120.0" cy="157.5" r="1.5" fill="rgba(74,158,255,0.07)"/><circle cx="1160.0" cy="157.5" r="1.5" fill="rgba(74,158,255,0.07)"/><circle cx="1200.0" cy="157.5" r="1.5" fill="rgba(74,158,255,0.07)"/><circle cx="0.0" cy="196.9" r="1.5" fill="rgba(74,158,255,0.07)"/><circle cx="40.0" cy="196.9" r="1.5" fill="rgba(74,158,255,0.07)"/><circle cx="80.0" cy="196.9" r="1.5" fill="rgba(74,158,255,0.07)"/><circle cx="120.0" cy="196.9" r="1.5" fill="rgba(74,158,255,0.07)"/><circle cx="160.0" cy="196.9" r="1.5" fill="rgba(74,158,255,0.07)"/><circle cx="200.0" cy="196.9" r="1.5" fill="rgba(74,158,255,0.07)"/><circle cx="240.0" cy="196.9" r="1.5" fill="rgba(74,158,255,0.07)"/><circle cx="280.0" cy="196.9" r="1.5" fill="rgba(74,158,255,0.07)"/><circle cx="320.0" cy="196.9" r="1.5" fill="rgba(74,158,255,0.07)"/><circle cx="360.0" cy="196.9" r="1.5" fill="rgba(74,158,255,0.07)"/><circle cx="400.0" cy="196.9" r="1.5" fill="rgba(74,158,255,0.07)"/><circle cx="440.0" cy="196.9" r="1.5" fill="rgba(74,158,255,0.07)"/><circle cx="480.0" cy="196.9" r="1.5" fill="rgba(74,158,255,0.07)"/><circle cx="520.0" cy="196.9" r="1.5" fill="rgba(74,158,255,0.07)"/><circle cx="560.0" cy="196.9" r="1.5" fill="rgba(74,158,255,0.07)"/><circle cx="600.0" cy="196.9" r="1.5" fill="rgba(74,158,255,0.07)"/><circle cx="640.0" cy="196.9" r="1.5" fill="rgba(74,158,255,0.07)"/><circle cx="680.0" cy="196.9" r="1.5" fill="rgba(74,158,255,0.07)"/><circle cx="720.0" cy="196.9" r="1.5" fill="rgba(74,158,255,0.07)"/><circle cx="760.0" cy="196.9" r="1.5" fill="rgba(74,158,255,0.07)"/><circle cx="800.0" cy="196.9" r="1.5" fill="rgba(74,158,255,0.07)"/><circle cx="840.0" cy="196.9" r="1.5" fill="rgba(74,158,255,0.07)"/><circle cx="880.0" cy="196.9" r="1.5" fill="rgba(74,158,255,0.07)"/><circle cx="920.0" cy="196.9" r="1.5" fill="rgba(74,158,255,0.07)"/><circle cx="960.0" cy="196.9" r="1.5" fill="rgba(74,158,255,0.07)"/><circle cx="1000.0" cy="196.9" r="1.5" fill="rgba(74,158,255,0.07)"/><circle cx="1040.0" cy="196.9" r="1.5" fill="rgba(74,158,255,0.07)"/><circle cx="1080.0" cy="196.9" r="1.5" fill="rgba(74,158,255,0.07)"/><circle cx="1120.0" cy="196.9" r="1.5" fill="rgba(74,158,255,0.07)"/><circle cx="1160.0" cy="196.9" r="1.5" fill="rgba(74,158,255,0.07)"/><circle cx="1200.0" cy="196.9" r="1.5" fill="rgba(74,158,255,0.07)"/><circle cx="0.0" cy="236.3" r="1.5" fill="rgba(74,158,255,0.07)"/><circle cx="40.0" cy="236.3" r="1.5" fill="rgba(74,158,255,0.07)"/><circle cx="80.0" cy="236.3" r="1.5" fill="rgba(74,158,255,0.07)"/><circle cx="120.0" cy="236.3" r="1.5" fill="rgba(74,158,255,0.07)"/><circle cx="160.0" cy="236.3" r="1.5" fill="rgba(74,158,255,0.07)"/><circle cx="200.0" cy="236.3" r="1.5" fill="rgba(74,158,255,0.07)"/><circle cx="240.0" cy="236.3" r="1.5" fill="rgba(74,158,255,0.07)"/><circle cx="280.0" cy="236.3" r="1.5" fill="rgba(74,158,255,0.07)"/><circle cx="320.0" cy="236.3" r="1.5" fill="rgba(74,158,255,0.07)"/><circle cx="360.0" cy="236.3" r="1.5" fill="rgba(74,158,255,0.07)"/><circle cx="400.0" cy="236.3" r="1.5" fill="rgba(74,158,255,0.07)"/><circle cx="440.0" cy="236.3" r="1.5" fill="rgba(74,158,255,0.07)"/><circle cx="480.0" cy="236.3" r="1.5" fill="rgba(74,158,255,0.07)"/><circle cx="520.0" cy="236.3" r="1.5" fill="rgba(74,158,255,0.07)"/><circle cx="560.0" cy="236.3" r="1.5" fill="rgba(74,158,255,0.07)"/><circle cx="600.0" cy="236.3" r="1.5" fill="rgba(74,158,255,0.07)"/><circle cx="640.0" cy="236.3" r="1.5" fill="rgba(74,158,255,0.07)"/><circle cx="680.0" cy="236.3" r="1.5" fill="rgba(74,158,255,0.07)"/><circle cx="720.0" cy="236.3" r="1.5" fill="rgba(74,158,255,0.07)"/><circle cx="760.0" cy="236.3" r="1.5" fill="rgba(74,158,255,0.07)"/><circle cx="800.0" cy="236.3" r="1.5" fill="rgba(74,158,255,0.07)"/><circle cx="840.0" cy="236.3" r="1.5" fill="rgba(74,158,255,0.07)"/><circle cx="880.0" cy="236.3" r="1.5" fill="rgba(74,158,255,0.07)"/><circle cx="920.0" cy="236.3" r="1.5" fill="rgba(74,158,255,0.07)"/><circle cx="960.0" cy="236.3" r="1.5" fill="rgba(74,158,255,0.07)"/><circle cx="1000.0" cy="236.3" r="1.5" fill="rgba(74,158,255,0.07)"/><circle cx="1040.0" cy="236.3" r="1.5" fill="rgba(74,158,255,0.07)"/><circle cx="1080.0" cy="236.3" r="1.5" fill="rgba(74,158,255,0.07)"/><circle cx="1120.0" cy="236.3" r="1.5" fill="rgba(74,158,255,0.07)"/><circle cx="1160.0" cy="236.3" r="1.5" fill="rgba(74,158,255,0.07)"/><circle cx="1200.0" cy="236.3" r="1.5" fill="rgba(74,158,255,0.07)"/><circle cx="0.0" cy="275.6" r="1.5" fill="rgba(74,158,255,0.07)"/><circle cx="40.0" cy="275.6" r="1.5" fill="rgba(74,158,255,0.07)"/><circle cx="80.0" cy="275.6" r="1.5" fill="rgba(74,158,255,0.07)"/><circle cx="120.0" cy="275.6" r="1.5" fill="rgba(74,158,255,0.07)"/><circle cx="160.0" cy="275.6" r="1.5" fill="rgba(74,158,255,0.07)"/><circle cx="200.0" cy="275.6" r="1.5" fill="rgba(74,158,255,0.07)"/><circle cx="240.0" cy="275.6" r="1.5" fill="rgba(74,158,255,0.07)"/><circle cx="280.0" cy="275.6" r="1.5" fill="rgba(74,158,255,0.07)"/><circle cx="320.0" cy="275.6" r="1.5" fill="rgba(74,158,255,0.07)"/><circle cx="360.0" cy="275.6" r="1.5" fill="rgba(74,158,255,0.07)"/><circle cx="400.0" cy="275.6" r="1.5" fill="rgba(74,158,255,0.07)"/><circle cx="440.0" cy="275.6" r="1.5" fill="rgba(74,158,255,0.07)"/><circle cx="480.0" cy="275.6" r="1.5" fill="rgba(74,158,255,0.07)"/><circle cx="520.0" cy="275.6" r="1.5" fill="rgba(74,158,255,0.07)"/><circle cx="560.0" cy="275.6" r="1.5" fill="rgba(74,158,255,0.07)"/><circle cx="600.0" cy="275.6" r="1.5" fill="rgba(74,158,255,0.07)"/><circle cx="640.0" cy="275.6" r="1.5" fill="rgba(74,158,255,0.07)"/><circle cx="680.0" cy="275.6" r="1.5" fill="rgba(74,158,255,0.07)"/><circle cx="720.0" cy="275.6" r="1.5" fill="rgba(74,158,255,0.07)"/><circle cx="760.0" cy="275.6" r="1.5" fill="rgba(74,158,255,0.07)"/><circle cx="800.0" cy="275.6" r="1.5" fill="rgba(74,158,255,0.07)"/><circle cx="840.0" cy="275.6" r="1.5" fill="rgba(74,158,255,0.07)"/><circle cx="880.0" cy="275.6" r="1.5" fill="rgba(74,158,255,0.07)"/><circle cx="920.0" cy="275.6" r="1.5" fill="rgba(74,158,255,0.07)"/><circle cx="960.0" cy="275.6" r="1.5" fill="rgba(74,158,255,0.07)"/><circle cx="1000.0" cy="275.6" r="1.5" fill="rgba(74,158,255,0.07)"/><circle cx="1040.0" cy="275.6" r="1.5" fill="rgba(74,158,255,0.07)"/><circle cx="1080.0" cy="275.6" r="1.5" fill="rgba(74,158,255,0.07)"/><circle cx="1120.0" cy="275.6" r="1.5" fill="rgba(74,158,255,0.07)"/><circle cx="1160.0" cy="275.6" r="1.5" fill="rgba(74,158,255,0.07)"/><circle cx="1200.0" cy="275.6" r="1.5" fill="rgba(74,158,255,0.07)"/><circle cx="0.0" cy="315.0" r="1.5" fill="rgba(74,158,255,0.07)"/><circle cx="40.0" cy="315.0" r="1.5" fill="rgba(74,158,255,0.07)"/><circle cx="80.0" cy="315.0" r="1.5" fill="rgba(74,158,255,0.07)"/><circle cx="120.0" cy="315.0" r="1.5" fill="rgba(74,158,255,0.07)"/><circle cx="160.0" cy="315.0" r="1.5" fill="rgba(74,158,255,0.07)"/><circle cx="200.0" cy="315.0" r="1.5" fill="rgba(74,158,255,0.07)"/><circle cx="240.0" cy="315.0" r="1.5" fill="rgba(74,158,255,0.07)"/><circle cx="280.0" cy="315.0" r="1.5" fill="rgba(74,158,255,0.07)"/><circle cx="320.0" cy="315.0" r="1.5" fill="rgba(74,158,255,0.07)"/><circle cx="360.0" cy="315.0" r="1.5" fill="rgba(74,158,255,0.07)"/><circle cx="400.0" cy="315.0" r="1.5" fill="rgba(74,158,255,0.07)"/><circle cx="440.0" cy="315.0" r="1.5" fill="rgba(74,158,255,0.07)"/><circle cx="480.0" cy="315.0" r="1.5" fill="rgba(74,158,255,0.07)"/><circle cx="520.0" cy="315.0" r="1.5" fill="rgba(74,158,255,0.07)"/><circle cx="560.0" cy="315.0" r="1.5" fill="rgba(74,158,255,0.07)"/><circle cx="600.0" cy="315.0" r="1.5" fill="rgba(74,158,255,0.07)"/><circle cx="640.0" cy="315.0" r="1.5" fill="rgba(74,158,255,0.07)"/><circle cx="680.0" cy="315.0" r="1.5" fill="rgba(74,158,255,0.07)"/><circle cx="720.0" cy="315.0" r="1.5" fill="rgba(74,158,255,0.07)"/><circle cx="760.0" cy="315.0" r="1.5" fill="rgba(74,158,255,0.07)"/><circle cx="800.0" cy="315.0" r="1.5" fill="rgba(74,158,255,0.07)"/><circle cx="840.0" cy="315.0" r="1.5" fill="rgba(74,158,255,0.07)"/><circle cx="880.0" cy="315.0" r="1.5" fill="rgba(74,158,255,0.07)"/><circle cx="920.0" cy="315.0" r="1.5" fill="rgba(74,158,255,0.07)"/><circle cx="960.0" cy="315.0" r="1.5" fill="rgba(74,158,255,0.07)"/><circle cx="1000.0" cy="315.0" r="1.5" fill="rgba(74,158,255,0.07)"/><circle cx="1040.0" cy="315.0" r="1.5" fill="rgba(74,158,255,0.07)"/><circle cx="1080.0" cy="315.0" r="1.5" fill="rgba(74,158,255,0.07)"/><circle cx="1120.0" cy="315.0" r="1.5" fill="rgba(74,158,255,0.07)"/><circle cx="1160.0" cy="315.0" r="1.5" fill="rgba(74,158,255,0.07)"/><circle cx="1200.0" cy="315.0" r="1.5" fill="rgba(74,158,255,0.07)"/><circle cx="0.0" cy="354.4" r="1.5" fill="rgba(74,158,255,0.07)"/><circle cx="40.0" cy="354.4" r="1.5" fill="rgba(74,158,255,0.07)"/><circle cx="80.0" cy="354.4" r="1.5" fill="rgba(74,158,255,0.07)"/><circle cx="120.0" cy="354.4" r="1.5" fill="rgba(74,158,255,0.07)"/><circle cx="160.0" cy="354.4" r="1.5" fill="rgba(74,158,255,0.07)"/><circle cx="200.0" cy="354.4" r="1.5" fill="rgba(74,158,255,0.07)"/><circle cx="240.0" cy="354.4" r="1.5" fill="rgba(74,158,255,0.07)"/><circle cx="280.0" cy="354.4" r="1.5" fill="rgba(74,158,255,0.07)"/><circle cx="320.0" cy="354.4" r="1.5" fill="rgba(74,158,255,0.07)"/><circle cx="360.0" cy="354.4" r="1.5" fill="rgba(74,158,255,0.07)"/><circle cx="400.0" cy="354.4" r="1.5" fill="rgba(74,158,255,0.07)"/><circle cx="440.0" cy="354.4" r="1.5" fill="rgba(74,158,255,0.07)"/><circle cx="480.0" cy="354.4" r="1.5" fill="rgba(74,158,255,0.07)"/><circle cx="520.0" cy="354.4" r="1.5" fill="rgba(74,158,255,0.07)"/><circle cx="560.0" cy="354.4" r="1.5" fill="rgba(74,158,255,0.07)"/><circle cx="600.0" cy="354.4" r="1.5" fill="rgba(74,158,255,0.07)"/><circle cx="640.0" cy="354.4" r="1.5" fill="rgba(74,158,255,0.07)"/><circle cx="680.0" cy="354.4" r="1.5" fill="rgba(74,158,255,0.07)"/><circle cx="720.0" cy="354.4" r="1.5" fill="rgba(74,158,255,0.07)"/><circle cx="760.0" cy="354.4" r="1.5" fill="rgba(74,158,255,0.07)"/><circle cx="800.0" cy="354.4" r="1.5" fill="rgba(74,158,255,0.07)"/><circle cx="840.0" cy="354.4" r="1.5" fill="rgba(74,158,255,0.07)"/><circle cx="880.0" cy="354.4" r="1.5" fill="rgba(74,158,255,0.07)"/><circle cx="920.0" cy="354.4" r="1.5" fill="rgba(74,158,255,0.07)"/><circle cx="960.0" cy="354.4" r="1.5" fill="rgba(74,158,255,0.07)"/><circle cx="1000.0" cy="354.4" r="1.5" fill="rgba(74,158,255,0.07)"/><circle cx="1040.0" cy="354.4" r="1.5" fill="rgba(74,158,255,0.07)"/><circle cx="1080.0" cy="354.4" r="1.5" fill="rgba(74,158,255,0.07)"/><circle cx="1120.0" cy="354.4" r="1.5" fill="rgba(74,158,255,0.07)"/><circle cx="1160.0" cy="354.4" r="1.5" fill="rgba(74,158,255,0.07)"/><circle cx="1200.0" cy="354.4" r="1.5" fill="rgba(74,158,255,0.07)"/><circle cx="0.0" cy="393.8" r="1.5" fill="rgba(74,158,255,0.07)"/><circle cx="40.0" cy="393.8" r="1.5" fill="rgba(74,158,255,0.07)"/><circle cx="80.0" cy="393.8" r="1.5" fill="rgba(74,158,255,0.07)"/><circle cx="120.0" cy="393.8" r="1.5" fill="rgba(74,158,255,0.07)"/><circle cx="160.0" cy="393.8" r="1.5" fill="rgba(74,158,255,0.07)"/><circle cx="200.0" cy="393.8" r="1.5" fill="rgba(74,158,255,0.07)"/><circle cx="240.0" cy="393.8" r="1.5" fill="rgba(74,158,255,0.07)"/><circle cx="280.0" cy="393.8" r="1.5" fill="rgba(74,158,255,0.07)"/><circle cx="320.0" cy="393.8" r="1.5" fill="rgba(74,158,255,0.07)"/><circle cx="360.0" cy="393.8" r="1.5" fill="rgba(74,158,255,0.07)"/><circle cx="400.0" cy="393.8" r="1.5" fill="rgba(74,158,255,0.07)"/><circle cx="440.0" cy="393.8" r="1.5" fill="rgba(74,158,255,0.07)"/><circle cx="480.0" cy="393.8" r="1.5" fill="rgba(74,158,255,0.07)"/><circle cx="520.0" cy="393.8" r="1.5" fill="rgba(74,158,255,0.07)"/><circle cx="560.0" cy="393.8" r="1.5" fill="rgba(74,158,255,0.07)"/><circle cx="600.0" cy="393.8" r="1.5" fill="rgba(74,158,255,0.07)"/><circle cx="640.0" cy="393.8" r="1.5" fill="rgba(74,158,255,0.07)"/><circle cx="680.0" cy="393.8" r="1.5" fill="rgba(74,158,255,0.07)"/><circle cx="720.0" cy="393.8" r="1.5" fill="rgba(74,158,255,0.07)"/><circle cx="760.0" cy="393.8" r="1.5" fill="rgba(74,158,255,0.07)"/><circle cx="800.0" cy="393.8" r="1.5" fill="rgba(74,158,255,0.07)"/><circle cx="840.0" cy="393.8" r="1.5" fill="rgba(74,158,255,0.07)"/><circle cx="880.0" cy="393.8" r="1.5" fill="rgba(74,158,255,0.07)"/><circle cx="920.0" cy="393.8" r="1.5" fill="rgba(74,158,255,0.07)"/><circle cx="960.0" cy="393.8" r="1.5" fill="rgba(74,158,255,0.07)"/><circle cx="1000.0" cy="393.8" r="1.5" fill="rgba(74,158,255,0.07)"/><circle cx="1040.0" cy="393.8" r="1.5" fill="rgba(74,158,255,0.07)"/><circle cx="1080.0" cy="393.8" r="1.5" fill="rgba(74,158,255,0.07)"/><circle cx="1120.0" cy="393.8" r="1.5" fill="rgba(74,158,255,0.07)"/><circle cx="1160.0" cy="393.8" r="1.5" fill="rgba(74,158,255,0.07)"/><circle cx="1200.0" cy="393.8" r="1.5" fill="rgba(74,158,255,0.07)"/><circle cx="0.0" cy="433.1" r="1.5" fill="rgba(74,158,255,0.07)"/><circle cx="40.0" cy="433.1" r="1.5" fill="rgba(74,158,255,0.07)"/><circle cx="80.0" cy="433.1" r="1.5" fill="rgba(74,158,255,0.07)"/><circle cx="120.0" cy="433.1" r="1.5" fill="rgba(74,158,255,0.07)"/><circle cx="160.0" cy="433.1" r="1.5" fill="rgba(74,158,255,0.07)"/><circle cx="200.0" cy="433.1" r="1.5" fill="rgba(74,158,255,0.07)"/><circle cx="240.0" cy="433.1" r="1.5" fill="rgba(74,158,255,0.07)"/><circle cx="280.0" cy="433.1" r="1.5" fill="rgba(74,158,255,0.07)"/><circle cx="320.0" cy="433.1" r="1.5" fill="rgba(74,158,255,0.07)"/><circle cx="360.0" cy="433.1" r="1.5" fill="rgba(74,158,255,0.07)"/><circle cx="400.0" cy="433.1" r="1.5" fill="rgba(74,158,255,0.07)"/><circle cx="440.0" cy="433.1" r="1.5" fill="rgba(74,158,255,0.07)"/><circle cx="480.0" cy="433.1" r="1.5" fill="rgba(74,158,255,0.07)"/><circle cx="520.0" cy="433.1" r="1.5" fill="rgba(74,158,255,0.07)"/><circle cx="560.0" cy="433.1" r="1.5" fill="rgba(74,158,255,0.07)"/><circle cx="600.0" cy="433.1" r="1.5" fill="rgba(74,158,255,0.07)"/><circle cx="640.0" cy="433.1" r="1.5" fill="rgba(74,158,255,0.07)"/><circle cx="680.0" cy="433.1" r="1.5" fill="rgba(74,158,255,0.07)"/><circle cx="720.0" cy="433.1" r="1.5" fill="rgba(74,158,255,0.07)"/><circle cx="760.0" cy="433.1" r="1.5" fill="rgba(74,158,255,0.07)"/><circle cx="800.0" cy="433.1" r="1.5" fill="rgba(74,158,255,0.07)"/><circle cx="840.0" cy="433.1" r="1.5" fill="rgba(74,158,255,0.07)"/><circle cx="880.0" cy="433.1" r="1.5" fill="rgba(74,158,255,0.07)"/><circle cx="920.0" cy="433.1" r="1.5" fill="rgba(74,158,255,0.07)"/><circle cx="960.0" cy="433.1" r="1.5" fill="rgba(74,158,255,0.07)"/><circle cx="1000.0" cy="433.1" r="1.5" fill="rgba(74,158,255,0.07)"/><circle cx="1040.0" cy="433.1" r="1.5" fill="rgba(74,158,255,0.07)"/><circle cx="1080.0" cy="433.1" r="1.5" fill="rgba(74,158,255,0.07)"/><circle cx="1120.0" cy="433.1" r="1.5" fill="rgba(74,158,255,0.07)"/><circle cx="1160.0" cy="433.1" r="1.5" fill="rgba(74,158,255,0.07)"/><circle cx="1200.0" cy="433.1" r="1.5" fill="rgba(74,158,255,0.07)"/><circle cx="0.0" cy="472.5" r="1.5" fill="rgba(74,158,255,0.07)"/><circle cx="40.0" cy="472.5" r="1.5" fill="rgba(74,158,255,0.07)"/><circle cx="80.0" cy="472.5" r="1.5" fill="rgba(74,158,255,0.07)"/><circle cx="120.0" cy="472.5" r="1.5" fill="rgba(74,158,255,0.07)"/><circle cx="160.0" cy="472.5" r="1.5" fill="rgba(74,158,255,0.07)"/><circle cx="200.0" cy="472.5" r="1.5" fill="rgba(74,158,255,0.07)"/><circle cx="240.0" cy="472.5" r="1.5" fill="rgba(74,158,255,0.07)"/><circle cx="280.0" cy="472.5" r="1.5" fill="rgba(74,158,255,0.07)"/><circle cx="320.0" cy="472.5" r="1.5" fill="rgba(74,158,255,0.07)"/><circle cx="360.0" cy="472.5" r="1.5" fill="rgba(74,158,255,0.07)"/><circle cx="400.0" cy="472.5" r="1.5" fill="rgba(74,158,255,0.07)"/><circle cx="440.0" cy="472.5" r="1.5" fill="rgba(74,158,255,0.07)"/><circle cx="480.0" cy="472.5" r="1.5" fill="rgba(74,158,255,0.07)"/><circle cx="520.0" cy="472.5" r="1.5" fill="rgba(74,158,255,0.07)"/><circle cx="560.0" cy="472.5" r="1.5" fill="rgba(74,158,255,0.07)"/><circle cx="600.0" cy="472.5" r="1.5" fill="rgba(74,158,255,0.07)"/><circle cx="640.0" cy="472.5" r="1.5" fill="rgba(74,158,255,0.07)"/><circle cx="680.0" cy="472.5" r="1.5" fill="rgba(74,158,255,0.07)"/><circle cx="720.0" cy="472.5" r="1.5" fill="rgba(74,158,255,0.07)"/><circle cx="760.0" cy="472.5" r="1.5" fill="rgba(74,158,255,0.07)"/><circle cx="800.0" cy="472.5" r="1.5" fill="rgba(74,158,255,0.07)"/><circle cx="840.0" cy="472.5" r="1.5" fill="rgba(74,158,255,0.07)"/><circle cx="880.0" cy="472.5" r="1.5" fill="rgba(74,158,255,0.07)"/><circle cx="920.0" cy="472.5" r="1.5" fill="rgba(74,158,255,0.07)"/><circle cx="960.0" cy="472.5" r="1.5" fill="rgba(74,158,255,0.07)"/><circle cx="1000.0" cy="472.5" r="1.5" fill="rgba(74,158,255,0.07)"/><circle cx="1040.0" cy="472.5" r="1.5" fill="rgba(74,158,255,0.07)"/><circle cx="1080.0" cy="472.5" r="1.5" fill="rgba(74,158,255,0.07)"/><circle cx="1120.0" cy="472.5" r="1.5" fill="rgba(74,158,255,0.07)"/><circle cx="1160.0" cy="472.5" r="1.5" fill="rgba(74,158,255,0.07)"/><circle cx="1200.0" cy="472.5" r="1.5" fill="rgba(74,158,255,0.07)"/><circle cx="0.0" cy="511.9" r="1.5" fill="rgba(74,158,255,0.07)"/><circle cx="40.0" cy="511.9" r="1.5" fill="rgba(74,158,255,0.07)"/><circle cx="80.0" cy="511.9" r="1.5" fill="rgba(74,158,255,0.07)"/><circle cx="120.0" cy="511.9" r="1.5" fill="rgba(74,158,255,0.07)"/><circle cx="160.0" cy="511.9" r="1.5" fill="rgba(74,158,255,0.07)"/><circle cx="200.0" cy="511.9" r="1.5" fill="rgba(74,158,255,0.07)"/><circle cx="240.0" cy="511.9" r="1.5" fill="rgba(74,158,255,0.07)"/><circle cx="280.0" cy="511.9" r="1.5" fill="rgba(74,158,255,0.07)"/><circle cx="320.0" cy="511.9" r="1.5" fill="rgba(74,158,255,0.07)"/><circle cx="360.0" cy="511.9" r="1.5" fill="rgba(74,158,255,0.07)"/><circle cx="400.0" cy="511.9" r="1.5" fill="rgba(74,158,255,0.07)"/><circle cx="440.0" cy="511.9" r="1.5" fill="rgba(74,158,255,0.07)"/><circle cx="480.0" cy="511.9" r="1.5" fill="rgba(74,158,255,0.07)"/><circle cx="520.0" cy="511.9" r="1.5" fill="rgba(74,158,255,0.07)"/><circle cx="560.0" cy="511.9" r="1.5" fill="rgba(74,158,255,0.07)"/><circle cx="600.0" cy="511.9" r="1.5" fill="rgba(74,158,255,0.07)"/><circle cx="640.0" cy="511.9" r="1.5" fill="rgba(74,158,255,0.07)"/><circle cx="680.0" cy="511.9" r="1.5" fill="rgba(74,158,255,0.07)"/><circle cx="720.0" cy="511.9" r="1.5" fill="rgba(74,158,255,0.07)"/><circle cx="760.0" cy="511.9" r="1.5" fill="rgba(74,158,255,0.07)"/><circle cx="800.0" cy="511.9" r="1.5" fill="rgba(74,158,255,0.07)"/><circle cx="840.0" cy="511.9" r="1.5" fill="rgba(74,158,255,0.07)"/><circle cx="880.0" cy="511.9" r="1.5" fill="rgba(74,158,255,0.07)"/><circle cx="920.0" cy="511.9" r="1.5" fill="rgba(74,158,255,0.07)"/><circle cx="960.0" cy="511.9" r="1.5" fill="rgba(74,158,255,0.07)"/><circle cx="1000.0" cy="511.9" r="1.5" fill="rgba(74,158,255,0.07)"/><circle cx="1040.0" cy="511.9" r="1.5" fill="rgba(74,158,255,0.07)"/><circle cx="1080.0" cy="511.9" r="1.5" fill="rgba(74,158,255,0.07)"/><circle cx="1120.0" cy="511.9" r="1.5" fill="rgba(74,158,255,0.07)"/><circle cx="1160.0" cy="511.9" r="1.5" fill="rgba(74,158,255,0.07)"/><circle cx="1200.0" cy="511.9" r="1.5" fill="rgba(74,158,255,0.07)"/><circle cx="0.0" cy="551.3" r="1.5" fill="rgba(74,158,255,0.07)"/><circle cx="40.0" cy="551.3" r="1.5" fill="rgba(74,158,255,0.07)"/><circle cx="80.0" cy="551.3" r="1.5" fill="rgba(74,158,255,0.07)"/><circle cx="120.0" cy="551.3" r="1.5" fill="rgba(74,158,255,0.07)"/><circle cx="160.0" cy="551.3" r="1.5" fill="rgba(74,158,255,0.07)"/><circle cx="200.0" cy="551.3" r="1.5" fill="rgba(74,158,255,0.07)"/><circle cx="240.0" cy="551.3" r="1.5" fill="rgba(74,158,255,0.07)"/><circle cx="280.0" cy="551.3" r="1.5" fill="rgba(74,158,255,0.07)"/><circle cx="320.0" cy="551.3" r="1.5" fill="rgba(74,158,255,0.07)"/><circle cx="360.0" cy="551.3" r="1.5" fill="rgba(74,158,255,0.07)"/><circle cx="400.0" cy="551.3" r="1.5" fill="rgba(74,158,255,0.07)"/><circle cx="440.0" cy="551.3" r="1.5" fill="rgba(74,158,255,0.07)"/><circle cx="480.0" cy="551.3" r="1.5" fill="rgba(74,158,255,0.07)"/><circle cx="520.0" cy="551.3" r="1.5" fill="rgba(74,158,255,0.07)"/><circle cx="560.0" cy="551.3" r="1.5" fill="rgba(74,158,255,0.07)"/><circle cx="600.0" cy="551.3" r="1.5" fill="rgba(74,158,255,0.07)"/><circle cx="640.0" cy="551.3" r="1.5" fill="rgba(74,158,255,0.07)"/><circle cx="680.0" cy="551.3" r="1.5" fill="rgba(74,158,255,0.07)"/><circle cx="720.0" cy="551.3" r="1.5" fill="rgba(74,158,255,0.07)"/><circle cx="760.0" cy="551.3" r="1.5" fill="rgba(74,158,255,0.07)"/><circle cx="800.0" cy="551.3" r="1.5" fill="rgba(74,158,255,0.07)"/><circle cx="840.0" cy="551.3" r="1.5" fill="rgba(74,158,255,0.07)"/><circle cx="880.0" cy="551.3" r="1.5" fill="rgba(74,158,255,0.07)"/><circle cx="920.0" cy="551.3" r="1.5" fill="rgba(74,158,255,0.07)"/><circle cx="960.0" cy="551.3" r="1.5" fill="rgba(74,158,255,0.07)"/><circle cx="1000.0" cy="551.3" r="1.5" fill="rgba(74,158,255,0.07)"/><circle cx="1040.0" cy="551.3" r="1.5" fill="rgba(74,158,255,0.07)"/><circle cx="1080.0" cy="551.3" r="1.5" fill="rgba(74,158,255,0.07)"/><circle cx="1120.0" cy="551.3" r="1.5" fill="rgba(74,158,255,0.07)"/><circle cx="1160.0" cy="551.3" r="1.5" fill="rgba(74,158,255,0.07)"/><circle cx="1200.0" cy="551.3" r="1.5" fill="rgba(74,158,255,0.07)"/><circle cx="0.0" cy="590.6" r="1.5" fill="rgba(74,158,255,0.07)"/><circle cx="40.0" cy="590.6" r="1.5" fill="rgba(74,158,255,0.07)"/><circle cx="80.0" cy="590.6" r="1.5" fill="rgba(74,158,255,0.07)"/><circle cx="120.0" cy="590.6" r="1.5" fill="rgba(74,158,255,0.07)"/><circle cx="160.0" cy="590.6" r="1.5" fill="rgba(74,158,255,0.07)"/><circle cx="200.0" cy="590.6" r="1.5" fill="rgba(74,158,255,0.07)"/><circle cx="240.0" cy="590.6" r="1.5" fill="rgba(74,158,255,0.07)"/><circle cx="280.0" cy="590.6" r="1.5" fill="rgba(74,158,255,0.07)"/><circle cx="320.0" cy="590.6" r="1.5" fill="rgba(74,158,255,0.07)"/><circle cx="360.0" cy="590.6" r="1.5" fill="rgba(74,158,255,0.07)"/><circle cx="400.0" cy="590.6" r="1.5" fill="rgba(74,158,255,0.07)"/><circle cx="440.0" cy="590.6" r="1.5" fill="rgba(74,158,255,0.07)"/><circle cx="480.0" cy="590.6" r="1.5" fill="rgba(74,158,255,0.07)"/><circle cx="520.0" cy="590.6" r="1.5" fill="rgba(74,158,255,0.07)"/><circle cx="560.0" cy="590.6" r="1.5" fill="rgba(74,158,255,0.07)"/><circle cx="600.0" cy="590.6" r="1.5" fill="rgba(74,158,255,0.07)"/><circle cx="640.0" cy="590.6" r="1.5" fill="rgba(74,158,255,0.07)"/><circle cx="680.0" cy="590.6" r="1.5" fill="rgba(74,158,255,0.07)"/><circle cx="720.0" cy="590.6" r="1.5" fill="rgba(74,158,255,0.07)"/><circle cx="760.0" cy="590.6" r="1.5" fill="rgba(74,158,255,0.07)"/><circle cx="800.0" cy="590.6" r="1.5" fill="rgba(74,158,255,0.07)"/><circle cx="840.0" cy="590.6" r="1.5" fill="rgba(74,158,255,0.07)"/><circle cx="880.0" cy="590.6" r="1.5" fill="rgba(74,158,255,0.07)"/><circle cx="920.0" cy="590.6" r="1.5" fill="rgba(74,158,255,0.07)"/><circle cx="960.0" cy="590.6" r="1.5" fill="rgba(74,158,255,0.07)"/><circle cx="1000.0" cy="590.6" r="1.5" fill="rgba(74,158,255,0.07)"/><circle cx="1040.0" cy="590.6" r="1.5" fill="rgba(74,158,255,0.07)"/><circle cx="1080.0" cy="590.6" r="1.5" fill="rgba(74,158,255,0.07)"/><circle cx="1120.0" cy="590.6" r="1.5" fill="rgba(74,158,255,0.07)"/><circle cx="1160.0" cy="590.6" r="1.5" fill="rgba(74,158,255,0.07)"/><circle cx="1200.0" cy="590.6" r="1.5" fill="rgba(74,158,255,0.07)"/><circle cx="0.0" cy="630.0" r="1.5" fill="rgba(74,158,255,0.07)"/><circle cx="40.0" cy="630.0" r="1.5" fill="rgba(74,158,255,0.07)"/><circle cx="80.0" cy="630.0" r="1.5" fill="rgba(74,158,255,0.07)"/><circle cx="120.0" cy="630.0" r="1.5" fill="rgba(74,158,255,0.07)"/><circle cx="160.0" cy="630.0" r="1.5" fill="rgba(74,158,255,0.07)"/><circle cx="200.0" cy="630.0" r="1.5" fill="rgba(74,158,255,0.07)"/><circle cx="240.0" cy="630.0" r="1.5" fill="rgba(74,158,255,0.07)"/><circle cx="280.0" cy="630.0" r="1.5" fill="rgba(74,158,255,0.07)"/><circle cx="320.0" cy="630.0" r="1.5" fill="rgba(74,158,255,0.07)"/><circle cx="360.0" cy="630.0" r="1.5" fill="rgba(74,158,255,0.07)"/><circle cx="400.0" cy="630.0" r="1.5" fill="rgba(74,158,255,0.07)"/><circle cx="440.0" cy="630.0" r="1.5" fill="rgba(74,158,255,0.07)"/><circle cx="480.0" cy="630.0" r="1.5" fill="rgba(74,158,255,0.07)"/><circle cx="520.0" cy="630.0" r="1.5" fill="rgba(74,158,255,0.07)"/><circle cx="560.0" cy="630.0" r="1.5" fill="rgba(74,158,255,0.07)"/><circle cx="600.0" cy="630.0" r="1.5" fill="rgba(74,158,255,0.07)"/><circle cx="640.0" cy="630.0" r="1.5" fill="rgba(74,158,255,0.07)"/><circle cx="680.0" cy="630.0" r="1.5" fill="rgba(74,158,255,0.07)"/><circle cx="720.0" cy="630.0" r="1.5" fill="rgba(74,158,255,0.07)"/><circle cx="760.0" cy="630.0" r="1.5" fill="rgba(74,158,255,0.07)"/><circle cx="800.0" cy="630.0" r="1.5" fill="rgba(74,158,255,0.07)"/><circle cx="840.0" cy="630.0" r="1.5" fill="rgba(74,158,255,0.07)"/><circle cx="880.0" cy="630.0" r="1.5" fill="rgba(74,158,255,0.07)"/><circle cx="920.0" cy="630.0" r="1.5" fill="rgba(74,158,255,0.07)"/><circle cx="960.0" cy="630.0" r="1.5" fill="rgba(74,158,255,0.07)"/><circle cx="1000.0" cy="630.0" r="1.5" fill="rgba(74,158,255,0.07)"/><circle cx="1040.0" cy="630.0" r="1.5" fill="rgba(74,158,255,0.07)"/><circle cx="1080.0" cy="630.0" r="1.5" fill="rgba(74,158,255,0.07)"/><circle cx="1120.0" cy="630.0" r="1.5" fill="rgba(74,158,255,0.07)"/><circle cx="1160.0" cy="630.0" r="1.5" fill="rgba(74,158,255,0.07)"/><circle cx="1200.0" cy="630.0" r="1.5" fill="rgba(74,158,255,0.07)"/>
    
    <rect x="190" y="255" width="60" height="100" rx="10" fill="#22d68a" opacity="0.12" stroke="#22d68a" stroke-width="1.5" stroke-opacity="0.5"/>
    <rect x="202" y="267" width="36" height="60" rx="4" fill="#22d68a" opacity="0.08"/>
    <circle cx="220" cy="357" r="5" fill="#22d68a" opacity="0.4"/>
    <text x="220" y="397" font-family="Rajdhani,sans-serif" font-size="14" fill="#22d68a" text-anchor="middle" font-weight="600">REMOTE DEVICE</text>
    
    <rect x="940" y="260" width="80" height="110" rx="6" fill="#4a9eff" opacity="0.10" stroke="#4a9eff" stroke-width="1.5" stroke-opacity="0.5"/>
    <rect x="952" y="273" width="56" height="8" rx="2" fill="#4a9eff" opacity="0.3"/>
    <rect x="952" y="287" width="56" height="8" rx="2" fill="#4a9eff" opacity="0.2"/>
    <rect x="952" y="301" width="56" height="8" rx="2" fill="#4a9eff" opacity="0.15"/>
    <circle cx="1004" cy="277" r="3" fill="#22d68a" opacity="0.8"/>
    <text x="980" y="397" font-family="Rajdhani,sans-serif" font-size="14" fill="#4a9eff" text-anchor="middle" font-weight="600">NEXUSCONTROL</text>
    <line x1="255" y1="315" x2="935" y2="315" stroke="url(#tunnel)" stroke-width="2.5" opacity="0.7"/>
    <circle cx="220" cy="315" r="4" fill="#4a9eff" opacity="0.08"/><circle cx="283.3333333333333" cy="315" r="5.552914270615124" fill="#4a9eff" opacity="0.14"/><circle cx="346.66666666666663" cy="315" r="7" fill="#4a9eff" opacity="0.19"/><circle cx="410" cy="315" r="8.242640687119284" fill="#4a9eff" opacity="0.24"/><circle cx="473.3333333333333" cy="315" r="9.196152422706632" fill="#4a9eff" opacity="0.27"/><circle cx="536.6666666666667" cy="315" r="9.79555495773441" fill="#4a9eff" opacity="0.29"/><circle cx="600" cy="315" r="10" fill="#4a9eff" opacity="0.30"/><circle cx="663.3333333333334" cy="315" r="9.79555495773441" fill="#4a9eff" opacity="0.29"/><circle cx="726.6666666666666" cy="315" r="9.196152422706632" fill="#4a9eff" opacity="0.27"/><circle cx="790" cy="315" r="8.242640687119286" fill="#4a9eff" opacity="0.24"/><circle cx="853.3333333333334" cy="315" r="7" fill="#4a9eff" opacity="0.19"/><circle cx="916.6666666666666" cy="315" r="5.552914270615126" fill="#4a9eff" opacity="0.14"/><circle cx="980" cy="315" r="4.000000000000001" fill="#4a9eff" opacity="0.08"/>
    <rect x="510" y="297" width="180" height="36" rx="18" fill="#0c1830" stroke="#4a9eff" stroke-width="1" stroke-opacity="0.4"/>
    <text x="600" y="320" font-family="Rajdhani,sans-serif" font-size="13" fill="#4a9eff" text-anchor="middle" letter-spacing="1">adb connect 8.x.x.x:36822</text>
    <text x="600" y="582" font-family="Rajdhani,sans-serif" font-size="18" fill="#4a9eff" text-anchor="middle" opacity="0.6" letter-spacing="4">FRP TUNNEL · 三百公里外一键接入</text>
</svg>