<svg xmlns="http://www.w3.org/2000/svg" width="1200" height="630" viewBox="0 0 1200 630">
<defs>
  <style>@import url('https://fonts.googleapis.com/css2?family=Rajdhani:wght@600&amp;display=swap');</style>
  
    <radialGradient id="bg4" cx="50%" cy="50%" r="55%">
      <stop offset="0%" stop-color="#0d1c30"/>
      <stop offset="100%" stop-color="#080d18"/>
    </radialGradient>
</defs>

    <rect width="1200" height="630" fill="url(#bg4)"/>
    <circle cx="0.0" cy="0.0" r="1.5" fill="rgba(74,158,255,0.06)"/><circle cx="40.0" cy="0.0" r="1.5" fill="rgba(74,158,255,0.06)"/><circle cx="80.0" cy="0.0" r="1.5" fill="rgba(74,158,255,0.06)"/><circle cx="120.0" cy="0.0" r="1.5" fill="rgba(74,158,255,0.06)"/><circle cx="160.0" cy="0.0" r="1.5" fill="rgba(74,158,255,0.06)"/><circle cx="200.0" cy="0.0" r="1.5" fill="rgba(74,158,255,0.06)"/><circle cx="240.0" cy="0.0" r="1.5" fill="rgba(74,158,255,0.06)"/><circle cx="280.0" cy="0.0" r="1.5" fill="rgba(74,158,255,0.06)"/><circle cx="320.0" cy="0.0" r="1.5" fill="rgba(74,158,255,0.06)"/><circle cx="360.0" cy="0.0" r="1.5" fill="rgba(74,158,255,0.06)"/><circle cx="400.0" cy="0.0" r="1.5" fill="rgba(74,158,255,0.06)"/><circle cx="440.0" cy="0.0" r="1.5" fill="rgba(74,158,255,0.06)"/><circle cx="480.0" cy="0.0" r="1.5" fill="rgba(74,158,255,0.06)"/><circle cx="520.0" cy="0.0" r="1.5" fill="rgba(74,158,255,0.06)"/><circle cx="560.0" cy="0.0" r="1.5" fill="rgba(74,158,255,0.06)"/><circle cx="600.0" cy="0.0" r="1.5" fill="rgba(74,158,255,0.06)"/><circle cx="640.0" cy="0.0" r="1.5" fill="rgba(74,158,255,0.06)"/><circle cx="680.0" cy="0.0" r="1.5" fill="rgba(74,158,255,0.06)"/><circle cx="720.0" cy="0.0" r="1.5" fill="rgba(74,158,255,0.06)"/><circle cx="760.0" cy="0.0" r="1.5" fill="rgba(74,158,255,0.06)"/><circle cx="800.0" cy="0.0" r="1.5" fill="rgba(74,158,255,0.06)"/><circle cx="840.0" cy="0.0" r="1.5" fill="rgba(74,158,255,0.06)"/><circle cx="880.0" cy="0.0" r="1.5" fill="rgba(74,158,255,0.06)"/><circle cx="920.0" cy="0.0" r="1.5" fill="rgba(74,158,255,0.06)"/><circle cx="960.0" cy="0.0" r="1.5" fill="rgba(74,158,255,0.06)"/><circle cx="1000.0" cy="0.0" r="1.5" fill="rgba(74,158,255,0.06)"/><circle cx="1040.0" cy="0.0" r="1.5" fill="rgba(74,158,255,0.06)"/><circle cx="1080.0" cy="0.0" r="1.5" fill="rgba(74,158,255,0.06)"/><circle cx="1120.0" cy="0.0" r="1.5" fill="rgba(74,158,255,0.06)"/><circle cx="1160.0" cy="0.0" r="1.5" fill="rgba(74,158,255,0.06)"/><circle cx="1200.0" cy="0.0" r="1.5" fill="rgba(74,158,255,0.06)"/><circle cx="0.0" cy="39.4" r="1.5" fill="rgba(74,158,255,0.06)"/><circle cx="40.0" cy="39.4" r="1.5" fill="rgba(74,158,255,0.06)"/><circle cx="80.0" cy="39.4" r="1.5" fill="rgba(74,158,255,0.06)"/><circle cx="120.0" cy="39.4" r="1.5" fill="rgba(74,158,255,0.06)"/><circle cx="160.0" cy="39.4" r="1.5" fill="rgba(74,158,255,0.06)"/><circle cx="200.0" cy="39.4" r="1.5" fill="rgba(74,158,255,0.06)"/><circle cx="240.0" cy="39.4" r="1.5" fill="rgba(74,158,255,0.06)"/><circle cx="280.0" cy="39.4" r="1.5" fill="rgba(74,158,255,0.06)"/><circle cx="320.0" cy="39.4" r="1.5" fill="rgba(74,158,255,0.06)"/><circle cx="360.0" cy="39.4" r="1.5" fill="rgba(74,158,255,0.06)"/><circle cx="400.0" cy="39.4" r="1.5" fill="rgba(74,158,255,0.06)"/><circle cx="440.0" cy="39.4" r="1.5" fill="rgba(74,158,255,0.06)"/><circle cx="480.0" cy="39.4" r="1.5" fill="rgba(74,158,255,0.06)"/><circle cx="520.0" cy="39.4" r="1.5" fill="rgba(74,158,255,0.06)"/><circle cx="560.0" cy="39.4" r="1.5" fill="rgba(74,158,255,0.06)"/><circle cx="600.0" cy="39.4" r="1.5" fill="rgba(74,158,255,0.06)"/><circle cx="640.0" cy="39.4" r="1.5" fill="rgba(74,158,255,0.06)"/><circle cx="680.0" cy="39.4" r="1.5" fill="rgba(74,158,255,0.06)"/><circle cx="720.0" cy="39.4" r="1.5" fill="rgba(74,158,255,0.06)"/><circle cx="760.0" cy="39.4" r="1.5" fill="rgba(74,158,255,0.06)"/><circle cx="800.0" cy="39.4" r="1.5" fill="rgba(74,158,255,0.06)"/><circle cx="840.0" cy="39.4" r="1.5" fill="rgba(74,158,255,0.06)"/><circle cx="880.0" cy="39.4" r="1.5" fill="rgba(74,158,255,0.06)"/><circle cx="920.0" cy="39.4" r="1.5" fill="rgba(74,158,255,0.06)"/><circle cx="960.0" cy="39.4" r="1.5" fill="rgba(74,158,255,0.06)"/><circle cx="1000.0" cy="39.4" r="1.5" fill="rgba(74,158,255,0.06)"/><circle cx="1040.0" cy="39.4" r="1.5" fill="rgba(74,158,255,0.06)"/><circle cx="1080.0" cy="39.4" r="1.5" fill="rgba(74,158,255,0.06)"/><circle cx="1120.0" cy="39.4" r="1.5" fill="rgba(74,158,255,0.06)"/><circle cx="1160.0" cy="39.4" r="1.5" fill="rgba(74,158,255,0.06)"/><circle cx="1200.0" cy="39.4" r="1.5" fill="rgba(74,158,255,0.06)"/><circle cx="0.0" cy="78.8" r="1.5" fill="rgba(74,158,255,0.06)"/><circle cx="40.0" cy="78.8" r="1.5" fill="rgba(74,158,255,0.06)"/><circle cx="80.0" cy="78.8" r="1.5" fill="rgba(74,158,255,0.06)"/><circle cx="120.0" cy="78.8" r="1.5" fill="rgba(74,158,255,0.06)"/><circle cx="160.0" cy="78.8" r="1.5" fill="rgba(74,158,255,0.06)"/><circle cx="200.0" cy="78.8" r="1.5" fill="rgba(74,158,255,0.06)"/><circle cx="240.0" cy="78.8" r="1.5" fill="rgba(74,158,255,0.06)"/><circle cx="280.0" cy="78.8" r="1.5" fill="rgba(74,158,255,0.06)"/><circle cx="320.0" cy="78.8" r="1.5" fill="rgba(74,158,255,0.06)"/><circle cx="360.0" cy="78.8" r="1.5" fill="rgba(74,158,255,0.06)"/><circle cx="400.0" cy="78.8" r="1.5" fill="rgba(74,158,255,0.06)"/><circle cx="440.0" cy="78.8" r="1.5" fill="rgba(74,158,255,0.06)"/><circle cx="480.0" cy="78.8" r="1.5" fill="rgba(74,158,255,0.06)"/><circle cx="520.0" cy="78.8" r="1.5" fill="rgba(74,158,255,0.06)"/><circle cx="560.0" cy="78.8" r="1.5" fill="rgba(74,158,255,0.06)"/><circle cx="600.0" cy="78.8" r="1.5" fill="rgba(74,158,255,0.06)"/><circle cx="640.0" cy="78.8" r="1.5" fill="rgba(74,158,255,0.06)"/><circle cx="680.0" cy="78.8" r="1.5" fill="rgba(74,158,255,0.06)"/><circle cx="720.0" cy="78.8" r="1.5" fill="rgba(74,158,255,0.06)"/><circle cx="760.0" cy="78.8" r="1.5" fill="rgba(74,158,255,0.06)"/><circle cx="800.0" cy="78.8" r="1.5" fill="rgba(74,158,255,0.06)"/><circle cx="840.0" cy="78.8" r="1.5" fill="rgba(74,158,255,0.06)"/><circle cx="880.0" cy="78.8" r="1.5" fill="rgba(74,158,255,0.06)"/><circle cx="920.0" cy="78.8" r="1.5" fill="rgba(74,158,255,0.06)"/><circle cx="960.0" cy="78.8" r="1.5" fill="rgba(74,158,255,0.06)"/><circle cx="1000.0" cy="78.8" r="1.5" fill="rgba(74,158,255,0.06)"/><circle cx="1040.0" cy="78.8" r="1.5" fill="rgba(74,158,255,0.06)"/><circle cx="1080.0" cy="78.8" r="1.5" fill="rgba(74,158,255,0.06)"/><circle cx="1120.0" cy="78.8" r="1.5" fill="rgba(74,158,255,0.06)"/><circle cx="1160.0" cy="78.8" r="1.5" fill="rgba(74,158,255,0.06)"/><circle cx="1200.0" cy="78.8" r="1.5" fill="rgba(74,158,255,0.06)"/><circle cx="0.0" cy="118.1" r="1.5" fill="rgba(74,158,255,0.06)"/><circle cx="40.0" cy="118.1" r="1.5" fill="rgba(74,158,255,0.06)"/><circle cx="80.0" cy="118.1" r="1.5" fill="rgba(74,158,255,0.06)"/><circle cx="120.0" cy="118.1" r="1.5" fill="rgba(74,158,255,0.06)"/><circle cx="160.0" cy="118.1" r="1.5" fill="rgba(74,158,255,0.06)"/><circle cx="200.0" cy="118.1" r="1.5" fill="rgba(74,158,255,0.06)"/><circle cx="240.0" cy="118.1" r="1.5" fill="rgba(74,158,255,0.06)"/><circle cx="280.0" cy="118.1" r="1.5" fill="rgba(74,158,255,0.06)"/><circle cx="320.0" cy="118.1" r="1.5" fill="rgba(74,158,255,0.06)"/><circle cx="360.0" cy="118.1" r="1.5" fill="rgba(74,158,255,0.06)"/><circle cx="400.0" cy="118.1" r="1.5" fill="rgba(74,158,255,0.06)"/><circle cx="440.0" cy="118.1" r="1.5" fill="rgba(74,158,255,0.06)"/><circle cx="480.0" cy="118.1" r="1.5" fill="rgba(74,158,255,0.06)"/><circle cx="520.0" cy="118.1" r="1.5" fill="rgba(74,158,255,0.06)"/><circle cx="560.0" cy="118.1" r="1.5" fill="rgba(74,158,255,0.06)"/><circle cx="600.0" cy="118.1" r="1.5" fill="rgba(74,158,255,0.06)"/><circle cx="640.0" cy="118.1" r="1.5" fill="rgba(74,158,255,0.06)"/><circle cx="680.0" cy="118.1" r="1.5" fill="rgba(74,158,255,0.06)"/><circle cx="720.0" cy="118.1" r="1.5" fill="rgba(74,158,255,0.06)"/><circle cx="760.0" cy="118.1" r="1.5" fill="rgba(74,158,255,0.06)"/><circle cx="800.0" cy="118.1" r="1.5" fill="rgba(74,158,255,0.06)"/><circle cx="840.0" cy="118.1" r="1.5" fill="rgba(74,158,255,0.06)"/><circle cx="880.0" cy="118.1" r="1.5" fill="rgba(74,158,255,0.06)"/><circle cx="920.0" cy="118.1" r="1.5" fill="rgba(74,158,255,0.06)"/><circle cx="960.0" cy="118.1" r="1.5" fill="rgba(74,158,255,0.06)"/><circle cx="1000.0" cy="118.1" r="1.5" fill="rgba(74,158,255,0.06)"/><circle cx="1040.0" cy="118.1" r="1.5" fill="rgba(74,158,255,0.06)"/><circle cx="1080.0" cy="118.1" r="1.5" fill="rgba(74,158,255,0.06)"/><circle cx="1120.0" cy="118.1" r="1.5" fill="rgba(74,158,255,0.06)"/><circle cx="1160.0" cy="118.1" r="1.5" fill="rgba(74,158,255,0.06)"/><circle cx="1200.0" cy="118.1" r="1.5" fill="rgba(74,158,255,0.06)"/><circle cx="0.0" cy="157.5" r="1.5" fill="rgba(74,158,255,0.06)"/><circle cx="40.0" cy="157.5" r="1.5" fill="rgba(74,158,255,0.06)"/><circle cx="80.0" cy="157.5" r="1.5" fill="rgba(74,158,255,0.06)"/><circle cx="120.0" cy="157.5" r="1.5" fill="rgba(74,158,255,0.06)"/><circle cx="160.0" cy="157.5" r="1.5" fill="rgba(74,158,255,0.06)"/><circle cx="200.0" cy="157.5" r="1.5" fill="rgba(74,158,255,0.06)"/><circle cx="240.0" cy="157.5" r="1.5" fill="rgba(74,158,255,0.06)"/><circle cx="280.0" cy="157.5" r="1.5" fill="rgba(74,158,255,0.06)"/><circle cx="320.0" cy="157.5" r="1.5" fill="rgba(74,158,255,0.06)"/><circle cx="360.0" cy="157.5" r="1.5" fill="rgba(74,158,255,0.06)"/><circle cx="400.0" cy="157.5" r="1.5" fill="rgba(74,158,255,0.06)"/><circle cx="440.0" cy="157.5" r="1.5" fill="rgba(74,158,255,0.06)"/><circle cx="480.0" cy="157.5" r="1.5" fill="rgba(74,158,255,0.06)"/><circle cx="520.0" cy="157.5" r="1.5" fill="rgba(74,158,255,0.06)"/><circle cx="560.0" cy="157.5" r="1.5" fill="rgba(74,158,255,0.06)"/><circle cx="600.0" cy="157.5" r="1.5" fill="rgba(74,158,255,0.06)"/><circle cx="640.0" cy="157.5" r="1.5" fill="rgba(74,158,255,0.06)"/><circle cx="680.0" cy="157.5" r="1.5" fill="rgba(74,158,255,0.06)"/><circle cx="720.0" cy="157.5" r="1.5" fill="rgba(74,158,255,0.06)"/><circle cx="760.0" cy="157.5" r="1.5" fill="rgba(74,158,255,0.06)"/><circle cx="800.0" cy="157.5" r="1.5" fill="rgba(74,158,255,0.06)"/><circle cx="840.0" cy="157.5" r="1.5" fill="rgba(74,158,255,0.06)"/><circle cx="880.0" cy="157.5" r="1.5" fill="rgba(74,158,255,0.06)"/><circle cx="920.0" cy="157.5" r="1.5" fill="rgba(74,158,255,0.06)"/><circle cx="960.0" cy="157.5" r="1.5" fill="rgba(74,158,255,0.06)"/><circle cx="1000.0" cy="157.5" r="1.5" fill="rgba(74,158,255,0.06)"/><circle cx="1040.0" cy="157.5" r="1.5" fill="rgba(74,158,255,0.06)"/><circle cx="1080.0" cy="157.5" r="1.5" fill="rgba(74,158,255,0.06)"/><circle cx="1120.0" cy="157.5" r="1.5" fill="rgba(74,158,255,0.06)"/><circle cx="1160.0" cy="157.5" r="1.5" fill="rgba(74,158,255,0.06)"/><circle cx="1200.0" cy="157.5" r="1.5" fill="rgba(74,158,255,0.06)"/><circle cx="0.0" cy="196.9" r="1.5" fill="rgba(74,158,255,0.06)"/><circle cx="40.0" cy="196.9" r="1.5" fill="rgba(74,158,255,0.06)"/><circle cx="80.0" cy="196.9" r="1.5" fill="rgba(74,158,255,0.06)"/><circle cx="120.0" cy="196.9" r="1.5" fill="rgba(74,158,255,0.06)"/><circle cx="160.0" cy="196.9" r="1.5" fill="rgba(74,158,255,0.06)"/><circle cx="200.0" cy="196.9" r="1.5" fill="rgba(74,158,255,0.06)"/><circle cx="240.0" cy="196.9" r="1.5" fill="rgba(74,158,255,0.06)"/><circle cx="280.0" cy="196.9" r="1.5" fill="rgba(74,158,255,0.06)"/><circle cx="320.0" cy="196.9" r="1.5" fill="rgba(74,158,255,0.06)"/><circle cx="360.0" cy="196.9" r="1.5" fill="rgba(74,158,255,0.06)"/><circle cx="400.0" cy="196.9" r="1.5" fill="rgba(74,158,255,0.06)"/><circle cx="440.0" cy="196.9" r="1.5" fill="rgba(74,158,255,0.06)"/><circle cx="480.0" cy="196.9" r="1.5" fill="rgba(74,158,255,0.06)"/><circle cx="520.0" cy="196.9" r="1.5" fill="rgba(74,158,255,0.06)"/><circle cx="560.0" cy="196.9" r="1.5" fill="rgba(74,158,255,0.06)"/><circle cx="600.0" cy="196.9" r="1.5" fill="rgba(74,158,255,0.06)"/><circle cx="640.0" cy="196.9" r="1.5" fill="rgba(74,158,255,0.06)"/><circle cx="680.0" cy="196.9" r="1.5" fill="rgba(74,158,255,0.06)"/><circle cx="720.0" cy="196.9" r="1.5" fill="rgba(74,158,255,0.06)"/><circle cx="760.0" cy="196.9" r="1.5" fill="rgba(74,158,255,0.06)"/><circle cx="800.0" cy="196.9" r="1.5" fill="rgba(74,158,255,0.06)"/><circle cx="840.0" cy="196.9" r="1.5" fill="rgba(74,158,255,0.06)"/><circle cx="880.0" cy="196.9" r="1.5" fill="rgba(74,158,255,0.06)"/><circle cx="920.0" cy="196.9" r="1.5" fill="rgba(74,158,255,0.06)"/><circle cx="960.0" cy="196.9" r="1.5" fill="rgba(74,158,255,0.06)"/><circle cx="1000.0" cy="196.9" r="1.5" fill="rgba(74,158,255,0.06)"/><circle cx="1040.0" cy="196.9" r="1.5" fill="rgba(74,158,255,0.06)"/><circle cx="1080.0" cy="196.9" r="1.5" fill="rgba(74,158,255,0.06)"/><circle cx="1120.0" cy="196.9" r="1.5" fill="rgba(74,158,255,0.06)"/><circle cx="1160.0" cy="196.9" r="1.5" fill="rgba(74,158,255,0.06)"/><circle cx="1200.0" cy="196.9" r="1.5" fill="rgba(74,158,255,0.06)"/><circle cx="0.0" cy="236.3" r="1.5" fill="rgba(74,158,255,0.06)"/><circle cx="40.0" cy="236.3" r="1.5" fill="rgba(74,158,255,0.06)"/><circle cx="80.0" cy="236.3" r="1.5" fill="rgba(74,158,255,0.06)"/><circle cx="120.0" cy="236.3" r="1.5" fill="rgba(74,158,255,0.06)"/><circle cx="160.0" cy="236.3" r="1.5" fill="rgba(74,158,255,0.06)"/><circle cx="200.0" cy="236.3" r="1.5" fill="rgba(74,158,255,0.06)"/><circle cx="240.0" cy="236.3" r="1.5" fill="rgba(74,158,255,0.06)"/><circle cx="280.0" cy="236.3" r="1.5" fill="rgba(74,158,255,0.06)"/><circle cx="320.0" cy="236.3" r="1.5" fill="rgba(74,158,255,0.06)"/><circle cx="360.0" cy="236.3" r="1.5" fill="rgba(74,158,255,0.06)"/><circle cx="400.0" cy="236.3" r="1.5" fill="rgba(74,158,255,0.06)"/><circle cx="440.0" cy="236.3" r="1.5" fill="rgba(74,158,255,0.06)"/><circle cx="480.0" cy="236.3" r="1.5" fill="rgba(74,158,255,0.06)"/><circle cx="520.0" cy="236.3" r="1.5" fill="rgba(74,158,255,0.06)"/><circle cx="560.0" cy="236.3" r="1.5" fill="rgba(74,158,255,0.06)"/><circle cx="600.0" cy="236.3" r="1.5" fill="rgba(74,158,255,0.06)"/><circle cx="640.0" cy="236.3" r="1.5" fill="rgba(74,158,255,0.06)"/><circle cx="680.0" cy="236.3" r="1.5" fill="rgba(74,158,255,0.06)"/><circle cx="720.0" cy="236.3" r="1.5" fill="rgba(74,158,255,0.06)"/><circle cx="760.0" cy="236.3" r="1.5" fill="rgba(74,158,255,0.06)"/><circle cx="800.0" cy="236.3" r="1.5" fill="rgba(74,158,255,0.06)"/><circle cx="840.0" cy="236.3" r="1.5" fill="rgba(74,158,255,0.06)"/><circle cx="880.0" cy="236.3" r="1.5" fill="rgba(74,158,255,0.06)"/><circle cx="920.0" cy="236.3" r="1.5" fill="rgba(74,158,255,0.06)"/><circle cx="960.0" cy="236.3" r="1.5" fill="rgba(74,158,255,0.06)"/><circle cx="1000.0" cy="236.3" r="1.5" fill="rgba(74,158,255,0.06)"/><circle cx="1040.0" cy="236.3" r="1.5" fill="rgba(74,158,255,0.06)"/><circle cx="1080.0" cy="236.3" r="1.5" fill="rgba(74,158,255,0.06)"/><circle cx="1120.0" cy="236.3" r="1.5" fill="rgba(74,158,255,0.06)"/><circle cx="1160.0" cy="236.3" r="1.5" fill="rgba(74,158,255,0.06)"/><circle cx="1200.0" cy="236.3" r="1.5" fill="rgba(74,158,255,0.06)"/><circle cx="0.0" cy="275.6" r="1.5" fill="rgba(74,158,255,0.06)"/><circle cx="40.0" cy="275.6" r="1.5" fill="rgba(74,158,255,0.06)"/><circle cx="80.0" cy="275.6" r="1.5" fill="rgba(74,158,255,0.06)"/><circle cx="120.0" cy="275.6" r="1.5" fill="rgba(74,158,255,0.06)"/><circle cx="160.0" cy="275.6" r="1.5" fill="rgba(74,158,255,0.06)"/><circle cx="200.0" cy="275.6" r="1.5" fill="rgba(74,158,255,0.06)"/><circle cx="240.0" cy="275.6" r="1.5" fill="rgba(74,158,255,0.06)"/><circle cx="280.0" cy="275.6" r="1.5" fill="rgba(74,158,255,0.06)"/><circle cx="320.0" cy="275.6" r="1.5" fill="rgba(74,158,255,0.06)"/><circle cx="360.0" cy="275.6" r="1.5" fill="rgba(74,158,255,0.06)"/><circle cx="400.0" cy="275.6" r="1.5" fill="rgba(74,158,255,0.06)"/><circle cx="440.0" cy="275.6" r="1.5" fill="rgba(74,158,255,0.06)"/><circle cx="480.0" cy="275.6" r="1.5" fill="rgba(74,158,255,0.06)"/><circle cx="520.0" cy="275.6" r="1.5" fill="rgba(74,158,255,0.06)"/><circle cx="560.0" cy="275.6" r="1.5" fill="rgba(74,158,255,0.06)"/><circle cx="600.0" cy="275.6" r="1.5" fill="rgba(74,158,255,0.06)"/><circle cx="640.0" cy="275.6" r="1.5" fill="rgba(74,158,255,0.06)"/><circle cx="680.0" cy="275.6" r="1.5" fill="rgba(74,158,255,0.06)"/><circle cx="720.0" cy="275.6" r="1.5" fill="rgba(74,158,255,0.06)"/><circle cx="760.0" cy="275.6" r="1.5" fill="rgba(74,158,255,0.06)"/><circle cx="800.0" cy="275.6" r="1.5" fill="rgba(74,158,255,0.06)"/><circle cx="840.0" cy="275.6" r="1.5" fill="rgba(74,158,255,0.06)"/><circle cx="880.0" cy="275.6" r="1.5" fill="rgba(74,158,255,0.06)"/><circle cx="920.0" cy="275.6" r="1.5" fill="rgba(74,158,255,0.06)"/><circle cx="960.0" cy="275.6" r="1.5" fill="rgba(74,158,255,0.06)"/><circle cx="1000.0" cy="275.6" r="1.5" fill="rgba(74,158,255,0.06)"/><circle cx="1040.0" cy="275.6" r="1.5" fill="rgba(74,158,255,0.06)"/><circle cx="1080.0" cy="275.6" r="1.5" fill="rgba(74,158,255,0.06)"/><circle cx="1120.0" cy="275.6" r="1.5" fill="rgba(74,158,255,0.06)"/><circle cx="1160.0" cy="275.6" r="1.5" fill="rgba(74,158,255,0.06)"/><circle cx="1200.0" cy="275.6" r="1.5" fill="rgba(74,158,255,0.06)"/><circle cx="0.0" cy="315.0" r="1.5" fill="rgba(74,158,255,0.06)"/><circle cx="40.0" cy="315.0" r="1.5" fill="rgba(74,158,255,0.06)"/><circle cx="80.0" cy="315.0" r="1.5" fill="rgba(74,158,255,0.06)"/><circle cx="120.0" cy="315.0" r="1.5" fill="rgba(74,158,255,0.06)"/><circle cx="160.0" cy="315.0" r="1.5" fill="rgba(74,158,255,0.06)"/><circle cx="200.0" cy="315.0" r="1.5" fill="rgba(74,158,255,0.06)"/><circle cx="240.0" cy="315.0" r="1.5" fill="rgba(74,158,255,0.06)"/><circle cx="280.0" cy="315.0" r="1.5" fill="rgba(74,158,255,0.06)"/><circle cx="320.0" cy="315.0" r="1.5" fill="rgba(74,158,255,0.06)"/><circle cx="360.0" cy="315.0" r="1.5" fill="rgba(74,158,255,0.06)"/><circle cx="400.0" cy="315.0" r="1.5" fill="rgba(74,158,255,0.06)"/><circle cx="440.0" cy="315.0" r="1.5" fill="rgba(74,158,255,0.06)"/><circle cx="480.0" cy="315.0" r="1.5" fill="rgba(74,158,255,0.06)"/><circle cx="520.0" cy="315.0" r="1.5" fill="rgba(74,158,255,0.06)"/><circle cx="560.0" cy="315.0" r="1.5" fill="rgba(74,158,255,0.06)"/><circle cx="600.0" cy="315.0" r="1.5" fill="rgba(74,158,255,0.06)"/><circle cx="640.0" cy="315.0" r="1.5" fill="rgba(74,158,255,0.06)"/><circle cx="680.0" cy="315.0" r="1.5" fill="rgba(74,158,255,0.06)"/><circle cx="720.0" cy="315.0" r="1.5" fill="rgba(74,158,255,0.06)"/><circle cx="760.0" cy="315.0" r="1.5" fill="rgba(74,158,255,0.06)"/><circle cx="800.0" cy="315.0" r="1.5" fill="rgba(74,158,255,0.06)"/><circle cx="840.0" cy="315.0" r="1.5" fill="rgba(74,158,255,0.06)"/><circle cx="880.0" cy="315.0" r="1.5" fill="rgba(74,158,255,0.06)"/><circle cx="920.0" cy="315.0" r="1.5" fill="rgba(74,158,255,0.06)"/><circle cx="960.0" cy="315.0" r="1.5" fill="rgba(74,158,255,0.06)"/><circle cx="1000.0" cy="315.0" r="1.5" fill="rgba(74,158,255,0.06)"/><circle cx="1040.0" cy="315.0" r="1.5" fill="rgba(74,158,255,0.06)"/><circle cx="1080.0" cy="315.0" r="1.5" fill="rgba(74,158,255,0.06)"/><circle cx="1120.0" cy="315.0" r="1.5" fill="rgba(74,158,255,0.06)"/><circle cx="1160.0" cy="315.0" r="1.5" fill="rgba(74,158,255,0.06)"/><circle cx="1200.0" cy="315.0" r="1.5" fill="rgba(74,158,255,0.06)"/><circle cx="0.0" cy="354.4" r="1.5" fill="rgba(74,158,255,0.06)"/><circle cx="40.0" cy="354.4" r="1.5" fill="rgba(74,158,255,0.06)"/><circle cx="80.0" cy="354.4" r="1.5" fill="rgba(74,158,255,0.06)"/><circle cx="120.0" cy="354.4" r="1.5" fill="rgba(74,158,255,0.06)"/><circle cx="160.0" cy="354.4" r="1.5" fill="rgba(74,158,255,0.06)"/><circle cx="200.0" cy="354.4" r="1.5" fill="rgba(74,158,255,0.06)"/><circle cx="240.0" cy="354.4" r="1.5" fill="rgba(74,158,255,0.06)"/><circle cx="280.0" cy="354.4" r="1.5" fill="rgba(74,158,255,0.06)"/><circle cx="320.0" cy="354.4" r="1.5" fill="rgba(74,158,255,0.06)"/><circle cx="360.0" cy="354.4" r="1.5" fill="rgba(74,158,255,0.06)"/><circle cx="400.0" cy="354.4" r="1.5" fill="rgba(74,158,255,0.06)"/><circle cx="440.0" cy="354.4" r="1.5" fill="rgba(74,158,255,0.06)"/><circle cx="480.0" cy="354.4" r="1.5" fill="rgba(74,158,255,0.06)"/><circle cx="520.0" cy="354.4" r="1.5" fill="rgba(74,158,255,0.06)"/><circle cx="560.0" cy="354.4" r="1.5" fill="rgba(74,158,255,0.06)"/><circle cx="600.0" cy="354.4" r="1.5" fill="rgba(74,158,255,0.06)"/><circle cx="640.0" cy="354.4" r="1.5" fill="rgba(74,158,255,0.06)"/><circle cx="680.0" cy="354.4" r="1.5" fill="rgba(74,158,255,0.06)"/><circle cx="720.0" cy="354.4" r="1.5" fill="rgba(74,158,255,0.06)"/><circle cx="760.0" cy="354.4" r="1.5" fill="rgba(74,158,255,0.06)"/><circle cx="800.0" cy="354.4" r="1.5" fill="rgba(74,158,255,0.06)"/><circle cx="840.0" cy="354.4" r="1.5" fill="rgba(74,158,255,0.06)"/><circle cx="880.0" cy="354.4" r="1.5" fill="rgba(74,158,255,0.06)"/><circle cx="920.0" cy="354.4" r="1.5" fill="rgba(74,158,255,0.06)"/><circle cx="960.0" cy="354.4" r="1.5" fill="rgba(74,158,255,0.06)"/><circle cx="1000.0" cy="354.4" r="1.5" fill="rgba(74,158,255,0.06)"/><circle cx="1040.0" cy="354.4" r="1.5" fill="rgba(74,158,255,0.06)"/><circle cx="1080.0" cy="354.4" r="1.5" fill="rgba(74,158,255,0.06)"/><circle cx="1120.0" cy="354.4" r="1.5" fill="rgba(74,158,255,0.06)"/><circle cx="1160.0" cy="354.4" r="1.5" fill="rgba(74,158,255,0.06)"/><circle cx="1200.0" cy="354.4" r="1.5" fill="rgba(74,158,255,0.06)"/><circle cx="0.0" cy="393.8" r="1.5" fill="rgba(74,158,255,0.06)"/><circle cx="40.0" cy="393.8" r="1.5" fill="rgba(74,158,255,0.06)"/><circle cx="80.0" cy="393.8" r="1.5" fill="rgba(74,158,255,0.06)"/><circle cx="120.0" cy="393.8" r="1.5" fill="rgba(74,158,255,0.06)"/><circle cx="160.0" cy="393.8" r="1.5" fill="rgba(74,158,255,0.06)"/><circle cx="200.0" cy="393.8" r="1.5" fill="rgba(74,158,255,0.06)"/><circle cx="240.0" cy="393.8" r="1.5" fill="rgba(74,158,255,0.06)"/><circle cx="280.0" cy="393.8" r="1.5" fill="rgba(74,158,255,0.06)"/><circle cx="320.0" cy="393.8" r="1.5" fill="rgba(74,158,255,0.06)"/><circle cx="360.0" cy="393.8" r="1.5" fill="rgba(74,158,255,0.06)"/><circle cx="400.0" cy="393.8" r="1.5" fill="rgba(74,158,255,0.06)"/><circle cx="440.0" cy="393.8" r="1.5" fill="rgba(74,158,255,0.06)"/><circle cx="480.0" cy="393.8" r="1.5" fill="rgba(74,158,255,0.06)"/><circle cx="520.0" cy="393.8" r="1.5" fill="rgba(74,158,255,0.06)"/><circle cx="560.0" cy="393.8" r="1.5" fill="rgba(74,158,255,0.06)"/><circle cx="600.0" cy="393.8" r="1.5" fill="rgba(74,158,255,0.06)"/><circle cx="640.0" cy="393.8" r="1.5" fill="rgba(74,158,255,0.06)"/><circle cx="680.0" cy="393.8" r="1.5" fill="rgba(74,158,255,0.06)"/><circle cx="720.0" cy="393.8" r="1.5" fill="rgba(74,158,255,0.06)"/><circle cx="760.0" cy="393.8" r="1.5" fill="rgba(74,158,255,0.06)"/><circle cx="800.0" cy="393.8" r="1.5" fill="rgba(74,158,255,0.06)"/><circle cx="840.0" cy="393.8" r="1.5" fill="rgba(74,158,255,0.06)"/><circle cx="880.0" cy="393.8" r="1.5" fill="rgba(74,158,255,0.06)"/><circle cx="920.0" cy="393.8" r="1.5" fill="rgba(74,158,255,0.06)"/><circle cx="960.0" cy="393.8" r="1.5" fill="rgba(74,158,255,0.06)"/><circle cx="1000.0" cy="393.8" r="1.5" fill="rgba(74,158,255,0.06)"/><circle cx="1040.0" cy="393.8" r="1.5" fill="rgba(74,158,255,0.06)"/><circle cx="1080.0" cy="393.8" r="1.5" fill="rgba(74,158,255,0.06)"/><circle cx="1120.0" cy="393.8" r="1.5" fill="rgba(74,158,255,0.06)"/><circle cx="1160.0" cy="393.8" r="1.5" fill="rgba(74,158,255,0.06)"/><circle cx="1200.0" cy="393.8" r="1.5" fill="rgba(74,158,255,0.06)"/><circle cx="0.0" cy="433.1" r="1.5" fill="rgba(74,158,255,0.06)"/><circle cx="40.0" cy="433.1" r="1.5" fill="rgba(74,158,255,0.06)"/><circle cx="80.0" cy="433.1" r="1.5" fill="rgba(74,158,255,0.06)"/><circle cx="120.0" cy="433.1" r="1.5" fill="rgba(74,158,255,0.06)"/><circle cx="160.0" cy="433.1" r="1.5" fill="rgba(74,158,255,0.06)"/><circle cx="200.0" cy="433.1" r="1.5" fill="rgba(74,158,255,0.06)"/><circle cx="240.0" cy="433.1" r="1.5" fill="rgba(74,158,255,0.06)"/><circle cx="280.0" cy="433.1" r="1.5" fill="rgba(74,158,255,0.06)"/><circle cx="320.0" cy="433.1" r="1.5" fill="rgba(74,158,255,0.06)"/><circle cx="360.0" cy="433.1" r="1.5" fill="rgba(74,158,255,0.06)"/><circle cx="400.0" cy="433.1" r="1.5" fill="rgba(74,158,255,0.06)"/><circle cx="440.0" cy="433.1" r="1.5" fill="rgba(74,158,255,0.06)"/><circle cx="480.0" cy="433.1" r="1.5" fill="rgba(74,158,255,0.06)"/><circle cx="520.0" cy="433.1" r="1.5" fill="rgba(74,158,255,0.06)"/><circle cx="560.0" cy="433.1" r="1.5" fill="rgba(74,158,255,0.06)"/><circle cx="600.0" cy="433.1" r="1.5" fill="rgba(74,158,255,0.06)"/><circle cx="640.0" cy="433.1" r="1.5" fill="rgba(74,158,255,0.06)"/><circle cx="680.0" cy="433.1" r="1.5" fill="rgba(74,158,255,0.06)"/><circle cx="720.0" cy="433.1" r="1.5" fill="rgba(74,158,255,0.06)"/><circle cx="760.0" cy="433.1" r="1.5" fill="rgba(74,158,255,0.06)"/><circle cx="800.0" cy="433.1" r="1.5" fill="rgba(74,158,255,0.06)"/><circle cx="840.0" cy="433.1" r="1.5" fill="rgba(74,158,255,0.06)"/><circle cx="880.0" cy="433.1" r="1.5" fill="rgba(74,158,255,0.06)"/><circle cx="920.0" cy="433.1" r="1.5" fill="rgba(74,158,255,0.06)"/><circle cx="960.0" cy="433.1" r="1.5" fill="rgba(74,158,255,0.06)"/><circle cx="1000.0" cy="433.1" r="1.5" fill="rgba(74,158,255,0.06)"/><circle cx="1040.0" cy="433.1" r="1.5" fill="rgba(74,158,255,0.06)"/><circle cx="1080.0" cy="433.1" r="1.5" fill="rgba(74,158,255,0.06)"/><circle cx="1120.0" cy="433.1" r="1.5" fill="rgba(74,158,255,0.06)"/><circle cx="1160.0" cy="433.1" r="1.5" fill="rgba(74,158,255,0.06)"/><circle cx="1200.0" cy="433.1" r="1.5" fill="rgba(74,158,255,0.06)"/><circle cx="0.0" cy="472.5" r="1.5" fill="rgba(74,158,255,0.06)"/><circle cx="40.0" cy="472.5" r="1.5" fill="rgba(74,158,255,0.06)"/><circle cx="80.0" cy="472.5" r="1.5" fill="rgba(74,158,255,0.06)"/><circle cx="120.0" cy="472.5" r="1.5" fill="rgba(74,158,255,0.06)"/><circle cx="160.0" cy="472.5" r="1.5" fill="rgba(74,158,255,0.06)"/><circle cx="200.0" cy="472.5" r="1.5" fill="rgba(74,158,255,0.06)"/><circle cx="240.0" cy="472.5" r="1.5" fill="rgba(74,158,255,0.06)"/><circle cx="280.0" cy="472.5" r="1.5" fill="rgba(74,158,255,0.06)"/><circle cx="320.0" cy="472.5" r="1.5" fill="rgba(74,158,255,0.06)"/><circle cx="360.0" cy="472.5" r="1.5" fill="rgba(74,158,255,0.06)"/><circle cx="400.0" cy="472.5" r="1.5" fill="rgba(74,158,255,0.06)"/><circle cx="440.0" cy="472.5" r="1.5" fill="rgba(74,158,255,0.06)"/><circle cx="480.0" cy="472.5" r="1.5" fill="rgba(74,158,255,0.06)"/><circle cx="520.0" cy="472.5" r="1.5" fill="rgba(74,158,255,0.06)"/><circle cx="560.0" cy="472.5" r="1.5" fill="rgba(74,158,255,0.06)"/><circle cx="600.0" cy="472.5" r="1.5" fill="rgba(74,158,255,0.06)"/><circle cx="640.0" cy="472.5" r="1.5" fill="rgba(74,158,255,0.06)"/><circle cx="680.0" cy="472.5" r="1.5" fill="rgba(74,158,255,0.06)"/><circle cx="720.0" cy="472.5" r="1.5" fill="rgba(74,158,255,0.06)"/><circle cx="760.0" cy="472.5" r="1.5" fill="rgba(74,158,255,0.06)"/><circle cx="800.0" cy="472.5" r="1.5" fill="rgba(74,158,255,0.06)"/><circle cx="840.0" cy="472.5" r="1.5" fill="rgba(74,158,255,0.06)"/><circle cx="880.0" cy="472.5" r="1.5" fill="rgba(74,158,255,0.06)"/><circle cx="920.0" cy="472.5" r="1.5" fill="rgba(74,158,255,0.06)"/><circle cx="960.0" cy="472.5" r="1.5" fill="rgba(74,158,255,0.06)"/><circle cx="1000.0" cy="472.5" r="1.5" fill="rgba(74,158,255,0.06)"/><circle cx="1040.0" cy="472.5" r="1.5" fill="rgba(74,158,255,0.06)"/><circle cx="1080.0" cy="472.5" r="1.5" fill="rgba(74,158,255,0.06)"/><circle cx="1120.0" cy="472.5" r="1.5" fill="rgba(74,158,255,0.06)"/><circle cx="1160.0" cy="472.5" r="1.5" fill="rgba(74,158,255,0.06)"/><circle cx="1200.0" cy="472.5" r="1.5" fill="rgba(74,158,255,0.06)"/><circle cx="0.0" cy="511.9" r="1.5" fill="rgba(74,158,255,0.06)"/><circle cx="40.0" cy="511.9" r="1.5" fill="rgba(74,158,255,0.06)"/><circle cx="80.0" cy="511.9" r="1.5" fill="rgba(74,158,255,0.06)"/><circle cx="120.0" cy="511.9" r="1.5" fill="rgba(74,158,255,0.06)"/><circle cx="160.0" cy="511.9" r="1.5" fill="rgba(74,158,255,0.06)"/><circle cx="200.0" cy="511.9" r="1.5" fill="rgba(74,158,255,0.06)"/><circle cx="240.0" cy="511.9" r="1.5" fill="rgba(74,158,255,0.06)"/><circle cx="280.0" cy="511.9" r="1.5" fill="rgba(74,158,255,0.06)"/><circle cx="320.0" cy="511.9" r="1.5" fill="rgba(74,158,255,0.06)"/><circle cx="360.0" cy="511.9" r="1.5" fill="rgba(74,158,255,0.06)"/><circle cx="400.0" cy="511.9" r="1.5" fill="rgba(74,158,255,0.06)"/><circle cx="440.0" cy="511.9" r="1.5" fill="rgba(74,158,255,0.06)"/><circle cx="480.0" cy="511.9" r="1.5" fill="rgba(74,158,255,0.06)"/><circle cx="520.0" cy="511.9" r="1.5" fill="rgba(74,158,255,0.06)"/><circle cx="560.0" cy="511.9" r="1.5" fill="rgba(74,158,255,0.06)"/><circle cx="600.0" cy="511.9" r="1.5" fill="rgba(74,158,255,0.06)"/><circle cx="640.0" cy="511.9" r="1.5" fill="rgba(74,158,255,0.06)"/><circle cx="680.0" cy="511.9" r="1.5" fill="rgba(74,158,255,0.06)"/><circle cx="720.0" cy="511.9" r="1.5" fill="rgba(74,158,255,0.06)"/><circle cx="760.0" cy="511.9" r="1.5" fill="rgba(74,158,255,0.06)"/><circle cx="800.0" cy="511.9" r="1.5" fill="rgba(74,158,255,0.06)"/><circle cx="840.0" cy="511.9" r="1.5" fill="rgba(74,158,255,0.06)"/><circle cx="880.0" cy="511.9" r="1.5" fill="rgba(74,158,255,0.06)"/><circle cx="920.0" cy="511.9" r="1.5" fill="rgba(74,158,255,0.06)"/><circle cx="960.0" cy="511.9" r="1.5" fill="rgba(74,158,255,0.06)"/><circle cx="1000.0" cy="511.9" r="1.5" fill="rgba(74,158,255,0.06)"/><circle cx="1040.0" cy="511.9" r="1.5" fill="rgba(74,158,255,0.06)"/><circle cx="1080.0" cy="511.9" r="1.5" fill="rgba(74,158,255,0.06)"/><circle cx="1120.0" cy="511.9" r="1.5" fill="rgba(74,158,255,0.06)"/><circle cx="1160.0" cy="511.9" r="1.5" fill="rgba(74,158,255,0.06)"/><circle cx="1200.0" cy="511.9" r="1.5" fill="rgba(74,158,255,0.06)"/><circle cx="0.0" cy="551.3" r="1.5" fill="rgba(74,158,255,0.06)"/><circle cx="40.0" cy="551.3" r="1.5" fill="rgba(74,158,255,0.06)"/><circle cx="80.0" cy="551.3" r="1.5" fill="rgba(74,158,255,0.06)"/><circle cx="120.0" cy="551.3" r="1.5" fill="rgba(74,158,255,0.06)"/><circle cx="160.0" cy="551.3" r="1.5" fill="rgba(74,158,255,0.06)"/><circle cx="200.0" cy="551.3" r="1.5" fill="rgba(74,158,255,0.06)"/><circle cx="240.0" cy="551.3" r="1.5" fill="rgba(74,158,255,0.06)"/><circle cx="280.0" cy="551.3" r="1.5" fill="rgba(74,158,255,0.06)"/><circle cx="320.0" cy="551.3" r="1.5" fill="rgba(74,158,255,0.06)"/><circle cx="360.0" cy="551.3" r="1.5" fill="rgba(74,158,255,0.06)"/><circle cx="400.0" cy="551.3" r="1.5" fill="rgba(74,158,255,0.06)"/><circle cx="440.0" cy="551.3" r="1.5" fill="rgba(74,158,255,0.06)"/><circle cx="480.0" cy="551.3" r="1.5" fill="rgba(74,158,255,0.06)"/><circle cx="520.0" cy="551.3" r="1.5" fill="rgba(74,158,255,0.06)"/><circle cx="560.0" cy="551.3" r="1.5" fill="rgba(74,158,255,0.06)"/><circle cx="600.0" cy="551.3" r="1.5" fill="rgba(74,158,255,0.06)"/><circle cx="640.0" cy="551.3" r="1.5" fill="rgba(74,158,255,0.06)"/><circle cx="680.0" cy="551.3" r="1.5" fill="rgba(74,158,255,0.06)"/><circle cx="720.0" cy="551.3" r="1.5" fill="rgba(74,158,255,0.06)"/><circle cx="760.0" cy="551.3" r="1.5" fill="rgba(74,158,255,0.06)"/><circle cx="800.0" cy="551.3" r="1.5" fill="rgba(74,158,255,0.06)"/><circle cx="840.0" cy="551.3" r="1.5" fill="rgba(74,158,255,0.06)"/><circle cx="880.0" cy="551.3" r="1.5" fill="rgba(74,158,255,0.06)"/><circle cx="920.0" cy="551.3" r="1.5" fill="rgba(74,158,255,0.06)"/><circle cx="960.0" cy="551.3" r="1.5" fill="rgba(74,158,255,0.06)"/><circle cx="1000.0" cy="551.3" r="1.5" fill="rgba(74,158,255,0.06)"/><circle cx="1040.0" cy="551.3" r="1.5" fill="rgba(74,158,255,0.06)"/><circle cx="1080.0" cy="551.3" r="1.5" fill="rgba(74,158,255,0.06)"/><circle cx="1120.0" cy="551.3" r="1.5" fill="rgba(74,158,255,0.06)"/><circle cx="1160.0" cy="551.3" r="1.5" fill="rgba(74,158,255,0.06)"/><circle cx="1200.0" cy="551.3" r="1.5" fill="rgba(74,158,255,0.06)"/><circle cx="0.0" cy="590.6" r="1.5" fill="rgba(74,158,255,0.06)"/><circle cx="40.0" cy="590.6" r="1.5" fill="rgba(74,158,255,0.06)"/><circle cx="80.0" cy="590.6" r="1.5" fill="rgba(74,158,255,0.06)"/><circle cx="120.0" cy="590.6" r="1.5" fill="rgba(74,158,255,0.06)"/><circle cx="160.0" cy="590.6" r="1.5" fill="rgba(74,158,255,0.06)"/><circle cx="200.0" cy="590.6" r="1.5" fill="rgba(74,158,255,0.06)"/><circle cx="240.0" cy="590.6" r="1.5" fill="rgba(74,158,255,0.06)"/><circle cx="280.0" cy="590.6" r="1.5" fill="rgba(74,158,255,0.06)"/><circle cx="320.0" cy="590.6" r="1.5" fill="rgba(74,158,255,0.06)"/><circle cx="360.0" cy="590.6" r="1.5" fill="rgba(74,158,255,0.06)"/><circle cx="400.0" cy="590.6" r="1.5" fill="rgba(74,158,255,0.06)"/><circle cx="440.0" cy="590.6" r="1.5" fill="rgba(74,158,255,0.06)"/><circle cx="480.0" cy="590.6" r="1.5" fill="rgba(74,158,255,0.06)"/><circle cx="520.0" cy="590.6" r="1.5" fill="rgba(74,158,255,0.06)"/><circle cx="560.0" cy="590.6" r="1.5" fill="rgba(74,158,255,0.06)"/><circle cx="600.0" cy="590.6" r="1.5" fill="rgba(74,158,255,0.06)"/><circle cx="640.0" cy="590.6" r="1.5" fill="rgba(74,158,255,0.06)"/><circle cx="680.0" cy="590.6" r="1.5" fill="rgba(74,158,255,0.06)"/><circle cx="720.0" cy="590.6" r="1.5" fill="rgba(74,158,255,0.06)"/><circle cx="760.0" cy="590.6" r="1.5" fill="rgba(74,158,255,0.06)"/><circle cx="800.0" cy="590.6" r="1.5" fill="rgba(74,158,255,0.06)"/><circle cx="840.0" cy="590.6" r="1.5" fill="rgba(74,158,255,0.06)"/><circle cx="880.0" cy="590.6" r="1.5" fill="rgba(74,158,255,0.06)"/><circle cx="920.0" cy="590.6" r="1.5" fill="rgba(74,158,255,0.06)"/><circle cx="960.0" cy="590.6" r="1.5" fill="rgba(74,158,255,0.06)"/><circle cx="1000.0" cy="590.6" r="1.5" fill="rgba(74,158,255,0.06)"/><circle cx="1040.0" cy="590.6" r="1.5" fill="rgba(74,158,255,0.06)"/><circle cx="1080.0" cy="590.6" r="1.5" fill="rgba(74,158,255,0.06)"/><circle cx="1120.0" cy="590.6" r="1.5" fill="rgba(74,158,255,0.06)"/><circle cx="1160.0" cy="590.6" r="1.5" fill="rgba(74,158,255,0.06)"/><circle cx="1200.0" cy="590.6" r="1.5" fill="rgba(74,158,255,0.06)"/><circle cx="0.0" cy="630.0" r="1.5" fill="rgba(74,158,255,0.06)"/><circle cx="40.0" cy="630.0" r="1.5" fill="rgba(74,158,255,0.06)"/><circle cx="80.0" cy="630.0" r="1.5" fill="rgba(74,158,255,0.06)"/><circle cx="120.0" cy="630.0" r="1.5" fill="rgba(74,158,255,0.06)"/><circle cx="160.0" cy="630.0" r="1.5" fill="rgba(74,158,255,0.06)"/><circle cx="200.0" cy="630.0" r="1.5" fill="rgba(74,158,255,0.06)"/><circle cx="240.0" cy="630.0" r="1.5" fill="rgba(74,158,255,0.06)"/><circle cx="280.0" cy="630.0" r="1.5" fill="rgba(74,158,255,0.06)"/><circle cx="320.0" cy="630.0" r="1.5" fill="rgba(74,158,255,0.06)"/><circle cx="360.0" cy="630.0" r="1.5" fill="rgba(74,158,255,0.06)"/><circle cx="400.0" cy="630.0" r="1.5" fill="rgba(74,158,255,0.06)"/><circle cx="440.0" cy="630.0" r="1.5" fill="rgba(74,158,255,0.06)"/><circle cx="480.0" cy="630.0" r="1.5" fill="rgba(74,158,255,0.06)"/><circle cx="520.0" cy="630.0" r="1.5" fill="rgba(74,158,255,0.06)"/><circle cx="560.0" cy="630.0" r="1.5" fill="rgba(74,158,255,0.06)"/><circle cx="600.0" cy="630.0" r="1.5" fill="rgba(74,158,255,0.06)"/><circle cx="640.0" cy="630.0" r="1.5" fill="rgba(74,158,255,0.06)"/><circle cx="680.0" cy="630.0" r="1.5" fill="rgba(74,158,255,0.06)"/><circle cx="720.0" cy="630.0" r="1.5" fill="rgba(74,158,255,0.06)"/><circle cx="760.0" cy="630.0" r="1.5" fill="rgba(74,158,255,0.06)"/><circle cx="800.0" cy="630.0" r="1.5" fill="rgba(74,158,255,0.06)"/><circle cx="840.0" cy="630.0" r="1.5" fill="rgba(74,158,255,0.06)"/><circle cx="880.0" cy="630.0" r="1.5" fill="rgba(74,158,255,0.06)"/><circle cx="920.0" cy="630.0" r="1.5" fill="rgba(74,158,255,0.06)"/><circle cx="960.0" cy="630.0" r="1.5" fill="rgba(74,158,255,0.06)"/><circle cx="1000.0" cy="630.0" r="1.5" fill="rgba(74,158,255,0.06)"/><circle cx="1040.0" cy="630.0" r="1.5" fill="rgba(74,158,255,0.06)"/><circle cx="1080.0" cy="630.0" r="1.5" fill="rgba(74,158,255,0.06)"/><circle cx="1120.0" cy="630.0" r="1.5" fill="rgba(74,158,255,0.06)"/><circle cx="1160.0" cy="630.0" r="1.5" fill="rgba(74,158,255,0.06)"/><circle cx="1200.0" cy="630.0" r="1.5" fill="rgba(74,158,255,0.06)"/>
    
    <path d="M600,315 L760,315 A160,160 0 0,0 713.1370849898476,201.8629150101524 Z" fill="#22d68a" opacity="0.05"/>
    <circle cx="600" cy="315" r="160" fill="none" stroke="#506580" stroke-width="1" stroke-opacity="0.3" stroke-dasharray="6 4"/><text x="770" y="320" font-family="Rajdhani,sans-serif" font-size="12" fill="#506580" opacity="0.7" font-weight="600">OS LAYER</text><circle cx="600" cy="315" r="110" fill="none" stroke="#667eea" stroke-width="1" stroke-opacity="0.44999999999999996" stroke-dasharray=""/><text x="720" y="320" font-family="Rajdhani,sans-serif" font-size="12" fill="#667eea" opacity="0.7" font-weight="600">Zygisk</text><circle cx="600" cy="315" r="70" fill="none" stroke="#4a9eff" stroke-width="1" stroke-opacity="0.6" stroke-dasharray=""/><text x="680" y="320" font-family="Rajdhani,sans-serif" font-size="12" fill="#4a9eff" opacity="0.7" font-weight="600">SharkCtrl</text><circle cx="600" cy="315" r="38" fill="none" stroke="#22d68a" stroke-width="2" stroke-opacity="0.75" stroke-dasharray=""/><text x="648" y="320" font-family="Rajdhani,sans-serif" font-size="12" fill="#22d68a" opacity="0.7" font-weight="600">CORE</text>
    
    <circle cx="600" cy="315" r="30" fill="#22d68a" opacity="0.07"/>
    <circle cx="600" cy="315" r="18" fill="#22d68a" opacity="0.12"/>
    <circle cx="600" cy="315" r="12" fill="#22d68a" opacity="0.9"/>
    <text x="600" y="320" font-family="Rajdhani,sans-serif" font-size="10" fill="#080d18" text-anchor="middle" font-weight="700">NC</text>
    <text x="600" y="582" font-family="Rajdhani,sans-serif" font-size="18" fill="#4a9eff" text-anchor="middle" opacity="0.6" letter-spacing="4">ZYGISK FRAMEWORK · 系统级底层控制</text>
</svg>