<svg xmlns="http://www.w3.org/2000/svg" width="1200" height="630" viewBox="0 0 1200 630">
<defs>
  <style>@import url('https://fonts.googleapis.com/css2?family=Rajdhani:wght@600&amp;display=swap');</style>
  
    <radialGradient id="bg3" cx="20%" cy="50%" r="70%">
      <stop offset="0%" stop-color="#0e1828"/>
      <stop offset="100%" stop-color="#080d18"/>
    </radialGradient>
</defs>

    <rect width="1200" height="630" fill="url(#bg3)"/>
    <circle cx="0.0" cy="0.0" r="1.5" fill="rgba(74,158,255,0.07)"/><circle cx="40.0" cy="0.0" r="1.5" fill="rgba(74,158,255,0.07)"/><circle cx="80.0" cy="0.0" r="1.5" fill="rgba(74,158,255,0.07)"/><circle cx="120.0" cy="0.0" r="1.5" fill="rgba(74,158,255,0.07)"/><circle cx="160.0" cy="0.0" r="1.5" fill="rgba(74,158,255,0.07)"/><circle cx="200.0" cy="0.0" r="1.5" fill="rgba(74,158,255,0.07)"/><circle cx="240.0" cy="0.0" r="1.5" fill="rgba(74,158,255,0.07)"/><circle cx="280.0" cy="0.0" r="1.5" fill="rgba(74,158,255,0.07)"/><circle cx="320.0" cy="0.0" r="1.5" fill="rgba(74,158,255,0.07)"/><circle cx="360.0" cy="0.0" r="1.5" fill="rgba(74,158,255,0.07)"/><circle cx="400.0" cy="0.0" r="1.5" fill="rgba(74,158,255,0.07)"/><circle cx="440.0" cy="0.0" r="1.5" fill="rgba(74,158,255,0.07)"/><circle cx="480.0" cy="0.0" r="1.5" fill="rgba(74,158,255,0.07)"/><circle cx="520.0" cy="0.0" r="1.5" fill="rgba(74,158,255,0.07)"/><circle cx="560.0" cy="0.0" r="1.5" fill="rgba(74,158,255,0.07)"/><circle cx="600.0" cy="0.0" r="1.5" fill="rgba(74,158,255,0.07)"/><circle cx="640.0" cy="0.0" r="1.5" fill="rgba(74,158,255,0.07)"/><circle cx="680.0" cy="0.0" r="1.5" fill="rgba(74,158,255,0.07)"/><circle cx="720.0" cy="0.0" r="1.5" fill="rgba(74,158,255,0.07)"/><circle cx="760.0" cy="0.0" r="1.5" fill="rgba(74,158,255,0.07)"/><circle cx="800.0" cy="0.0" r="1.5" fill="rgba(74,158,255,0.07)"/><circle cx="840.0" cy="0.0" r="1.5" fill="rgba(74,158,255,0.07)"/><circle cx="880.0" cy="0.0" r="1.5" fill="rgba(74,158,255,0.07)"/><circle cx="920.0" cy="0.0" r="1.5" fill="rgba(74,158,255,0.07)"/><circle cx="960.0" cy="0.0" r="1.5" fill="rgba(74,158,255,0.07)"/><circle cx="1000.0" cy="0.0" r="1.5" fill="rgba(74,158,255,0.07)"/><circle cx="1040.0" cy="0.0" r="1.5" fill="rgba(74,158,255,0.07)"/><circle cx="1080.0" cy="0.0" r="1.5" fill="rgba(74,158,255,0.07)"/><circle cx="1120.0" cy="0.0" r="1.5" fill="rgba(74,158,255,0.07)"/><circle cx="1160.0" cy="0.0" r="1.5" fill="rgba(74,158,255,0.07)"/><circle cx="1200.0" cy="0.0" r="1.5" fill="rgba(74,158,255,0.07)"/><circle cx="0.0" cy="39.4" r="1.5" fill="rgba(74,158,255,0.07)"/><circle cx="40.0" cy="39.4" r="1.5" fill="rgba(74,158,255,0.07)"/><circle cx="80.0" cy="39.4" r="1.5" fill="rgba(74,158,255,0.07)"/><circle cx="120.0" cy="39.4" r="1.5" fill="rgba(74,158,255,0.07)"/><circle cx="160.0" cy="39.4" r="1.5" fill="rgba(74,158,255,0.07)"/><circle cx="200.0" cy="39.4" r="1.5" fill="rgba(74,158,255,0.07)"/><circle cx="240.0" cy="39.4" r="1.5" fill="rgba(74,158,255,0.07)"/><circle cx="280.0" cy="39.4" r="1.5" fill="rgba(74,158,255,0.07)"/><circle cx="320.0" cy="39.4" r="1.5" fill="rgba(74,158,255,0.07)"/><circle cx="360.0" cy="39.4" r="1.5" fill="rgba(74,158,255,0.07)"/><circle cx="400.0" cy="39.4" r="1.5" fill="rgba(74,158,255,0.07)"/><circle cx="440.0" cy="39.4" r="1.5" fill="rgba(74,158,255,0.07)"/><circle cx="480.0" cy="39.4" r="1.5" fill="rgba(74,158,255,0.07)"/><circle cx="520.0" cy="39.4" r="1.5" fill="rgba(74,158,255,0.07)"/><circle cx="560.0" cy="39.4" r="1.5" fill="rgba(74,158,255,0.07)"/><circle cx="600.0" cy="39.4" r="1.5" fill="rgba(74,158,255,0.07)"/><circle cx="640.0" cy="39.4" r="1.5" fill="rgba(74,158,255,0.07)"/><circle cx="680.0" cy="39.4" r="1.5" fill="rgba(74,158,255,0.07)"/><circle cx="720.0" cy="39.4" r="1.5" fill="rgba(74,158,255,0.07)"/><circle cx="760.0" cy="39.4" r="1.5" fill="rgba(74,158,255,0.07)"/><circle cx="800.0" cy="39.4" r="1.5" fill="rgba(74,158,255,0.07)"/><circle cx="840.0" cy="39.4" r="1.5" fill="rgba(74,158,255,0.07)"/><circle cx="880.0" cy="39.4" r="1.5" fill="rgba(74,158,255,0.07)"/><circle cx="920.0" cy="39.4" r="1.5" fill="rgba(74,158,255,0.07)"/><circle cx="960.0" cy="39.4" r="1.5" fill="rgba(74,158,255,0.07)"/><circle cx="1000.0" cy="39.4" r="1.5" fill="rgba(74,158,255,0.07)"/><circle cx="1040.0" cy="39.4" r="1.5" fill="rgba(74,158,255,0.07)"/><circle cx="1080.0" cy="39.4" r="1.5" fill="rgba(74,158,255,0.07)"/><circle cx="1120.0" cy="39.4" r="1.5" fill="rgba(74,158,255,0.07)"/><circle cx="1160.0" cy="39.4" r="1.5" fill="rgba(74,158,255,0.07)"/><circle cx="1200.0" cy="39.4" r="1.5" fill="rgba(74,158,255,0.07)"/><circle cx="0.0" cy="78.8" r="1.5" fill="rgba(74,158,255,0.07)"/><circle cx="40.0" cy="78.8" r="1.5" fill="rgba(74,158,255,0.07)"/><circle cx="80.0" cy="78.8" r="1.5" fill="rgba(74,158,255,0.07)"/><circle cx="120.0" cy="78.8" r="1.5" fill="rgba(74,158,255,0.07)"/><circle cx="160.0" cy="78.8" r="1.5" fill="rgba(74,158,255,0.07)"/><circle cx="200.0" cy="78.8" r="1.5" fill="rgba(74,158,255,0.07)"/><circle cx="240.0" cy="78.8" r="1.5" fill="rgba(74,158,255,0.07)"/><circle cx="280.0" cy="78.8" r="1.5" fill="rgba(74,158,255,0.07)"/><circle cx="320.0" cy="78.8" r="1.5" fill="rgba(74,158,255,0.07)"/><circle cx="360.0" cy="78.8" r="1.5" fill="rgba(74,158,255,0.07)"/><circle cx="400.0" cy="78.8" r="1.5" fill="rgba(74,158,255,0.07)"/><circle cx="440.0" cy="78.8" r="1.5" fill="rgba(74,158,255,0.07)"/><circle cx="480.0" cy="78.8" r="1.5" fill="rgba(74,158,255,0.07)"/><circle cx="520.0" cy="78.8" r="1.5" fill="rgba(74,158,255,0.07)"/><circle cx="560.0" cy="78.8" r="1.5" fill="rgba(74,158,255,0.07)"/><circle cx="600.0" cy="78.8" r="1.5" fill="rgba(74,158,255,0.07)"/><circle cx="640.0" cy="78.8" r="1.5" fill="rgba(74,158,255,0.07)"/><circle cx="680.0" cy="78.8" r="1.5" fill="rgba(74,158,255,0.07)"/><circle cx="720.0" cy="78.8" r="1.5" fill="rgba(74,158,255,0.07)"/><circle cx="760.0" cy="78.8" r="1.5" fill="rgba(74,158,255,0.07)"/><circle cx="800.0" cy="78.8" r="1.5" fill="rgba(74,158,255,0.07)"/><circle cx="840.0" cy="78.8" r="1.5" fill="rgba(74,158,255,0.07)"/><circle cx="880.0" cy="78.8" r="1.5" fill="rgba(74,158,255,0.07)"/><circle cx="920.0" cy="78.8" r="1.5" fill="rgba(74,158,255,0.07)"/><circle cx="960.0" cy="78.8" r="1.5" fill="rgba(74,158,255,0.07)"/><circle cx="1000.0" cy="78.8" r="1.5" fill="rgba(74,158,255,0.07)"/><circle cx="1040.0" cy="78.8" r="1.5" fill="rgba(74,158,255,0.07)"/><circle cx="1080.0" cy="78.8" r="1.5" fill="rgba(74,158,255,0.07)"/><circle cx="1120.0" cy="78.8" r="1.5" fill="rgba(74,158,255,0.07)"/><circle cx="1160.0" cy="78.8" r="1.5" fill="rgba(74,158,255,0.07)"/><circle cx="1200.0" cy="78.8" r="1.5" fill="rgba(74,158,255,0.07)"/><circle cx="0.0" cy="118.1" r="1.5" fill="rgba(74,158,255,0.07)"/><circle cx="40.0" cy="118.1" r="1.5" fill="rgba(74,158,255,0.07)"/><circle cx="80.0" cy="118.1" r="1.5" fill="rgba(74,158,255,0.07)"/><circle cx="120.0" cy="118.1" r="1.5" fill="rgba(74,158,255,0.07)"/><circle cx="160.0" cy="118.1" r="1.5" fill="rgba(74,158,255,0.07)"/><circle cx="200.0" cy="118.1" r="1.5" fill="rgba(74,158,255,0.07)"/><circle cx="240.0" cy="118.1" r="1.5" fill="rgba(74,158,255,0.07)"/><circle cx="280.0" cy="118.1" r="1.5" fill="rgba(74,158,255,0.07)"/><circle cx="320.0" cy="118.1" r="1.5" fill="rgba(74,158,255,0.07)"/><circle cx="360.0" cy="118.1" r="1.5" fill="rgba(74,158,255,0.07)"/><circle cx="400.0" cy="118.1" r="1.5" fill="rgba(74,158,255,0.07)"/><circle cx="440.0" cy="118.1" r="1.5" fill="rgba(74,158,255,0.07)"/><circle cx="480.0" cy="118.1" r="1.5" fill="rgba(74,158,255,0.07)"/><circle cx="520.0" cy="118.1" r="1.5" fill="rgba(74,158,255,0.07)"/><circle cx="560.0" cy="118.1" r="1.5" fill="rgba(74,158,255,0.07)"/><circle cx="600.0" cy="118.1" r="1.5" fill="rgba(74,158,255,0.07)"/><circle cx="640.0" cy="118.1" r="1.5" fill="rgba(74,158,255,0.07)"/><circle cx="680.0" cy="118.1" r="1.5" fill="rgba(74,158,255,0.07)"/><circle cx="720.0" cy="118.1" r="1.5" fill="rgba(74,158,255,0.07)"/><circle cx="760.0" cy="118.1" r="1.5" fill="rgba(74,158,255,0.07)"/><circle cx="800.0" cy="118.1" r="1.5" fill="rgba(74,158,255,0.07)"/><circle cx="840.0" cy="118.1" r="1.5" fill="rgba(74,158,255,0.07)"/><circle cx="880.0" cy="118.1" r="1.5" fill="rgba(74,158,255,0.07)"/><circle cx="920.0" cy="118.1" r="1.5" fill="rgba(74,158,255,0.07)"/><circle cx="960.0" cy="118.1" r="1.5" fill="rgba(74,158,255,0.07)"/><circle cx="1000.0" cy="118.1" r="1.5" fill="rgba(74,158,255,0.07)"/><circle cx="1040.0" cy="118.1" r="1.5" fill="rgba(74,158,255,0.07)"/><circle cx="1080.0" cy="118.1" r="1.5" fill="rgba(74,158,255,0.07)"/><circle cx="1120.0" cy="118.1" r="1.5" fill="rgba(74,158,255,0.07)"/><circle cx="1160.0" cy="118.1" r="1.5" fill="rgba(74,158,255,0.07)"/><circle cx="1200.0" cy="118.1" r="1.5" fill="rgba(74,158,255,0.07)"/><circle cx="0.0" cy="157.5" r="1.5" fill="rgba(74,158,255,0.07)"/><circle cx="40.0" cy="157.5" r="1.5" fill="rgba(74,158,255,0.07)"/><circle cx="80.0" cy="157.5" r="1.5" fill="rgba(74,158,255,0.07)"/><circle cx="120.0" cy="157.5" r="1.5" fill="rgba(74,158,255,0.07)"/><circle cx="160.0" cy="157.5" r="1.5" fill="rgba(74,158,255,0.07)"/><circle cx="200.0" cy="157.5" r="1.5" fill="rgba(74,158,255,0.07)"/><circle cx="240.0" cy="157.5" r="1.5" fill="rgba(74,158,255,0.07)"/><circle cx="280.0" cy="157.5" r="1.5" fill="rgba(74,158,255,0.07)"/><circle cx="320.0" cy="157.5" r="1.5" fill="rgba(74,158,255,0.07)"/><circle cx="360.0" cy="157.5" r="1.5" fill="rgba(74,158,255,0.07)"/><circle cx="400.0" cy="157.5" r="1.5" fill="rgba(74,158,255,0.07)"/><circle cx="440.0" cy="157.5" r="1.5" fill="rgba(74,158,255,0.07)"/><circle cx="480.0" cy="157.5" r="1.5" fill="rgba(74,158,255,0.07)"/><circle cx="520.0" cy="157.5" r="1.5" fill="rgba(74,158,255,0.07)"/><circle cx="560.0" cy="157.5" r="1.5" fill="rgba(74,158,255,0.07)"/><circle cx="600.0" cy="157.5" r="1.5" fill="rgba(74,158,255,0.07)"/><circle cx="640.0" cy="157.5" r="1.5" fill="rgba(74,158,255,0.07)"/><circle cx="680.0" cy="157.5" r="1.5" fill="rgba(74,158,255,0.07)"/><circle cx="720.0" cy="157.5" r="1.5" fill="rgba(74,158,255,0.07)"/><circle cx="760.0" cy="157.5" r="1.5" fill="rgba(74,158,255,0.07)"/><circle cx="800.0" cy="157.5" r="1.5" fill="rgba(74,158,255,0.07)"/><circle cx="840.0" cy="157.5" r="1.5" fill="rgba(74,158,255,0.07)"/><circle cx="880.0" cy="157.5" r="1.5" fill="rgba(74,158,255,0.07)"/><circle cx="920.0" cy="157.5" r="1.5" fill="rgba(74,158,255,0.07)"/><circle cx="960.0" cy="157.5" r="1.5" fill="rgba(74,158,255,0.07)"/><circle cx="1000.0" cy="157.5" r="1.5" fill="rgba(74,158,255,0.07)"/><circle cx="1040.0" cy="157.5" r="1.5" fill="rgba(74,158,255,0.07)"/><circle cx="1080.0" cy="157.5" r="1.5" fill="rgba(74,158,255,0.07)"/><circle cx="1120.0" cy="157.5" r="1.5" fill="rgba(74,158,255,0.07)"/><circle cx="1160.0" cy="157.5" r="1.5" fill="rgba(74,158,255,0.07)"/><circle cx="1200.0" cy="157.5" r="1.5" fill="rgba(74,158,255,0.07)"/><circle cx="0.0" cy="196.9" r="1.5" fill="rgba(74,158,255,0.07)"/><circle cx="40.0" cy="196.9" r="1.5" fill="rgba(74,158,255,0.07)"/><circle cx="80.0" cy="196.9" r="1.5" fill="rgba(74,158,255,0.07)"/><circle cx="120.0" cy="196.9" r="1.5" fill="rgba(74,158,255,0.07)"/><circle cx="160.0" cy="196.9" r="1.5" fill="rgba(74,158,255,0.07)"/><circle cx="200.0" cy="196.9" r="1.5" fill="rgba(74,158,255,0.07)"/><circle cx="240.0" cy="196.9" r="1.5" fill="rgba(74,158,255,0.07)"/><circle cx="280.0" cy="196.9" r="1.5" fill="rgba(74,158,255,0.07)"/><circle cx="320.0" cy="196.9" r="1.5" fill="rgba(74,158,255,0.07)"/><circle cx="360.0" cy="196.9" r="1.5" fill="rgba(74,158,255,0.07)"/><circle cx="400.0" cy="196.9" r="1.5" fill="rgba(74,158,255,0.07)"/><circle cx="440.0" cy="196.9" r="1.5" fill="rgba(74,158,255,0.07)"/><circle cx="480.0" cy="196.9" r="1.5" fill="rgba(74,158,255,0.07)"/><circle cx="520.0" cy="196.9" r="1.5" fill="rgba(74,158,255,0.07)"/><circle cx="560.0" cy="196.9" r="1.5" fill="rgba(74,158,255,0.07)"/><circle cx="600.0" cy="196.9" r="1.5" fill="rgba(74,158,255,0.07)"/><circle cx="640.0" cy="196.9" r="1.5" fill="rgba(74,158,255,0.07)"/><circle cx="680.0" cy="196.9" r="1.5" fill="rgba(74,158,255,0.07)"/><circle cx="720.0" cy="196.9" r="1.5" fill="rgba(74,158,255,0.07)"/><circle cx="760.0" cy="196.9" r="1.5" fill="rgba(74,158,255,0.07)"/><circle cx="800.0" cy="196.9" r="1.5" fill="rgba(74,158,255,0.07)"/><circle cx="840.0" cy="196.9" r="1.5" fill="rgba(74,158,255,0.07)"/><circle cx="880.0" cy="196.9" r="1.5" fill="rgba(74,158,255,0.07)"/><circle cx="920.0" cy="196.9" r="1.5" fill="rgba(74,158,255,0.07)"/><circle cx="960.0" cy="196.9" r="1.5" fill="rgba(74,158,255,0.07)"/><circle cx="1000.0" cy="196.9" r="1.5" fill="rgba(74,158,255,0.07)"/><circle cx="1040.0" cy="196.9" r="1.5" fill="rgba(74,158,255,0.07)"/><circle cx="1080.0" cy="196.9" r="1.5" fill="rgba(74,158,255,0.07)"/><circle cx="1120.0" cy="196.9" r="1.5" fill="rgba(74,158,255,0.07)"/><circle cx="1160.0" cy="196.9" r="1.5" fill="rgba(74,158,255,0.07)"/><circle cx="1200.0" cy="196.9" r="1.5" fill="rgba(74,158,255,0.07)"/><circle cx="0.0" cy="236.3" r="1.5" fill="rgba(74,158,255,0.07)"/><circle cx="40.0" cy="236.3" r="1.5" fill="rgba(74,158,255,0.07)"/><circle cx="80.0" cy="236.3" r="1.5" fill="rgba(74,158,255,0.07)"/><circle cx="120.0" cy="236.3" r="1.5" fill="rgba(74,158,255,0.07)"/><circle cx="160.0" cy="236.3" r="1.5" fill="rgba(74,158,255,0.07)"/><circle cx="200.0" cy="236.3" r="1.5" fill="rgba(74,158,255,0.07)"/><circle cx="240.0" cy="236.3" r="1.5" fill="rgba(74,158,255,0.07)"/><circle cx="280.0" cy="236.3" r="1.5" fill="rgba(74,158,255,0.07)"/><circle cx="320.0" cy="236.3" r="1.5" fill="rgba(74,158,255,0.07)"/><circle cx="360.0" cy="236.3" r="1.5" fill="rgba(74,158,255,0.07)"/><circle cx="400.0" cy="236.3" r="1.5" fill="rgba(74,158,255,0.07)"/><circle cx="440.0" cy="236.3" r="1.5" fill="rgba(74,158,255,0.07)"/><circle cx="480.0" cy="236.3" r="1.5" fill="rgba(74,158,255,0.07)"/><circle cx="520.0" cy="236.3" r="1.5" fill="rgba(74,158,255,0.07)"/><circle cx="560.0" cy="236.3" r="1.5" fill="rgba(74,158,255,0.07)"/><circle cx="600.0" cy="236.3" r="1.5" fill="rgba(74,158,255,0.07)"/><circle cx="640.0" cy="236.3" r="1.5" fill="rgba(74,158,255,0.07)"/><circle cx="680.0" cy="236.3" r="1.5" fill="rgba(74,158,255,0.07)"/><circle cx="720.0" cy="236.3" r="1.5" fill="rgba(74,158,255,0.07)"/><circle cx="760.0" cy="236.3" r="1.5" fill="rgba(74,158,255,0.07)"/><circle cx="800.0" cy="236.3" r="1.5" fill="rgba(74,158,255,0.07)"/><circle cx="840.0" cy="236.3" r="1.5" fill="rgba(74,158,255,0.07)"/><circle cx="880.0" cy="236.3" r="1.5" fill="rgba(74,158,255,0.07)"/><circle cx="920.0" cy="236.3" r="1.5" fill="rgba(74,158,255,0.07)"/><circle cx="960.0" cy="236.3" r="1.5" fill="rgba(74,158,255,0.07)"/><circle cx="1000.0" cy="236.3" r="1.5" fill="rgba(74,158,255,0.07)"/><circle cx="1040.0" cy="236.3" r="1.5" fill="rgba(74,158,255,0.07)"/><circle cx="1080.0" cy="236.3" r="1.5" fill="rgba(74,158,255,0.07)"/><circle cx="1120.0" cy="236.3" r="1.5" fill="rgba(74,158,255,0.07)"/><circle cx="1160.0" cy="236.3" r="1.5" fill="rgba(74,158,255,0.07)"/><circle cx="1200.0" cy="236.3" r="1.5" fill="rgba(74,158,255,0.07)"/><circle cx="0.0" cy="275.6" r="1.5" fill="rgba(74,158,255,0.07)"/><circle cx="40.0" cy="275.6" r="1.5" fill="rgba(74,158,255,0.07)"/><circle cx="80.0" cy="275.6" r="1.5" fill="rgba(74,158,255,0.07)"/><circle cx="120.0" cy="275.6" r="1.5" fill="rgba(74,158,255,0.07)"/><circle cx="160.0" cy="275.6" r="1.5" fill="rgba(74,158,255,0.07)"/><circle cx="200.0" cy="275.6" r="1.5" fill="rgba(74,158,255,0.07)"/><circle cx="240.0" cy="275.6" r="1.5" fill="rgba(74,158,255,0.07)"/><circle cx="280.0" cy="275.6" r="1.5" fill="rgba(74,158,255,0.07)"/><circle cx="320.0" cy="275.6" r="1.5" fill="rgba(74,158,255,0.07)"/><circle cx="360.0" cy="275.6" r="1.5" fill="rgba(74,158,255,0.07)"/><circle cx="400.0" cy="275.6" r="1.5" fill="rgba(74,158,255,0.07)"/><circle cx="440.0" cy="275.6" r="1.5" fill="rgba(74,158,255,0.07)"/><circle cx="480.0" cy="275.6" r="1.5" fill="rgba(74,158,255,0.07)"/><circle cx="520.0" cy="275.6" r="1.5" fill="rgba(74,158,255,0.07)"/><circle cx="560.0" cy="275.6" r="1.5" fill="rgba(74,158,255,0.07)"/><circle cx="600.0" cy="275.6" r="1.5" fill="rgba(74,158,255,0.07)"/><circle cx="640.0" cy="275.6" r="1.5" fill="rgba(74,158,255,0.07)"/><circle cx="680.0" cy="275.6" r="1.5" fill="rgba(74,158,255,0.07)"/><circle cx="720.0" cy="275.6" r="1.5" fill="rgba(74,158,255,0.07)"/><circle cx="760.0" cy="275.6" r="1.5" fill="rgba(74,158,255,0.07)"/><circle cx="800.0" cy="275.6" r="1.5" fill="rgba(74,158,255,0.07)"/><circle cx="840.0" cy="275.6" r="1.5" fill="rgba(74,158,255,0.07)"/><circle cx="880.0" cy="275.6" r="1.5" fill="rgba(74,158,255,0.07)"/><circle cx="920.0" cy="275.6" r="1.5" fill="rgba(74,158,255,0.07)"/><circle cx="960.0" cy="275.6" r="1.5" fill="rgba(74,158,255,0.07)"/><circle cx="1000.0" cy="275.6" r="1.5" fill="rgba(74,158,255,0.07)"/><circle cx="1040.0" cy="275.6" r="1.5" fill="rgba(74,158,255,0.07)"/><circle cx="1080.0" cy="275.6" r="1.5" fill="rgba(74,158,255,0.07)"/><circle cx="1120.0" cy="275.6" r="1.5" fill="rgba(74,158,255,0.07)"/><circle cx="1160.0" cy="275.6" r="1.5" fill="rgba(74,158,255,0.07)"/><circle cx="1200.0" cy="275.6" r="1.5" fill="rgba(74,158,255,0.07)"/><circle cx="0.0" cy="315.0" r="1.5" fill="rgba(74,158,255,0.07)"/><circle cx="40.0" cy="315.0" r="1.5" fill="rgba(74,158,255,0.07)"/><circle cx="80.0" cy="315.0" r="1.5" fill="rgba(74,158,255,0.07)"/><circle cx="120.0" cy="315.0" r="1.5" fill="rgba(74,158,255,0.07)"/><circle cx="160.0" cy="315.0" r="1.5" fill="rgba(74,158,255,0.07)"/><circle cx="200.0" cy="315.0" r="1.5" fill="rgba(74,158,255,0.07)"/><circle cx="240.0" cy="315.0" r="1.5" fill="rgba(74,158,255,0.07)"/><circle cx="280.0" cy="315.0" r="1.5" fill="rgba(74,158,255,0.07)"/><circle cx="320.0" cy="315.0" r="1.5" fill="rgba(74,158,255,0.07)"/><circle cx="360.0" cy="315.0" r="1.5" fill="rgba(74,158,255,0.07)"/><circle cx="400.0" cy="315.0" r="1.5" fill="rgba(74,158,255,0.07)"/><circle cx="440.0" cy="315.0" r="1.5" fill="rgba(74,158,255,0.07)"/><circle cx="480.0" cy="315.0" r="1.5" fill="rgba(74,158,255,0.07)"/><circle cx="520.0" cy="315.0" r="1.5" fill="rgba(74,158,255,0.07)"/><circle cx="560.0" cy="315.0" r="1.5" fill="rgba(74,158,255,0.07)"/><circle cx="600.0" cy="315.0" r="1.5" fill="rgba(74,158,255,0.07)"/><circle cx="640.0" cy="315.0" r="1.5" fill="rgba(74,158,255,0.07)"/><circle cx="680.0" cy="315.0" r="1.5" fill="rgba(74,158,255,0.07)"/><circle cx="720.0" cy="315.0" r="1.5" fill="rgba(74,158,255,0.07)"/><circle cx="760.0" cy="315.0" r="1.5" fill="rgba(74,158,255,0.07)"/><circle cx="800.0" cy="315.0" r="1.5" fill="rgba(74,158,255,0.07)"/><circle cx="840.0" cy="315.0" r="1.5" fill="rgba(74,158,255,0.07)"/><circle cx="880.0" cy="315.0" r="1.5" fill="rgba(74,158,255,0.07)"/><circle cx="920.0" cy="315.0" r="1.5" fill="rgba(74,158,255,0.07)"/><circle cx="960.0" cy="315.0" r="1.5" fill="rgba(74,158,255,0.07)"/><circle cx="1000.0" cy="315.0" r="1.5" fill="rgba(74,158,255,0.07)"/><circle cx="1040.0" cy="315.0" r="1.5" fill="rgba(74,158,255,0.07)"/><circle cx="1080.0" cy="315.0" r="1.5" fill="rgba(74,158,255,0.07)"/><circle cx="1120.0" cy="315.0" r="1.5" fill="rgba(74,158,255,0.07)"/><circle cx="1160.0" cy="315.0" r="1.5" fill="rgba(74,158,255,0.07)"/><circle cx="1200.0" cy="315.0" r="1.5" fill="rgba(74,158,255,0.07)"/><circle cx="0.0" cy="354.4" r="1.5" fill="rgba(74,158,255,0.07)"/><circle cx="40.0" cy="354.4" r="1.5" fill="rgba(74,158,255,0.07)"/><circle cx="80.0" cy="354.4" r="1.5" fill="rgba(74,158,255,0.07)"/><circle cx="120.0" cy="354.4" r="1.5" fill="rgba(74,158,255,0.07)"/><circle cx="160.0" cy="354.4" r="1.5" fill="rgba(74,158,255,0.07)"/><circle cx="200.0" cy="354.4" r="1.5" fill="rgba(74,158,255,0.07)"/><circle cx="240.0" cy="354.4" r="1.5" fill="rgba(74,158,255,0.07)"/><circle cx="280.0" cy="354.4" r="1.5" fill="rgba(74,158,255,0.07)"/><circle cx="320.0" cy="354.4" r="1.5" fill="rgba(74,158,255,0.07)"/><circle cx="360.0" cy="354.4" r="1.5" fill="rgba(74,158,255,0.07)"/><circle cx="400.0" cy="354.4" r="1.5" fill="rgba(74,158,255,0.07)"/><circle cx="440.0" cy="354.4" r="1.5" fill="rgba(74,158,255,0.07)"/><circle cx="480.0" cy="354.4" r="1.5" fill="rgba(74,158,255,0.07)"/><circle cx="520.0" cy="354.4" r="1.5" fill="rgba(74,158,255,0.07)"/><circle cx="560.0" cy="354.4" r="1.5" fill="rgba(74,158,255,0.07)"/><circle cx="600.0" cy="354.4" r="1.5" fill="rgba(74,158,255,0.07)"/><circle cx="640.0" cy="354.4" r="1.5" fill="rgba(74,158,255,0.07)"/><circle cx="680.0" cy="354.4" r="1.5" fill="rgba(74,158,255,0.07)"/><circle cx="720.0" cy="354.4" r="1.5" fill="rgba(74,158,255,0.07)"/><circle cx="760.0" cy="354.4" r="1.5" fill="rgba(74,158,255,0.07)"/><circle cx="800.0" cy="354.4" r="1.5" fill="rgba(74,158,255,0.07)"/><circle cx="840.0" cy="354.4" r="1.5" fill="rgba(74,158,255,0.07)"/><circle cx="880.0" cy="354.4" r="1.5" fill="rgba(74,158,255,0.07)"/><circle cx="920.0" cy="354.4" r="1.5" fill="rgba(74,158,255,0.07)"/><circle cx="960.0" cy="354.4" r="1.5" fill="rgba(74,158,255,0.07)"/><circle cx="1000.0" cy="354.4" r="1.5" fill="rgba(74,158,255,0.07)"/><circle cx="1040.0" cy="354.4" r="1.5" fill="rgba(74,158,255,0.07)"/><circle cx="1080.0" cy="354.4" r="1.5" fill="rgba(74,158,255,0.07)"/><circle cx="1120.0" cy="354.4" r="1.5" fill="rgba(74,158,255,0.07)"/><circle cx="1160.0" cy="354.4" r="1.5" fill="rgba(74,158,255,0.07)"/><circle cx="1200.0" cy="354.4" r="1.5" fill="rgba(74,158,255,0.07)"/><circle cx="0.0" cy="393.8" r="1.5" fill="rgba(74,158,255,0.07)"/><circle cx="40.0" cy="393.8" r="1.5" fill="rgba(74,158,255,0.07)"/><circle cx="80.0" cy="393.8" r="1.5" fill="rgba(74,158,255,0.07)"/><circle cx="120.0" cy="393.8" r="1.5" fill="rgba(74,158,255,0.07)"/><circle cx="160.0" cy="393.8" r="1.5" fill="rgba(74,158,255,0.07)"/><circle cx="200.0" cy="393.8" r="1.5" fill="rgba(74,158,255,0.07)"/><circle cx="240.0" cy="393.8" r="1.5" fill="rgba(74,158,255,0.07)"/><circle cx="280.0" cy="393.8" r="1.5" fill="rgba(74,158,255,0.07)"/><circle cx="320.0" cy="393.8" r="1.5" fill="rgba(74,158,255,0.07)"/><circle cx="360.0" cy="393.8" r="1.5" fill="rgba(74,158,255,0.07)"/><circle cx="400.0" cy="393.8" r="1.5" fill="rgba(74,158,255,0.07)"/><circle cx="440.0" cy="393.8" r="1.5" fill="rgba(74,158,255,0.07)"/><circle cx="480.0" cy="393.8" r="1.5" fill="rgba(74,158,255,0.07)"/><circle cx="520.0" cy="393.8" r="1.5" fill="rgba(74,158,255,0.07)"/><circle cx="560.0" cy="393.8" r="1.5" fill="rgba(74,158,255,0.07)"/><circle cx="600.0" cy="393.8" r="1.5" fill="rgba(74,158,255,0.07)"/><circle cx="640.0" cy="393.8" r="1.5" fill="rgba(74,158,255,0.07)"/><circle cx="680.0" cy="393.8" r="1.5" fill="rgba(74,158,255,0.07)"/><circle cx="720.0" cy="393.8" r="1.5" fill="rgba(74,158,255,0.07)"/><circle cx="760.0" cy="393.8" r="1.5" fill="rgba(74,158,255,0.07)"/><circle cx="800.0" cy="393.8" r="1.5" fill="rgba(74,158,255,0.07)"/><circle cx="840.0" cy="393.8" r="1.5" fill="rgba(74,158,255,0.07)"/><circle cx="880.0" cy="393.8" r="1.5" fill="rgba(74,158,255,0.07)"/><circle cx="920.0" cy="393.8" r="1.5" fill="rgba(74,158,255,0.07)"/><circle cx="960.0" cy="393.8" r="1.5" fill="rgba(74,158,255,0.07)"/><circle cx="1000.0" cy="393.8" r="1.5" fill="rgba(74,158,255,0.07)"/><circle cx="1040.0" cy="393.8" r="1.5" fill="rgba(74,158,255,0.07)"/><circle cx="1080.0" cy="393.8" r="1.5" fill="rgba(74,158,255,0.07)"/><circle cx="1120.0" cy="393.8" r="1.5" fill="rgba(74,158,255,0.07)"/><circle cx="1160.0" cy="393.8" r="1.5" fill="rgba(74,158,255,0.07)"/><circle cx="1200.0" cy="393.8" r="1.5" fill="rgba(74,158,255,0.07)"/><circle cx="0.0" cy="433.1" r="1.5" fill="rgba(74,158,255,0.07)"/><circle cx="40.0" cy="433.1" r="1.5" fill="rgba(74,158,255,0.07)"/><circle cx="80.0" cy="433.1" r="1.5" fill="rgba(74,158,255,0.07)"/><circle cx="120.0" cy="433.1" r="1.5" fill="rgba(74,158,255,0.07)"/><circle cx="160.0" cy="433.1" r="1.5" fill="rgba(74,158,255,0.07)"/><circle cx="200.0" cy="433.1" r="1.5" fill="rgba(74,158,255,0.07)"/><circle cx="240.0" cy="433.1" r="1.5" fill="rgba(74,158,255,0.07)"/><circle cx="280.0" cy="433.1" r="1.5" fill="rgba(74,158,255,0.07)"/><circle cx="320.0" cy="433.1" r="1.5" fill="rgba(74,158,255,0.07)"/><circle cx="360.0" cy="433.1" r="1.5" fill="rgba(74,158,255,0.07)"/><circle cx="400.0" cy="433.1" r="1.5" fill="rgba(74,158,255,0.07)"/><circle cx="440.0" cy="433.1" r="1.5" fill="rgba(74,158,255,0.07)"/><circle cx="480.0" cy="433.1" r="1.5" fill="rgba(74,158,255,0.07)"/><circle cx="520.0" cy="433.1" r="1.5" fill="rgba(74,158,255,0.07)"/><circle cx="560.0" cy="433.1" r="1.5" fill="rgba(74,158,255,0.07)"/><circle cx="600.0" cy="433.1" r="1.5" fill="rgba(74,158,255,0.07)"/><circle cx="640.0" cy="433.1" r="1.5" fill="rgba(74,158,255,0.07)"/><circle cx="680.0" cy="433.1" r="1.5" fill="rgba(74,158,255,0.07)"/><circle cx="720.0" cy="433.1" r="1.5" fill="rgba(74,158,255,0.07)"/><circle cx="760.0" cy="433.1" r="1.5" fill="rgba(74,158,255,0.07)"/><circle cx="800.0" cy="433.1" r="1.5" fill="rgba(74,158,255,0.07)"/><circle cx="840.0" cy="433.1" r="1.5" fill="rgba(74,158,255,0.07)"/><circle cx="880.0" cy="433.1" r="1.5" fill="rgba(74,158,255,0.07)"/><circle cx="920.0" cy="433.1" r="1.5" fill="rgba(74,158,255,0.07)"/><circle cx="960.0" cy="433.1" r="1.5" fill="rgba(74,158,255,0.07)"/><circle cx="1000.0" cy="433.1" r="1.5" fill="rgba(74,158,255,0.07)"/><circle cx="1040.0" cy="433.1" r="1.5" fill="rgba(74,158,255,0.07)"/><circle cx="1080.0" cy="433.1" r="1.5" fill="rgba(74,158,255,0.07)"/><circle cx="1120.0" cy="433.1" r="1.5" fill="rgba(74,158,255,0.07)"/><circle cx="1160.0" cy="433.1" r="1.5" fill="rgba(74,158,255,0.07)"/><circle cx="1200.0" cy="433.1" r="1.5" fill="rgba(74,158,255,0.07)"/><circle cx="0.0" cy="472.5" r="1.5" fill="rgba(74,158,255,0.07)"/><circle cx="40.0" cy="472.5" r="1.5" fill="rgba(74,158,255,0.07)"/><circle cx="80.0" cy="472.5" r="1.5" fill="rgba(74,158,255,0.07)"/><circle cx="120.0" cy="472.5" r="1.5" fill="rgba(74,158,255,0.07)"/><circle cx="160.0" cy="472.5" r="1.5" fill="rgba(74,158,255,0.07)"/><circle cx="200.0" cy="472.5" r="1.5" fill="rgba(74,158,255,0.07)"/><circle cx="240.0" cy="472.5" r="1.5" fill="rgba(74,158,255,0.07)"/><circle cx="280.0" cy="472.5" r="1.5" fill="rgba(74,158,255,0.07)"/><circle cx="320.0" cy="472.5" r="1.5" fill="rgba(74,158,255,0.07)"/><circle cx="360.0" cy="472.5" r="1.5" fill="rgba(74,158,255,0.07)"/><circle cx="400.0" cy="472.5" r="1.5" fill="rgba(74,158,255,0.07)"/><circle cx="440.0" cy="472.5" r="1.5" fill="rgba(74,158,255,0.07)"/><circle cx="480.0" cy="472.5" r="1.5" fill="rgba(74,158,255,0.07)"/><circle cx="520.0" cy="472.5" r="1.5" fill="rgba(74,158,255,0.07)"/><circle cx="560.0" cy="472.5" r="1.5" fill="rgba(74,158,255,0.07)"/><circle cx="600.0" cy="472.5" r="1.5" fill="rgba(74,158,255,0.07)"/><circle cx="640.0" cy="472.5" r="1.5" fill="rgba(74,158,255,0.07)"/><circle cx="680.0" cy="472.5" r="1.5" fill="rgba(74,158,255,0.07)"/><circle cx="720.0" cy="472.5" r="1.5" fill="rgba(74,158,255,0.07)"/><circle cx="760.0" cy="472.5" r="1.5" fill="rgba(74,158,255,0.07)"/><circle cx="800.0" cy="472.5" r="1.5" fill="rgba(74,158,255,0.07)"/><circle cx="840.0" cy="472.5" r="1.5" fill="rgba(74,158,255,0.07)"/><circle cx="880.0" cy="472.5" r="1.5" fill="rgba(74,158,255,0.07)"/><circle cx="920.0" cy="472.5" r="1.5" fill="rgba(74,158,255,0.07)"/><circle cx="960.0" cy="472.5" r="1.5" fill="rgba(74,158,255,0.07)"/><circle cx="1000.0" cy="472.5" r="1.5" fill="rgba(74,158,255,0.07)"/><circle cx="1040.0" cy="472.5" r="1.5" fill="rgba(74,158,255,0.07)"/><circle cx="1080.0" cy="472.5" r="1.5" fill="rgba(74,158,255,0.07)"/><circle cx="1120.0" cy="472.5" r="1.5" fill="rgba(74,158,255,0.07)"/><circle cx="1160.0" cy="472.5" r="1.5" fill="rgba(74,158,255,0.07)"/><circle cx="1200.0" cy="472.5" r="1.5" fill="rgba(74,158,255,0.07)"/><circle cx="0.0" cy="511.9" r="1.5" fill="rgba(74,158,255,0.07)"/><circle cx="40.0" cy="511.9" r="1.5" fill="rgba(74,158,255,0.07)"/><circle cx="80.0" cy="511.9" r="1.5" fill="rgba(74,158,255,0.07)"/><circle cx="120.0" cy="511.9" r="1.5" fill="rgba(74,158,255,0.07)"/><circle cx="160.0" cy="511.9" r="1.5" fill="rgba(74,158,255,0.07)"/><circle cx="200.0" cy="511.9" r="1.5" fill="rgba(74,158,255,0.07)"/><circle cx="240.0" cy="511.9" r="1.5" fill="rgba(74,158,255,0.07)"/><circle cx="280.0" cy="511.9" r="1.5" fill="rgba(74,158,255,0.07)"/><circle cx="320.0" cy="511.9" r="1.5" fill="rgba(74,158,255,0.07)"/><circle cx="360.0" cy="511.9" r="1.5" fill="rgba(74,158,255,0.07)"/><circle cx="400.0" cy="511.9" r="1.5" fill="rgba(74,158,255,0.07)"/><circle cx="440.0" cy="511.9" r="1.5" fill="rgba(74,158,255,0.07)"/><circle cx="480.0" cy="511.9" r="1.5" fill="rgba(74,158,255,0.07)"/><circle cx="520.0" cy="511.9" r="1.5" fill="rgba(74,158,255,0.07)"/><circle cx="560.0" cy="511.9" r="1.5" fill="rgba(74,158,255,0.07)"/><circle cx="600.0" cy="511.9" r="1.5" fill="rgba(74,158,255,0.07)"/><circle cx="640.0" cy="511.9" r="1.5" fill="rgba(74,158,255,0.07)"/><circle cx="680.0" cy="511.9" r="1.5" fill="rgba(74,158,255,0.07)"/><circle cx="720.0" cy="511.9" r="1.5" fill="rgba(74,158,255,0.07)"/><circle cx="760.0" cy="511.9" r="1.5" fill="rgba(74,158,255,0.07)"/><circle cx="800.0" cy="511.9" r="1.5" fill="rgba(74,158,255,0.07)"/><circle cx="840.0" cy="511.9" r="1.5" fill="rgba(74,158,255,0.07)"/><circle cx="880.0" cy="511.9" r="1.5" fill="rgba(74,158,255,0.07)"/><circle cx="920.0" cy="511.9" r="1.5" fill="rgba(74,158,255,0.07)"/><circle cx="960.0" cy="511.9" r="1.5" fill="rgba(74,158,255,0.07)"/><circle cx="1000.0" cy="511.9" r="1.5" fill="rgba(74,158,255,0.07)"/><circle cx="1040.0" cy="511.9" r="1.5" fill="rgba(74,158,255,0.07)"/><circle cx="1080.0" cy="511.9" r="1.5" fill="rgba(74,158,255,0.07)"/><circle cx="1120.0" cy="511.9" r="1.5" fill="rgba(74,158,255,0.07)"/><circle cx="1160.0" cy="511.9" r="1.5" fill="rgba(74,158,255,0.07)"/><circle cx="1200.0" cy="511.9" r="1.5" fill="rgba(74,158,255,0.07)"/><circle cx="0.0" cy="551.3" r="1.5" fill="rgba(74,158,255,0.07)"/><circle cx="40.0" cy="551.3" r="1.5" fill="rgba(74,158,255,0.07)"/><circle cx="80.0" cy="551.3" r="1.5" fill="rgba(74,158,255,0.07)"/><circle cx="120.0" cy="551.3" r="1.5" fill="rgba(74,158,255,0.07)"/><circle cx="160.0" cy="551.3" r="1.5" fill="rgba(74,158,255,0.07)"/><circle cx="200.0" cy="551.3" r="1.5" fill="rgba(74,158,255,0.07)"/><circle cx="240.0" cy="551.3" r="1.5" fill="rgba(74,158,255,0.07)"/><circle cx="280.0" cy="551.3" r="1.5" fill="rgba(74,158,255,0.07)"/><circle cx="320.0" cy="551.3" r="1.5" fill="rgba(74,158,255,0.07)"/><circle cx="360.0" cy="551.3" r="1.5" fill="rgba(74,158,255,0.07)"/><circle cx="400.0" cy="551.3" r="1.5" fill="rgba(74,158,255,0.07)"/><circle cx="440.0" cy="551.3" r="1.5" fill="rgba(74,158,255,0.07)"/><circle cx="480.0" cy="551.3" r="1.5" fill="rgba(74,158,255,0.07)"/><circle cx="520.0" cy="551.3" r="1.5" fill="rgba(74,158,255,0.07)"/><circle cx="560.0" cy="551.3" r="1.5" fill="rgba(74,158,255,0.07)"/><circle cx="600.0" cy="551.3" r="1.5" fill="rgba(74,158,255,0.07)"/><circle cx="640.0" cy="551.3" r="1.5" fill="rgba(74,158,255,0.07)"/><circle cx="680.0" cy="551.3" r="1.5" fill="rgba(74,158,255,0.07)"/><circle cx="720.0" cy="551.3" r="1.5" fill="rgba(74,158,255,0.07)"/><circle cx="760.0" cy="551.3" r="1.5" fill="rgba(74,158,255,0.07)"/><circle cx="800.0" cy="551.3" r="1.5" fill="rgba(74,158,255,0.07)"/><circle cx="840.0" cy="551.3" r="1.5" fill="rgba(74,158,255,0.07)"/><circle cx="880.0" cy="551.3" r="1.5" fill="rgba(74,158,255,0.07)"/><circle cx="920.0" cy="551.3" r="1.5" fill="rgba(74,158,255,0.07)"/><circle cx="960.0" cy="551.3" r="1.5" fill="rgba(74,158,255,0.07)"/><circle cx="1000.0" cy="551.3" r="1.5" fill="rgba(74,158,255,0.07)"/><circle cx="1040.0" cy="551.3" r="1.5" fill="rgba(74,158,255,0.07)"/><circle cx="1080.0" cy="551.3" r="1.5" fill="rgba(74,158,255,0.07)"/><circle cx="1120.0" cy="551.3" r="1.5" fill="rgba(74,158,255,0.07)"/><circle cx="1160.0" cy="551.3" r="1.5" fill="rgba(74,158,255,0.07)"/><circle cx="1200.0" cy="551.3" r="1.5" fill="rgba(74,158,255,0.07)"/><circle cx="0.0" cy="590.6" r="1.5" fill="rgba(74,158,255,0.07)"/><circle cx="40.0" cy="590.6" r="1.5" fill="rgba(74,158,255,0.07)"/><circle cx="80.0" cy="590.6" r="1.5" fill="rgba(74,158,255,0.07)"/><circle cx="120.0" cy="590.6" r="1.5" fill="rgba(74,158,255,0.07)"/><circle cx="160.0" cy="590.6" r="1.5" fill="rgba(74,158,255,0.07)"/><circle cx="200.0" cy="590.6" r="1.5" fill="rgba(74,158,255,0.07)"/><circle cx="240.0" cy="590.6" r="1.5" fill="rgba(74,158,255,0.07)"/><circle cx="280.0" cy="590.6" r="1.5" fill="rgba(74,158,255,0.07)"/><circle cx="320.0" cy="590.6" r="1.5" fill="rgba(74,158,255,0.07)"/><circle cx="360.0" cy="590.6" r="1.5" fill="rgba(74,158,255,0.07)"/><circle cx="400.0" cy="590.6" r="1.5" fill="rgba(74,158,255,0.07)"/><circle cx="440.0" cy="590.6" r="1.5" fill="rgba(74,158,255,0.07)"/><circle cx="480.0" cy="590.6" r="1.5" fill="rgba(74,158,255,0.07)"/><circle cx="520.0" cy="590.6" r="1.5" fill="rgba(74,158,255,0.07)"/><circle cx="560.0" cy="590.6" r="1.5" fill="rgba(74,158,255,0.07)"/><circle cx="600.0" cy="590.6" r="1.5" fill="rgba(74,158,255,0.07)"/><circle cx="640.0" cy="590.6" r="1.5" fill="rgba(74,158,255,0.07)"/><circle cx="680.0" cy="590.6" r="1.5" fill="rgba(74,158,255,0.07)"/><circle cx="720.0" cy="590.6" r="1.5" fill="rgba(74,158,255,0.07)"/><circle cx="760.0" cy="590.6" r="1.5" fill="rgba(74,158,255,0.07)"/><circle cx="800.0" cy="590.6" r="1.5" fill="rgba(74,158,255,0.07)"/><circle cx="840.0" cy="590.6" r="1.5" fill="rgba(74,158,255,0.07)"/><circle cx="880.0" cy="590.6" r="1.5" fill="rgba(74,158,255,0.07)"/><circle cx="920.0" cy="590.6" r="1.5" fill="rgba(74,158,255,0.07)"/><circle cx="960.0" cy="590.6" r="1.5" fill="rgba(74,158,255,0.07)"/><circle cx="1000.0" cy="590.6" r="1.5" fill="rgba(74,158,255,0.07)"/><circle cx="1040.0" cy="590.6" r="1.5" fill="rgba(74,158,255,0.07)"/><circle cx="1080.0" cy="590.6" r="1.5" fill="rgba(74,158,255,0.07)"/><circle cx="1120.0" cy="590.6" r="1.5" fill="rgba(74,158,255,0.07)"/><circle cx="1160.0" cy="590.6" r="1.5" fill="rgba(74,158,255,0.07)"/><circle cx="1200.0" cy="590.6" r="1.5" fill="rgba(74,158,255,0.07)"/><circle cx="0.0" cy="630.0" r="1.5" fill="rgba(74,158,255,0.07)"/><circle cx="40.0" cy="630.0" r="1.5" fill="rgba(74,158,255,0.07)"/><circle cx="80.0" cy="630.0" r="1.5" fill="rgba(74,158,255,0.07)"/><circle cx="120.0" cy="630.0" r="1.5" fill="rgba(74,158,255,0.07)"/><circle cx="160.0" cy="630.0" r="1.5" fill="rgba(74,158,255,0.07)"/><circle cx="200.0" cy="630.0" r="1.5" fill="rgba(74,158,255,0.07)"/><circle cx="240.0" cy="630.0" r="1.5" fill="rgba(74,158,255,0.07)"/><circle cx="280.0" cy="630.0" r="1.5" fill="rgba(74,158,255,0.07)"/><circle cx="320.0" cy="630.0" r="1.5" fill="rgba(74,158,255,0.07)"/><circle cx="360.0" cy="630.0" r="1.5" fill="rgba(74,158,255,0.07)"/><circle cx="400.0" cy="630.0" r="1.5" fill="rgba(74,158,255,0.07)"/><circle cx="440.0" cy="630.0" r="1.5" fill="rgba(74,158,255,0.07)"/><circle cx="480.0" cy="630.0" r="1.5" fill="rgba(74,158,255,0.07)"/><circle cx="520.0" cy="630.0" r="1.5" fill="rgba(74,158,255,0.07)"/><circle cx="560.0" cy="630.0" r="1.5" fill="rgba(74,158,255,0.07)"/><circle cx="600.0" cy="630.0" r="1.5" fill="rgba(74,158,255,0.07)"/><circle cx="640.0" cy="630.0" r="1.5" fill="rgba(74,158,255,0.07)"/><circle cx="680.0" cy="630.0" r="1.5" fill="rgba(74,158,255,0.07)"/><circle cx="720.0" cy="630.0" r="1.5" fill="rgba(74,158,255,0.07)"/><circle cx="760.0" cy="630.0" r="1.5" fill="rgba(74,158,255,0.07)"/><circle cx="800.0" cy="630.0" r="1.5" fill="rgba(74,158,255,0.07)"/><circle cx="840.0" cy="630.0" r="1.5" fill="rgba(74,158,255,0.07)"/><circle cx="880.0" cy="630.0" r="1.5" fill="rgba(74,158,255,0.07)"/><circle cx="920.0" cy="630.0" r="1.5" fill="rgba(74,158,255,0.07)"/><circle cx="960.0" cy="630.0" r="1.5" fill="rgba(74,158,255,0.07)"/><circle cx="1000.0" cy="630.0" r="1.5" fill="rgba(74,158,255,0.07)"/><circle cx="1040.0" cy="630.0" r="1.5" fill="rgba(74,158,255,0.07)"/><circle cx="1080.0" cy="630.0" r="1.5" fill="rgba(74,158,255,0.07)"/><circle cx="1120.0" cy="630.0" r="1.5" fill="rgba(74,158,255,0.07)"/><circle cx="1160.0" cy="630.0" r="1.5" fill="rgba(74,158,255,0.07)"/><circle cx="1200.0" cy="630.0" r="1.5" fill="rgba(74,158,255,0.07)"/>
    <line x1="260" y1="315" x2="800" y2="130" stroke="#4a9eff" stroke-width="1.5" opacity="0.3" stroke-dasharray="6 4"/><circle cx="510" cy="222.5" r="4" fill="#4a9eff" opacity="0.3"/><line x1="260" y1="315" x2="880" y2="260" stroke="#4a9eff" stroke-width="1.5" opacity="0.3" stroke-dasharray="6 4"/><circle cx="550" cy="287.5" r="4" fill="#4a9eff" opacity="0.37"/><line x1="260" y1="315" x2="920" y2="400" stroke="#4a9eff" stroke-width="1.5" opacity="0.3" stroke-dasharray="6 4"/><circle cx="570" cy="357.5" r="4" fill="#4a9eff" opacity="0.44"/><line x1="260" y1="315" x2="860" y2="520" stroke="#4a9eff" stroke-width="1.5" opacity="0.3" stroke-dasharray="6 4"/><circle cx="540" cy="417.5" r="4" fill="#4a9eff" opacity="0.51"/><line x1="260" y1="315" x2="760" y2="590" stroke="#4a9eff" stroke-width="1.5" opacity="0.3" stroke-dasharray="6 4"/><circle cx="490" cy="452.5" r="4" fill="#4a9eff" opacity="0.5800000000000001"/>
    
    <rect x="140" y="245" width="120" height="140" rx="12" fill="#4a9eff" opacity="0.10" stroke="#4a9eff" stroke-width="1.5" stroke-opacity="0.5"/>
    <text x="200" y="305" font-family="Rajdhani,sans-serif" font-size="22" fill="#4a9eff" text-anchor="middle" font-weight="700">APK</text>
    <rect x="164" y="323" width="72" height="10" rx="5" fill="#4a9eff" opacity="0.3"/>
    <rect x="164" y="341" width="52" height="10" rx="5" fill="#4a9eff" opacity="0.18"/>
    <text x="200" y="387" font-family="Rajdhani,sans-serif" font-size="12" fill="#8fa4bf" text-anchor="middle">v1.2.4</text>
    
    <circle cx="820" cy="130" r="25" fill="#22d68a" opacity="0.07"/>
    <circle cx="820" cy="130" r="15" fill="#22d68a" opacity="0.12"/>
    <circle cx="820" cy="130" r="10" fill="#22d68a" opacity="0.9"/><text x="844" y="135" font-family="Rajdhani,sans-serif" font-size="12" fill="#22d68a" opacity="0.7">INSTALLED</text>
    <circle cx="900" cy="260" r="25" fill="#22d68a" opacity="0.07"/>
    <circle cx="900" cy="260" r="15" fill="#22d68a" opacity="0.12"/>
    <circle cx="900" cy="260" r="10" fill="#22d68a" opacity="0.9"/><text x="924" y="265" font-family="Rajdhani,sans-serif" font-size="12" fill="#22d68a" opacity="0.7">INSTALLED</text>
    <circle cx="940" cy="400" r="25" fill="#22d68a" opacity="0.07"/>
    <circle cx="940" cy="400" r="15" fill="#22d68a" opacity="0.12"/>
    <circle cx="940" cy="400" r="10" fill="#22d68a" opacity="0.9"/><text x="964" y="405" font-family="Rajdhani,sans-serif" font-size="12" fill="#22d68a" opacity="0.7">INSTALLED</text>
    <circle cx="880" cy="520" r="25" fill="#22d68a" opacity="0.07"/>
    <circle cx="880" cy="520" r="15" fill="#22d68a" opacity="0.12"/>
    <circle cx="880" cy="520" r="10" fill="#22d68a" opacity="0.9"/><text x="904" y="525" font-family="Rajdhani,sans-serif" font-size="12" fill="#22d68a" opacity="0.7">INSTALLED</text>
    <circle cx="780" cy="590" r="25" fill="#22d68a" opacity="0.07"/>
    <circle cx="780" cy="590" r="15" fill="#22d68a" opacity="0.12"/>
    <circle cx="780" cy="590" r="10" fill="#22d68a" opacity="0.9"/><text x="804" y="595" font-family="Rajdhani,sans-serif" font-size="12" fill="#22d68a" opacity="0.7">INSTALLED</text>
    <text x="680" y="582" font-family="Rajdhani,sans-serif" font-size="18" fill="#4a9eff" text-anchor="middle" opacity="0.6" letter-spacing="4">ONE UPLOAD · 全部设备统一安装</text>
</svg>